<?xml version="1.0" standalone="no"?>
<!DOCTYPE svg PUBLIC "-//W3C//DTD SVG 1.1//EN" "http://www.w3.org/Graphics/SVG/1.1/DTD/svg11.dtd" >
<svg xmlns="http://www.w3.org/2000/svg" xmlns:xlink="http://www.w3.org/1999/xlink" version="1.1">
<metadata>
Created by FontForge 20170731 at Fri Jan 11 13:45:33 2019
 By Aleksey,,,
Copyright (c) 2019 by Typetype. Designer Ivan Gladkikh, technical designers Philipp Nurullin, Marina Khodak, Nadezhda Polomoshnova, Roman Ershov. All rights reserved. Desktop use is strictly prohibited.
</metadata>
<defs>
<font id="TTSupermolotNeue-Regular" horiz-adv-x="1095" >
  <font-face 
    font-family="TT Supermolot Neue"
    font-weight="400"
    font-stretch="normal"
    units-per-em="2048"
    panose-1="2 0 5 3 2 0 0 2 0 4"
    ascent="1638"
    descent="-410"
    x-height="1014"
    cap-height="1434"
    bbox="-307 -563 2945 1905"
    underline-thickness="0"
    underline-position="0"
    unicode-range="U+000D-FB06"
  />
<missing-glyph horiz-adv-x="0" 
 />
    <glyph glyph-name="uniFB00" unicode="ff" horiz-adv-x="1320" 
d="M164 0v1137q0 115 75.5 190.5t190.5 75.5h256q41 0 76 -13.5t56.5 -32t37.5 -36.5t23 -31l6 -14h10q2 6 7 14t21.5 29.5t37 39t54.5 31t70 13.5h277v-133h-266q-143 0 -144 -144v-215h297v-71l-30 -62h-267v-778h-133v1126q0 143 -143 144h-236q-143 0 -143 -144v-215
h297v-71l-31 -62h-266v-778h-133z" />
    <glyph glyph-name="uniFB01" unicode="fi" horiz-adv-x="1105" 
d="M164 0v1137q0 115 75.5 190.5t190.5 75.5h502v-133h-492q-143 0 -143 -144v-215h655v-911h-133v778h-522v-778h-133z" />
    <glyph glyph-name="uniFB02" unicode="fl" horiz-adv-x="1116" 
d="M164 0v1137q0 115 75.5 190.5t190.5 75.5h522v-1403h-133v1270h-379q-143 0 -143 -144v-215h297v-71l-31 -62h-266v-778h-133z" />
    <glyph glyph-name="uniFB03" unicode="ffi" horiz-adv-x="1761" 
d="M164 0v1137q0 115 75.5 190.5t190.5 75.5h256q41 0 76 -13.5t56.5 -32t37.5 -36.5t23 -31l6 -14h10q2 6 7 14t21.5 29.5t37 39t54.5 31t70 13.5h492v-133h-481q-143 0 -144 -144v-215h656v-911h-133v778h-523v-778h-133v1126q0 143 -143 144h-236q-143 0 -143 -144v-215
h297v-71l-31 -62h-266v-778h-133z" />
    <glyph glyph-name="uniFB04" unicode="ffl" horiz-adv-x="1771" 
d="M164 0v1137q0 115 75.5 190.5t190.5 75.5h256q41 0 76 -13.5t56.5 -32t37.5 -36.5t23 -31l6 -14h10q2 6 7 14t21.5 29.5t37 39t54.5 31t70 13.5h523v-1403h-133v1270h-379q-143 0 -144 -144v-215h297v-71l-30 -62h-267v-778h-133v1126q0 143 -143 144h-236
q-143 0 -143 -144v-215h297v-71l-31 -62h-266v-778h-133z" />
    <glyph glyph-name="f_b.liga" unicode="fb" horiz-adv-x="1751" 
d="M164 0v1137q0 115 75.5 190.5t190.5 75.5h522v-492h11q2 4 7 13.5t25.5 30t45 37t66.5 29.5t91 13h164q115 0 190.5 -75.5t75.5 -190.5v-502q0 -115 -75.5 -190.5t-190.5 -75.5h-543v1270h-379q-143 0 -143 -144v-215h297v-71l-31 -62h-266v-778h-133zM952 133h400
q143 0 143 143v482q0 143 -143 143h-185q-100 0 -157.5 -57.5t-57.5 -157.5v-553z" />
    <glyph glyph-name="f_f_b.liga" unicode="ffb" horiz-adv-x="2406" 
d="M164 0v1137q0 115 75.5 190.5t190.5 75.5h256q41 0 76 -13.5t56.5 -32t37.5 -36.5t23 -31l6 -14h10q2 6 7 14t21.5 29.5t37 39t54.5 31t70 13.5h523v-492h10q2 4 7 13.5t25.5 30t45 37t66.5 29.5t91 13h164q115 0 191 -75.5t76 -190.5v-502q0 -115 -76 -190.5t-191 -75.5
h-542v1270h-379q-143 0 -144 -144v-215h297v-71l-30 -62h-267v-778h-133v1126q0 143 -143 144h-236q-143 0 -143 -144v-215h297v-71l-31 -62h-266v-778h-133zM1608 133h399q143 0 143 143v482q0 143 -143 143h-184q-100 0 -157.5 -57.5t-57.5 -157.5v-553z" />
    <glyph glyph-name="f_f_f.liga" unicode="fff" horiz-adv-x="1976" 
d="M164 0v1137q0 115 75.5 190.5t190.5 75.5h256q41 0 76 -13.5t56.5 -32t37.5 -36.5t23 -31l6 -14h10q2 6 7 14t21.5 29.5t37 39t54.5 31t70 13.5h256q41 0 76 -13.5t56.5 -32t38 -36.5t22.5 -31l6 -14h10q2 6 7.5 14t21.5 29.5t36.5 39t54.5 31t71 13.5h276v-133h-266
q-143 0 -143 -144v-215h297v-71l-31 -62h-266v-778h-133v1126q0 143 -144 144h-235q-143 0 -144 -144v-215h297v-71l-30 -62h-267v-778h-133v1126q0 143 -143 144h-236q-143 0 -143 -144v-215h297v-71l-31 -62h-266v-778h-133z" />
    <glyph glyph-name="f_f_h.liga" unicode="ffh" horiz-adv-x="2406" 
d="M164 0v1137q0 115 75.5 190.5t190.5 75.5h256q41 0 76 -13.5t56.5 -32t37.5 -36.5t23 -31l6 -14h10q2 6 7 14t21.5 29.5t37 39t54.5 31t70 13.5h523v-492h10q2 4 7 13.5t25.5 30t45 37t66.5 29.5t91 13h134q115 0 190.5 -75.5t75.5 -190.5v-768h-133v758q0 143 -144 143
h-153q-100 0 -157.5 -57.5t-57.5 -157.5v-686h-133v1270h-379q-143 0 -144 -144v-215h297v-71l-30 -62h-267v-778h-133v1126q0 143 -143 144h-236q-143 0 -143 -144v-215h297v-71l-31 -62h-266v-778h-133z" />
    <glyph glyph-name="f_f_j.liga" unicode="ffj" horiz-adv-x="1761" 
d="M164 0v1137q0 115 75.5 190.5t190.5 75.5h256q41 0 76 -13.5t56.5 -32t37.5 -36.5t23 -31l6 -14h10q2 6 7 14t21.5 29.5t37 39t54.5 31t70 13.5h492v-133h-481q-143 0 -144 -144v-215h656v-993q0 -115 -76 -190.5t-191 -75.5h-112v133h102q143 0 144 143v850h-523v-778
h-133v1126q0 143 -143 144h-236q-143 0 -143 -144v-215h297v-71l-31 -62h-266v-778h-133z" />
    <glyph glyph-name="f_f_k.liga" unicode="ffk" horiz-adv-x="2314" 
d="M164 0v1137q0 115 75.5 190.5t190.5 75.5h256q41 0 76 -13.5t56.5 -32t37.5 -36.5t23 -31l6 -14h10q2 6 7 14t21.5 29.5t37 39t54.5 31t70 13.5h523v-819h266l256 430h102v-72l-245 -410l266 -460v-72h-113l-256 451h-276v-451h-133v1270h-379q-143 0 -144 -144v-215h297
v-71l-30 -62h-267v-778h-133v1126q0 143 -143 144h-236q-143 0 -143 -144v-215h297v-71l-31 -62h-266v-778h-133z" />
    <glyph glyph-name="f_f_t.liga" unicode="fft" horiz-adv-x="1986" 
d="M164 0v1137q0 115 75.5 190.5t190.5 75.5h256q41 0 76 -13.5t56.5 -32t37.5 -36.5t23 -31l6 -14h10q2 6 7 14t21.5 29.5t37 39t54.5 31t70 13.5h256q115 0 191 -76t76 -190v-226h297v-92l-41 -41h-256v-502q0 -143 143 -143h174v-133h-184q-115 0 -190.5 76t-75.5 190
v860q0 143 -144 144h-235q-143 0 -144 -144v-215h297v-71l-30 -62h-267v-778h-133v1126q0 143 -143 144h-236q-143 0 -143 -144v-215h297v-71l-31 -62h-266v-778h-133z" />
    <glyph glyph-name="f_h.liga" unicode="fh" horiz-adv-x="1751" 
d="M164 0v1137q0 115 75.5 190.5t190.5 75.5h522v-492h11q2 4 7 13.5t25.5 30t45 37t66.5 29.5t91 13h133q115 0 190.5 -75.5t75.5 -190.5v-768h-133v758q0 143 -143 143h-154q-100 0 -157.5 -57.5t-57.5 -157.5v-686h-133v1270h-379q-143 0 -143 -144v-215h297v-71l-31 -62
h-266v-778h-133z" />
    <glyph glyph-name="f_j.liga" unicode="fj" horiz-adv-x="1105" 
d="M164 0v1137q0 115 75.5 190.5t190.5 75.5h502v-133h-492q-143 0 -143 -144v-215h655v-993q0 -115 -75.5 -190.5t-190.5 -75.5h-113v133h103q143 0 143 143v850h-522v-778h-133z" />
    <glyph glyph-name="f_k.liga" unicode="fk" horiz-adv-x="1658" 
d="M164 0v1137q0 115 75.5 190.5t190.5 75.5h522v-819h267l256 430h102v-72l-246 -410l266 -460v-72h-112l-256 451h-277v-451h-133v1270h-379q-143 0 -143 -144v-215h297v-71l-31 -62h-266v-778h-133z" />
    <glyph glyph-name="f_t.liga" unicode="ft" horiz-adv-x="1331" 
d="M164 0v1137q0 115 75.5 190.5t190.5 75.5h256q115 0 190.5 -76t75.5 -190v-226h297v-92l-41 -41h-256v-502q0 -143 144 -143h174v-133h-185q-115 0 -190.5 76t-75.5 190v860q0 143 -143 144h-236q-143 0 -143 -144v-215h297v-71l-31 -62h-266v-778h-133z" />
    <glyph glyph-name=".notdef" horiz-adv-x="0" 
 />
    <glyph glyph-name="glyph1" horiz-adv-x="0" 
 />
    <glyph glyph-name="glyph1" horiz-adv-x="0" 
 />
    <glyph glyph-name="glyph2" horiz-adv-x="681" 
 />
    <glyph glyph-name="uni000D" unicode="&#xd;" horiz-adv-x="0" 
 />
    <glyph glyph-name="space" unicode=" " horiz-adv-x="491" 
 />
    <glyph glyph-name="exclam" unicode="!" horiz-adv-x="501" 
d="M215 420l-31 543v471h133v-471l-30 -543h-72zM184 0v195h133v-195h-133z" />
    <glyph glyph-name="quotedbl" unicode="&#x22;" horiz-adv-x="634" 
d="M147 983l-24 225v226h113v-226l-27 -225h-62zM424 983l-25 225v226h113v-226l-27 -225h-61z" />
    <glyph glyph-name="numbersign" unicode="#" horiz-adv-x="1232" 
d="M164 0l76 348h-209v123h239l113 492h-229v122h260l78 349h122l-77 -349h333l76 349h123l-76 -349h209v-122h-239l-113 -492h229v-123h-260l-78 -348h-123l78 348h-334l-75 -348h-123zM393 471h334l113 492h-334z" />
    <glyph glyph-name="dollar" unicode="$" horiz-adv-x="1157" 
d="M113 0v133h614q184 0 184 184v134q0 147 -184 184l-348 72q-125 25 -195.5 105.5t-70.5 201.5v112q0 139 85 223.5t222 84.5h82v215h143v-215h359v-93l-39 -41h-535q-184 0 -184 -184v-92q0 -147 184 -184l348 -72q125 -27 195.5 -106.5t70.5 -200.5v-154
q0 -139 -83.5 -223t-223.5 -84h-92v-215h-143v215h-389z" />
    <glyph glyph-name="percent" unicode="%" horiz-adv-x="1474" 
d="M72 983v246q0 100 62.5 162.5t162.5 62.5h92q100 0 162.5 -62.5t62.5 -162.5v-246q0 -100 -62.5 -162.5t-162.5 -62.5h-92q-100 0 -162.5 62.5t-62.5 162.5zM276 0v72l830 1362h92v-72l-829 -1362h-93zM307 870h72q113 0 113 113v246q0 113 -113 112h-72
q-113 0 -112 -112v-246q-1 -113 112 -113zM860 205v246q0 100 62.5 162.5t162.5 62.5h93q100 0 162.5 -62.5t62.5 -162.5v-246q0 -100 -62.5 -162.5t-162.5 -62.5h-93q-100 0 -162.5 62.5t-62.5 162.5zM1096 92h71q113 0 113 113v246q0 113 -113 112h-71q-113 0 -113 -112
v-246q0 -113 113 -113z" />
    <glyph glyph-name="ampersand" unicode="&#x26;" horiz-adv-x="1116" 
d="M72 287v164q0 80 27.5 141t66.5 91t78 48.5t67 22.5l27 4v10q-4 4 -13.5 10t-30 28.5t-36.5 49.5t-29.5 70t-13.5 88v112q0 139 85 223.5t222 84.5h410v-93l-41 -41h-359q-184 0 -184 -184v-92q0 -55 26.5 -99t86.5 -106l686 -747v-72h-113l-133 143h-10q-2 -6 -8 -17
t-27.5 -40t-50.5 -50.5t-80 -38.5t-111 -17h-235q-137 0 -222 84t-85 223zM389 113h215q45 0 81 15t54.5 37.5t30.5 46.5t16 38l2 16l-337 359h-62q-184 0 -184 -185v-143q0 -184 184 -184z" />
    <glyph glyph-name="quotesingle" unicode="'" horiz-adv-x="358" 
d="M147 983l-24 225v226h113v-226l-27 -225h-62z" />
    <glyph glyph-name="parenleft" unicode="(" horiz-adv-x="624" 
d="M184 -82v1372q0 139 84 223t224 84h92v-133h-82q-184 0 -185 -184v-1352q0 -184 185 -184h82v-133h-92q-139 0 -223.5 84t-84.5 223z" />
    <glyph glyph-name="parenright" unicode=")" horiz-adv-x="624" 
d="M41 -389v133h82q184 0 184 184v1352q0 184 -184 184h-82v133h92q137 0 222 -83.5t85 -223.5v-1372q0 -139 -85 -223t-222 -84h-92z" />
    <glyph glyph-name="asterisk" unicode="*" horiz-adv-x="757" 
d="M123 860l194 225l-256 52l21 102l256 -61l-10 256h102l-10 -256l256 61l20 -102l-256 -52l195 -225l-82 -61l-174 235l-174 -235z" />
    <glyph glyph-name="plus" unicode="+" horiz-adv-x="1003" 
d="M440 246v348h-338v123h338v348h123v-348h338v-123h-338v-348h-123z" />
    <glyph glyph-name="comma" unicode="," horiz-adv-x="358" 
d="M113 -256v451h133v-164l-72 -287h-61z" />
    <glyph glyph-name="hyphen" unicode="-" horiz-adv-x="757" 
d="M82 594v123h594v-123h-594z" />
    <glyph glyph-name="period" unicode="." horiz-adv-x="358" 
d="M113 0v195h133v-195h-133z" />
    <glyph glyph-name="slash" unicode="/" horiz-adv-x="768" 
d="M0 -102v71l655 1567h113v-72l-655 -1566h-113z" />
    <glyph glyph-name="zero" unicode="0" horiz-adv-x="1218" 
d="M164 287v860q0 139 84 223t223 84h277q137 0 222 -84t85 -223v-860q0 -137 -85 -222t-225 -85h-274q-139 0 -223 84t-84 223zM481 113h256q184 0 185 184v840q0 184 -185 184h-256q-184 0 -184 -184v-840q0 -184 184 -184z" />
    <glyph glyph-name="one" unicode="1" horiz-adv-x="768" 
d="M102 0v123h256v1034h-245v123h245v164h134v-1321h256v-123h-646z" />
    <glyph glyph-name="two" unicode="2" horiz-adv-x="1013" 
d="M51 0v133l594 563q39 37 58.5 61.5t37 73t17.5 111.5v174q0 184 -185 184h-460l-41 41v93h512q137 0 222 -84t85 -224v-194q0 -82 -25.5 -148.5t-53.5 -100.5t-75 -79l-501 -461v-10h655v-133h-840z" />
    <glyph glyph-name="three" unicode="3" horiz-adv-x="1024" 
d="M61 0v133h543q184 0 184 184v175q0 184 -184 184h-307v133l399 481v10h-594l-41 41v93h809v-134l-409 -481v-10h153q139 0 223.5 -85t84.5 -222v-195q0 -139 -84 -223t-224 -84h-553z" />
    <glyph glyph-name="four" unicode="4" horiz-adv-x="1064" 
d="M51 348v133l461 953h113v-62l-430 -880v-11h512v482h133v-482h204v-133h-204v-348h-133v348h-656z" />
    <glyph glyph-name="five" unicode="5" horiz-adv-x="1064" 
d="M123 0v133h522q184 0 184 184v236q0 184 -184 184h-502v697h779v-93l-41 -41h-605v-430h379q139 0 223.5 -85t84.5 -222v-256q0 -139 -84 -223t-224 -84h-532z" />
    <glyph glyph-name="six" unicode="6" horiz-adv-x="1136" 
d="M113 287v276q0 72 34.5 139.5t118.5 178.5l420 553h123v-62l-389 -512v-10h297q139 0 223 -85t84 -222v-256q0 -139 -84 -223t-223 -84h-297q-137 0 -222 84t-85 223zM430 113h277q184 0 184 184v235q0 184 -184 185h-277q-184 0 -184 -185v-235q0 -184 184 -184z" />
    <glyph glyph-name="seven" unicode="7" horiz-adv-x="942" 
d="M266 0v72l471 1218v10h-696v134h840v-134l-502 -1300h-113z" />
    <glyph glyph-name="eight" unicode="8" horiz-adv-x="1167" 
d="M440 113h287q184 0 184 184v195q0 84 -50 134t-134 50h-287q-84 0 -134 -50.5t-50 -133.5v-195q0 -184 184 -184zM123 287v184q0 63 20.5 113.5t49 78t56 46t48.5 24.5l20 4v11q-6 2 -17 7t-40 25.5t-50.5 47t-38.5 76.5t-17 110v133q0 139 85 223t222 84h246
q137 0 222 -84t85 -223v-133q0 -59 -16.5 -109.5t-41 -78t-49 -47t-41.5 -25.5l-16 -6v-11q8 -2 21.5 -6t46 -23.5t58 -46t47 -76.5t21.5 -114v-184q0 -139 -83.5 -223t-223.5 -84h-307q-139 0 -223 84t-84 223zM471 809h225q84 0 134.5 50t50.5 134v144q0 184 -185 184
h-225q-184 0 -184 -184v-144q0 -84 50 -134t134 -50z" />
    <glyph glyph-name="nine" unicode="9" horiz-adv-x="1136" 
d="M328 0v61l389 512v11h-297q-137 0 -222 85t-85 222v256q0 139 85 223t222 84h297q139 0 223 -84t84 -223v-277q0 -72 -35 -139t-119 -178l-419 -553h-123zM430 717h277q184 0 184 184v236q0 184 -184 184h-277q-184 0 -184 -184v-236q0 -184 184 -184z" />
    <glyph glyph-name="colon" unicode=":" horiz-adv-x="358" 
d="M113 0v195h133v-195h-133zM113 819v195h133v-195h-133z" />
    <glyph glyph-name="semicolon" unicode=";" horiz-adv-x="358" 
d="M113 819v195h133v-195h-133zM113 -256v451h133v-164l-72 -287h-61z" />
    <glyph glyph-name="less" unicode="&#x3c;" horiz-adv-x="1003" 
d="M92 451v133l809 420v-134l-676 -348v-10l676 -348v-133z" />
    <glyph glyph-name="equal" unicode="=" horiz-adv-x="1003" 
d="M102 778v123h799v-123h-799zM102 410v122h799v-122h-799z" />
    <glyph glyph-name="greater" unicode="&#x3e;" horiz-adv-x="1003" 
d="M102 31v133l676 348v10l-676 348v134l809 -420v-133z" />
    <glyph glyph-name="question" unicode="?" horiz-adv-x="911" 
d="M307 0v195h133v-195h-133zM307 410v61q0 94 37 154.5t90 90t105.5 54.5t89.5 67t37 105v174q0 184 -185 184h-409l-41 41v93h461q139 0 223 -84t84 -224v-184q0 -90 -37 -149.5t-90.5 -88t-106.5 -54t-90 -68.5t-37 -111v-61h-131z" />
    <glyph glyph-name="at" unicode="@" horiz-adv-x="1699" 
d="M164 61v943q0 139 84 223t223 84h758q139 0 223 -84t84 -223v-771h-92l-31 105h-10q-2 -4 -6 -13.5t-22.5 -30t-42 -36.5t-64.5 -29.5t-90 -13.5h-195q-115 0 -190.5 76t-75.5 190v92q0 115 75.5 191t190.5 76h420v153q0 84 -50 134.5t-134 50.5h-738q-184 0 -184 -185
v-921q0 -84 50 -134.5t134 -50.5h1035v-133h-1045q-139 0 -223 84t-84 223zM993 348h195q92 0 153.5 61.5t61.5 153.5v144h-410q-143 0 -143 -144v-71q0 -144 143 -144z" />
    <glyph glyph-name="A" unicode="A" horiz-adv-x="1187" 
d="M41 0v72l471 1362h164l471 -1362v-72h-123l-123 369h-614l-123 -369h-123zM328 502h532l-266 778z" />
    <glyph glyph-name="B" unicode="B" horiz-adv-x="1259" 
d="M328 133h481q184 0 184 184v175q0 184 -184 184h-481v-543zM195 0v1434h604q139 0 223 -84t84 -224v-102q0 -63 -18.5 -113.5t-43 -78t-50 -46t-44.5 -24.5l-18 -4v-10q8 -2 21.5 -5.5t46 -22t58 -46t47 -80.5t21.5 -123v-164q0 -139 -84 -223t-223 -84h-624zM328 809
h460q184 0 185 195v112q0 184 -185 184h-460v-491z" />
    <glyph glyph-name="C" unicode="C" horiz-adv-x="1136" 
d="M164 307v819q0 139 84 223.5t223 84.5h594v-93l-41 -41h-543q-184 0 -184 -184v-799q0 -184 184 -184h584v-133h-594q-139 0 -223 84t-84 223z" />
    <glyph glyph-name="D" unicode="D" horiz-adv-x="1331" 
d="M195 0v1434h665q139 0 223 -84t84 -224v-819q0 -139 -84 -223t-223 -84h-665zM328 133h522q184 0 184 184v799q0 184 -184 184h-522v-1167z" />
    <glyph glyph-name="E" unicode="E" horiz-adv-x="1116" 
d="M195 0v1434h849v-93l-40 -41h-676v-501h522v-133h-522v-533h716v-133h-849z" />
    <glyph glyph-name="F" unicode="F" horiz-adv-x="1075" 
d="M195 0v1434h839v-93l-41 -41h-665v-563h512v-133h-512v-604h-133z" />
    <glyph glyph-name="G" unicode="G" horiz-adv-x="1290" 
d="M164 307v819q0 139 84 223.5t223 84.5h594v-93l-41 -41h-543q-184 0 -184 -184v-799q0 -184 184 -184h512v635h133v-768h-655q-139 0 -223 84t-84 223z" />
    <glyph glyph-name="H" unicode="H" horiz-adv-x="1361" 
d="M195 0v1434h133v-635h706v635h133v-1434h-133v666h-706v-666h-133z" />
    <glyph glyph-name="I" unicode="I" horiz-adv-x="522" 
d="M195 0v1434h133v-1434h-133z" />
    <glyph glyph-name="J" unicode="J" horiz-adv-x="880" 
d="M20 -20v133h359q184 0 184 184v1137h133v-1147q0 -139 -84 -223t-223 -84h-369z" />
    <glyph glyph-name="K" unicode="K" horiz-adv-x="1239" 
d="M195 0v1434h133v-635h348l368 635h113v-72l-369 -625l390 -665v-72h-123l-379 666h-348v-666h-133z" />
    <glyph glyph-name="L" unicode="L" horiz-adv-x="1054" 
d="M195 0v1434h133v-1301h706v-133h-839z" />
    <glyph glyph-name="M" unicode="M" horiz-adv-x="1730" 
d="M123 0v72l164 1362h143l430 -1045h10l430 1045h144l164 -1362v-72h-133l-134 1178h-10l-399 -973h-133l-400 973h-10l-133 -1178h-133z" />
    <glyph glyph-name="N" unicode="N" horiz-adv-x="1392" 
d="M195 0v1434h153l707 -1188h10v1188h133v-1434h-154l-706 1188h-10v-1188h-133z" />
    <glyph glyph-name="O" unicode="O" horiz-adv-x="1320" 
d="M164 287v860q0 139 84 223t223 84h379q137 0 222 -84t85 -223v-860q0 -139 -85 -223t-222 -84h-379q-139 0 -223 84t-84 223zM481 113h359q184 0 184 184v840q0 184 -184 184h-359q-184 0 -184 -184v-840q0 -184 184 -184z" />
    <glyph glyph-name="P" unicode="P" horiz-adv-x="1269" 
d="M195 0v1434h645q139 0 223 -84t84 -224v-327q0 -139 -84 -223t-223 -84h-512v-492h-133zM328 625h501q184 0 185 184v307q0 184 -185 184h-501v-675z" />
    <glyph glyph-name="Q" unicode="Q" horiz-adv-x="1320" 
d="M768 -328l-184 308h-113q-139 0 -223 83.5t-84 223.5v860q0 139 84 223t223 84h379q137 0 222 -84t85 -223v-860q0 -139 -85 -223t-222 -84h-123l164 -236v-72h-123zM481 113h359q184 0 184 184v840q0 184 -184 184h-359q-184 0 -184 -184v-840q0 -184 184 -184z" />
    <glyph glyph-name="R" unicode="R" horiz-adv-x="1300" 
d="M195 0v1434h645q139 0 223 -84t84 -224v-256q0 -78 -28.5 -136t-69.5 -88t-81 -47t-69 -21l-29 -5l297 -501v-72h-123l-307 563h-409v-563h-133zM328 696h501q90 0 137.5 49.5t47.5 135.5v235q0 184 -185 184h-501v-604z" />
    <glyph glyph-name="S" unicode="S" horiz-adv-x="1157" 
d="M113 0v133h614q184 0 184 184v134q0 147 -184 184l-348 72q-125 25 -195.5 105.5t-70.5 201.5v112q0 139 85 223.5t222 84.5h584v-93l-39 -41h-535q-184 0 -184 -184v-92q0 -147 184 -184l348 -72q125 -27 195.5 -106.5t70.5 -200.5v-154q0 -139 -83.5 -223t-223.5 -84
h-624z" />
    <glyph glyph-name="T" unicode="T" horiz-adv-x="1034" 
d="M451 0v1300h-431v134h994v-93l-41 -41h-389v-1300h-133z" />
    <glyph glyph-name="U" unicode="U" horiz-adv-x="1320" 
d="M174 287v1147h133v-1137q0 -184 185 -184h337q184 0 185 184v1137h133v-1147q0 -139 -84 -223t-223 -84h-359q-137 0 -222 84t-85 223z" />
    <glyph glyph-name="V" unicode="V" horiz-adv-x="1218" 
d="M522 0l-461 1362v72h123l420 -1291h10l420 1291h123v-72l-461 -1362h-174z" />
    <glyph glyph-name="W" unicode="W" horiz-adv-x="1751" 
d="M389 0l-328 1362v72h123l297 -1229h11l307 1229h153l308 -1229h10l297 1229h123v-72l-328 -1362h-174l-307 1219h-11l-307 -1219h-174z" />
    <glyph glyph-name="X" unicode="X" 
d="M51 0v72l400 665l-359 625v72h113l338 -615h10l338 615h113v-72l-359 -625l399 -665v-72h-112l-379 655h-10l-379 -655h-113z" />
    <glyph glyph-name="Y" unicode="Y" horiz-adv-x="1075" 
d="M471 0v502l-430 860v72h113l378 -779h11l379 779h112v-72l-430 -860v-502h-133z" />
    <glyph glyph-name="Z" unicode="Z" horiz-adv-x="1034" 
d="M51 0v133l758 1157v10h-686l-41 41v93h891v-134l-758 -1157v-10h758v-133h-922z" />
    <glyph glyph-name="bracketleft" unicode="[" horiz-adv-x="614" 
d="M184 -389v1986h389v-133h-256v-1720h256v-133h-389z" />
    <glyph glyph-name="backslash" unicode="\" horiz-adv-x="768" 
d="M655 -102l-655 1566v72h113l655 -1567v-71h-113z" />
    <glyph glyph-name="bracketright" unicode="]" horiz-adv-x="614" 
d="M41 -389v133h256v1720h-256v133h389v-1986h-389z" />
    <glyph glyph-name="asciicircum" unicode="^" horiz-adv-x="747" 
d="M51 922l256 512h133l256 -512h-143l-174 358h-10l-174 -358h-144z" />
    <glyph glyph-name="underscore" unicode="_" horiz-adv-x="768" 
d="M-61 -317v133h890v-133h-890z" />
    <glyph glyph-name="grave" unicode="`" horiz-adv-x="440" 
d="M266 1208l-205 277h144l174 -277h-113z" />
    <glyph glyph-name="a" unicode="a" horiz-adv-x="1013" 
d="M92 246v94q0 115 76 189.5t190 74.5h369v133q0 68 -37 106t-106 38h-410v133h420q115 0 190.5 -76t75.5 -190v-748h-92l-31 102h-10q-2 -4 -7 -13t-25.5 -29.5t-45 -37t-66.5 -29.5t-91 -13h-134q-115 0 -190.5 75.5t-75.5 190.5zM369 113h143q100 0 157.5 57t57.5 158
v143h-358q-143 0 -144 -143v-72q1 -143 144 -143z" />
    <glyph glyph-name="b" unicode="b" 
d="M297 133h399q143 0 144 143v482q0 143 -144 143h-184q-100 0 -157.5 -57.5t-57.5 -157.5v-553zM164 0v1382h133v-471h10q2 4 7 13.5t25.5 30t45.5 37t67 29.5t91 13h164q115 0 190.5 -75.5t75.5 -190.5v-502q0 -115 -76 -190.5t-190 -75.5h-543z" />
    <glyph glyph-name="c" unicode="c" horiz-adv-x="901" 
d="M123 266v482q0 115 75.5 190.5t190.5 75.5h440v-92l-41 -41h-389q-143 0 -143 -144v-461q0 -143 143 -143h430v-133h-440q-115 0 -190.5 75.5t-75.5 190.5z" />
    <glyph glyph-name="d" unicode="d" 
d="M123 246v502q0 115 75.5 190.5t190.5 75.5h410v368h133v-1382h-92l-31 102h-10q-2 -4 -7.5 -13t-26 -29.5t-45 -37t-66.5 -29.5t-91 -13h-174q-115 0 -190.5 75.5t-75.5 190.5zM399 113h185q100 0 157.5 57t57.5 158v553h-400q-143 0 -143 -144v-481q0 -143 143 -143z
" />
    <glyph glyph-name="e" unicode="e" horiz-adv-x="1054" 
d="M123 266v502q0 115 75.5 190.5t190.5 75.5h277q115 0 190.5 -75.5t75.5 -190.5v-348h-676v-144q0 -143 143 -143h492v-133h-502q-115 0 -190.5 75.5t-75.5 190.5zM256 553h543v205q0 143 -144 143h-256q-143 0 -143 -143v-205z" />
    <glyph glyph-name="f" unicode="f" horiz-adv-x="665" 
d="M164 0v1137q0 115 75.5 190.5t190.5 75.5h277v-133h-267q-143 0 -143 -144v-215h297v-71l-31 -62h-266v-778h-133z" />
    <glyph glyph-name="g" unicode="g" horiz-adv-x="1013" 
d="M61 -102v61q0 55 18.5 100t43 69t50.5 40t44 20l19 7v10q-8 4 -20.5 11t-32 36t-19.5 65.5t18.5 64.5t34.5 38l19 10v10q-4 2 -12.5 6.5t-28 22.5t-34 39.5t-26.5 61.5t-12 85v113q0 115 75.5 190.5t190.5 75.5h215l123 185h123v-72l-133 -123v-10q6 -2 18.5 -6t42 -21.5
t53 -42t42 -72t18.5 -104.5v-113q0 -115 -76 -190.5t-190 -75.5h-256q-82 0 -82 -82t82 -82h317q115 0 190.5 -75.5t75.5 -190.5v-61q0 -115 -75.5 -191t-190.5 -76h-358q-115 0 -191 76t-76 191zM348 -236h328q143 0 143 144v41q0 143 -143 143h-338q-143 0 -143 -143v-31
q0 -70 41.5 -112t111.5 -42zM399 522h215q143 0 144 144v92q0 143 -144 143h-215q-143 0 -143 -143v-92q0 -144 143 -144z" />
    <glyph glyph-name="h" unicode="h" 
d="M164 0v1382h133v-471h10q2 4 7 13.5t25.5 30t45.5 37t67 29.5t91 13h133q115 0 190.5 -75.5t75.5 -190.5v-768h-133v758q0 143 -143 143h-154q-100 0 -157.5 -57.5t-57.5 -157.5v-686h-133z" />
    <glyph glyph-name="i" unicode="i" horiz-adv-x="440" 
d="M154 0v1014h133v-1014h-133zM154 1196v207h133v-207h-133z" />
    <glyph glyph-name="j" unicode="j" horiz-adv-x="450" 
d="M-82 -348v133h102q143 0 144 143v1086h133v-1096q0 -115 -76 -190.5t-190 -75.5h-113zM164 1198v205h133v-205h-133z" />
    <glyph glyph-name="k" unicode="k" horiz-adv-x="1003" 
d="M164 0v1382h133v-798h266l256 430h103v-72l-246 -410l266 -460v-72h-113l-256 451h-276v-451h-133z" />
    <glyph glyph-name="l" unicode="l" horiz-adv-x="460" 
d="M164 0v1382h133v-1382h-133z" />
    <glyph glyph-name="m" unicode="m" horiz-adv-x="1689" 
d="M154 0v1014h92l30 -103h11q2 4 7 13.5t25.5 30t45 37t66.5 29.5t91 13h113q49 0 90 -12t64.5 -30.5t41 -37t23.5 -30.5l6 -13h10q2 4 7.5 13.5t25 30t42 37t60 29.5t80.5 13h185q115 0 190.5 -75.5t75.5 -190.5v-768h-133v758q0 143 -143 143h-195q-154 0 -154 -143v-758
h-133v758q0 143 -143 143h-133q-100 0 -157.5 -57.5t-57.5 -157.5v-686h-133z" />
    <glyph glyph-name="n" unicode="n" 
d="M154 0v1014h92l30 -103h11q2 4 7 13.5t25.5 30t45 37t66.5 29.5t91 13h154q115 0 190.5 -75.5t75.5 -190.5v-768h-133v758q0 143 -143 143h-164q-100 0 -157.5 -57.5t-57.5 -157.5v-686h-133z" />
    <glyph glyph-name="o" unicode="o" horiz-adv-x="1075" 
d="M123 246v522q0 115 75.5 190.5t190.5 75.5h297q115 0 190.5 -75.5t75.5 -190.5v-522q0 -115 -75.5 -190.5t-190.5 -75.5h-297q-115 0 -190.5 75.5t-75.5 190.5zM399 113h277q143 0 143 143v502q0 143 -143 143h-277q-143 0 -143 -143v-502q0 -143 143 -143z" />
    <glyph glyph-name="p" unicode="p" horiz-adv-x="1085" 
d="M154 -348v1362h92l30 -103h11q2 4 7 13.5t25.5 30t45 37t66.5 29.5t91 13h174q115 0 191 -75.5t76 -190.5v-502q0 -115 -76 -190.5t-191 -75.5h-409v-348h-133zM287 133h399q143 0 143 143v482q0 143 -143 143h-184q-100 0 -157.5 -57.5t-57.5 -157.5v-553z" />
    <glyph glyph-name="q" unicode="q" horiz-adv-x="1085" 
d="M399 133h185q100 0 157.5 57.5t57.5 157.5v533h-400q-143 0 -143 -144v-461q0 -143 143 -143zM123 266v482q0 115 75.5 190.5t190.5 75.5h543v-1362h-133v471h-11q-2 -4 -7 -13.5t-25.5 -30t-45 -36.5t-66.5 -29.5t-91 -13.5h-164q-115 0 -190.5 75.5t-75.5 190.5z" />
    <glyph glyph-name="r" unicode="r" horiz-adv-x="716" 
d="M154 0v1014h92l30 -103h11q2 4 7 13.5t25.5 30t45 37t66.5 29.5t91 13h164v-133h-184q-92 0 -153.5 -61.5t-61.5 -153.5v-686h-133z" />
    <glyph glyph-name="s" unicode="s" horiz-adv-x="901" 
d="M82 0v133h461q143 0 143 143q0 61 -32.5 94t-110.5 50l-236 51q-106 23 -165.5 88.5t-59.5 157.5v31q0 123 71.5 194.5t194.5 71.5h440v-92l-40 -41h-390q-143 0 -143 -144q0 -63 28.5 -95t104.5 -48l236 -51q109 -23 172 -88.5t63 -157.5v-31q0 -123 -71.5 -194.5
t-194.5 -71.5h-471z" />
    <glyph glyph-name="t" unicode="t" horiz-adv-x="716" 
d="M205 266v615h-164v133h164l61 317h72v-317h297v-92l-41 -41h-256v-605q0 -143 143 -143h174v-133h-184q-115 0 -190.5 75.5t-75.5 190.5z" />
    <glyph glyph-name="u" unicode="u" 
d="M154 246v768h133v-758q0 -143 143 -143h164q100 0 157.5 57t57.5 158v686h133v-1014h-92l-31 102h-10q-2 -4 -7 -13t-25.5 -29.5t-45 -37t-66.5 -29.5t-92 -13h-153q-115 0 -190.5 75.5t-75.5 190.5z" />
    <glyph glyph-name="v" unicode="v" horiz-adv-x="952" 
d="M399 0l-358 942v72h123l313 -840h8l303 840h123v-72l-358 -942h-154z" />
    <glyph glyph-name="w" unicode="w" horiz-adv-x="1402" 
d="M317 0l-256 942v72h123l205 -799h10l226 799h153l226 -799h10l205 799h122v-72l-256 -942h-153l-225 829h-11l-225 -829h-154z" />
    <glyph glyph-name="x" unicode="x" horiz-adv-x="890" 
d="M41 0v72l307 440l-276 430v72h118l250 -410h11l249 410h119v-72l-276 -420l307 -450v-72h-115l-284 430h-11l-284 -430h-115z" />
    <glyph glyph-name="y" unicode="y" horiz-adv-x="931" 
d="M143 -348v133h93q72 0 110.5 38t73.5 146l10 31v20l-389 920v74h123l328 -819h10l266 819h123v-72l-338 -973q-61 -176 -132 -246.5t-185 -70.5h-93z" />
    <glyph glyph-name="z" unicode="z" horiz-adv-x="870" 
d="M51 0v133l584 737v11h-533l-41 41v92h748v-133l-584 -738v-10h584v-133h-758z" />
    <glyph glyph-name="braceleft" unicode="{" horiz-adv-x="645" 
d="M225 -133v512q0 76 -43 120t-121 44h-20v123h20q78 0 121 44t43 119v512q0 115 71 185.5t185 70.5h123v-133h-112q-133 0 -134 -133v-491q0 -55 -15 -98.5t-37.5 -68t-46 -40t-38.5 -19.5l-16 -6v-8q6 -2 16 -5t37 -20.5t47.5 -40t36.5 -66.5t16 -99v-492
q0 -133 134 -133h112v-133h-123q-115 0 -185.5 70.5t-70.5 185.5z" />
    <glyph glyph-name="bar" unicode="|" horiz-adv-x="624" 
d="M246 -348v1986h133v-1986h-133z" />
    <glyph glyph-name="braceright" unicode="}" horiz-adv-x="645" 
d="M41 -389v133h113q133 0 133 133v492q0 55 15 98t39 67.5t46.5 40t38.5 19.5l14 6v8q-6 2 -16 5t-37 20.5t-47.5 40t-36.5 66.5t-16 100v491q0 133 -133 133h-113v133h123q115 0 185.5 -70.5t70.5 -185.5v-512q0 -76 44 -119.5t120 -43.5h20v-123h-20q-76 0 -120 -44
t-44 -120v-512q0 -115 -70.5 -185.5t-185.5 -70.5h-123z" />
    <glyph glyph-name="asciitilde" unicode="~" horiz-adv-x="1003" 
d="M92 492v204q0 78 54.5 131.5t129.5 53.5h31q51 0 112.5 -45t107.5 -98.5t99.5 -98.5t90.5 -45q31 0 51 22.5t20 59.5v184h123v-205q0 -78 -54 -131t-130 -53h-31q-51 0 -112.5 45t-107.5 98.5t-99 98.5t-90 45q-31 0 -51.5 -22.5t-20.5 -59.5v-184h-123z" />
    <glyph glyph-name="uni00A0" unicode="&#xa0;" horiz-adv-x="491" 
 />
    <glyph glyph-name="exclamdown" unicode="&#xa1;" horiz-adv-x="501" 
d="M184 -348v399l31 543h72l30 -543v-399h-133zM184 819v195h133v-195h-133z" />
    <glyph glyph-name="cent" unicode="&#xa2;" horiz-adv-x="901" 
d="M451 -215v215h-62q-115 0 -190.5 76t-75.5 190v482q0 115 75.5 190.5t190.5 75.5h62v215h133v-215h245v-92l-41 -41h-389q-143 0 -143 -144v-461q0 -143 143 -143h430v-133h-245v-215h-133z" />
    <glyph glyph-name="sterling" unicode="&#xa3;" horiz-adv-x="952" 
d="M92 0v133q8 2 21.5 7t46.5 24.5t58.5 45.5t47 74t21.5 105v297h-195v133h195v307q0 139 84 223.5t223 84.5h235v-93l-41 -41h-184q-84 0 -134 -49t-50 -133v-299h307v-133h-307v-297q0 -90 -31 -151.5t-61 -77.5l-31 -17v-10h625v-133h-830z" />
    <glyph glyph-name="currency" unicode="&#xa4;" horiz-adv-x="1269" 
d="M205 0v276h-144v134h144v194h-144v133h144v697h635q139 0 223 -84t84 -224v-215q0 -137 -84 -222t-223 -85h-502v-194h614v-134h-614v-276h-133zM338 737h491q184 0 185 185v194q0 184 -185 184h-491v-563z" />
    <glyph glyph-name="yen" unicode="&#xa5;" 
d="M184 195v133h297v174l-20 41h-277v133h209l-342 686v72h113l379 -779h10l379 779h112v-72l-344 -686h211v-133h-276l-21 -41v-174h297v-133h-297v-195h-133v195h-297z" />
    <glyph glyph-name="brokenbar" unicode="&#xa6;" horiz-adv-x="624" 
d="M246 850v788h133v-788h-133zM246 -348v788h133v-788h-133z" />
    <glyph glyph-name="section" unicode="&#xa7;" horiz-adv-x="1044" 
d="M154 -348v133h460q143 0 144 143v92q0 53 -38 91.5t-106 52.5l-225 49q-236 51 -235 248v133q0 51 14 93t35.5 65.5t43 40t36.5 22.5l14 4v10q-6 2 -15.5 6.5t-34 23t-44 41t-34.5 63.5t-15 90v114q0 119 73.5 193t192.5 74h430v-93l-41 -41h-379q-143 0 -143 -143v-92
q0 -53 37.5 -91t105.5 -52l225 -50q236 -51 236 -247v-133q0 -51 -14.5 -93.5t-36 -66t-43 -40t-35.5 -22.5l-14 -4v-10q6 -2 15 -6t33.5 -22.5t44 -41t35 -63.5t15.5 -90v-115q0 -119 -74 -192.5t-192 -73.5h-471zM430 338l195 -41q6 2 14 5t31.5 16.5t41 32t32 53
t14.5 77.5v133q0 53 -34 85t-110 49l-194 40q-6 -2 -14.5 -5t-32 -16t-41 -31.5t-31.5 -53.5t-14 -78v-133q0 -53 33.5 -85t109.5 -48z" />
    <glyph glyph-name="dieresis" unicode="&#xa8;" horiz-adv-x="624" 
d="M61 1249v205h123v-205h-123zM430 1249v205h133v-205h-133z" />
    <glyph glyph-name="copyright" unicode="&#xa9;" horiz-adv-x="1740" 
d="M154 246v942q0 139 85 223t222 84h819q137 0 222 -84t85 -223v-942q0 -139 -85 -223t-222 -84h-819q-137 0 -222 84t-85 223zM573 584v266q0 109 63.5 172t172.5 63h338v-92l-41 -41h-287q-113 0 -112 -112v-246q0 -113 112 -113h328v-133h-338q-109 0 -172.5 63.5
t-63.5 172.5zM471 72h799q184 0 184 184v922q0 184 -184 184h-799q-184 0 -184 -184v-922q0 -184 184 -184z" />
    <glyph glyph-name="ordfeminine" unicode="&#xaa;" horiz-adv-x="706" 
d="M287 850h61q68 0 106 34t38 89v71h-205q-47 0 -75 -26.5t-28 -75.5q0 -39 29 -65.5t74 -26.5zM72 932v20q0 92 56 148.5t148 56.5h216v62q0 47 -29 74.5t-74 27.5h-246v113h256q92 0 148.5 -56.5t56.5 -148.5v-492h-92l-20 72h-11q-4 -8 -12 -20.5t-47 -32t-94 -19.5h-52
q-92 0 -148 54.5t-56 140.5z" />
    <glyph glyph-name="guillemotleft" unicode="&#xab;" horiz-adv-x="921" 
d="M328 184l-226 369l226 369h112v-72l-194 -297l194 -297v-72h-112zM686 184l-225 369l225 369h113v-72l-195 -297l195 -297v-72h-113z" />
    <glyph glyph-name="logicalnot" unicode="&#xac;" horiz-adv-x="1003" 
d="M92 737v133h809v-399h-123v266h-686z" />
    <glyph glyph-name="uni00AD" unicode="&#xad;" horiz-adv-x="757" 
d="M82 594v123h594v-123h-594z" />
    <glyph glyph-name="registered" unicode="&#xae;" horiz-adv-x="1740" 
d="M604 348v737h359q100 0 162.5 -62t62.5 -163v-20q0 -45 -14.5 -83t-36 -59.5t-43 -37t-35.5 -21.5l-15 -4l144 -215v-72h-113l-174 277h-164v-277h-133zM737 737h205q53 0 83 30t30 83q0 113 -113 113h-205v-226zM154 246v942q0 139 85 223t222 84h819q137 0 222 -84
t85 -223v-942q0 -139 -85 -223t-222 -84h-819q-137 0 -222 84t-85 223zM471 72h799q184 0 184 184v922q0 184 -184 184h-799q-184 0 -184 -184v-922q0 -184 184 -184z" />
    <glyph glyph-name="macron" unicode="&#xaf;" horiz-adv-x="686" 
d="M61 1270v123h564v-123h-564z" />
    <glyph glyph-name="degree" unicode="&#xb0;" horiz-adv-x="768" 
d="M82 993v226q0 109 63.5 172t171.5 63h134q106 0 170.5 -63.5t64.5 -171.5v-226q0 -109 -64.5 -172t-170.5 -63h-134q-109 0 -172 63t-63 172zM328 881h112q123 0 123 123v204q0 123 -123 123h-112q-123 0 -123 -123v-204q0 -123 123 -123z" />
    <glyph glyph-name="plusminus" unicode="&#xb1;" horiz-adv-x="983" 
d="M113 174v123h317v328h-338v123h338v348h123v-348h338v-123h-338v-328h328v-123h-768z" />
    <glyph glyph-name="uni00B2" unicode="&#xb2;" horiz-adv-x="655" 
d="M61 922v112l318 236q82 61 82 143v21q0 92 -92 92h-256l-41 41v71h307q84 0 139 -55t55 -139v-21q0 -84 -30.5 -131t-91.5 -94l-205 -154v-10h327v-112h-512z" />
    <glyph glyph-name="uni00B3" unicode="&#xb3;" horiz-adv-x="624" 
d="M41 922v112h317q92 0 93 92v11q0 92 -103 92h-153v102l184 185v10h-297l-41 41v71h502v-100l-185 -186v-11q92 0 148.5 -54t56.5 -140v-31q0 -84 -55 -139t-139 -55h-328z" />
    <glyph glyph-name="acute" unicode="&#xb4;" horiz-adv-x="440" 
d="M61 1208l175 277h143l-205 -277h-113z" />
    <glyph glyph-name="mu" unicode="&#xb5;" 
d="M154 -348v1362h133v-758q0 -143 143 -143h164q100 0 157.5 57t57.5 158v686h133v-1014h-92l-31 102h-10q-2 -4 -7 -13t-25.5 -29.5t-45 -37t-66.5 -29.5t-92 -13h-102q-55 0 -98 15t-60 30l-16 16h-10v-389h-133z" />
    <glyph glyph-name="paragraph" unicode="&#xb6;" horiz-adv-x="1064" 
d="M389 -348v1106h-51q-117 0 -191.5 74.5t-74.5 191.5v143q0 115 75.5 191t190.5 76h706v-134h-215v-1648h-133v1648h-174v-1648h-133z" />
    <glyph glyph-name="periodcentered" unicode="&#xb7;" horiz-adv-x="491" 
d="M184 604v195h133v-195h-133z" />
    <glyph glyph-name="cedilla" unicode="&#xb8;" horiz-adv-x="460" 
d="M61 -471v113h154q39 0 55.5 16t16.5 55t-16.5 55.5t-55.5 16.5h-92l-31 31v184h113v-102h20q174 0 174 -174v-21q0 -174 -174 -174h-164z" />
    <glyph glyph-name="uni00B9" unicode="&#xb9;" horiz-adv-x="542" 
d="M92 922v112h144v430h-134v103h134v82h112v-615h144v-112h-400z" />
    <glyph glyph-name="ordmasculine" unicode="&#xba;" horiz-adv-x="727" 
d="M92 963v245q0 100 62.5 163t162.5 63h93q100 0 162.5 -62.5t62.5 -163.5v-245q0 -100 -62.5 -163t-162.5 -63h-93q-100 0 -162.5 63t-62.5 163zM328 850h71q123 0 123 123v225q0 123 -123 123h-71q-123 0 -123 -123v-225q0 -123 123 -123z" />
    <glyph glyph-name="guillemotright" unicode="&#xbb;" horiz-adv-x="921" 
d="M481 184v72l195 297l-195 297v72h113l225 -369l-225 -369h-113zM123 184v72l194 297l-194 297v72h113l225 -369l-225 -369h-113z" />
    <glyph glyph-name="onequarter" unicode="&#xbc;" horiz-adv-x="1536" 
d="M297 0v70l829 1364h93v-70l-830 -1364h-92zM102 717v112h144v431h-133v102h133v82h112v-615h144v-112h-400zM860 174v113l277 430h92v-51l-236 -369v-10h236v225h112v-225h113v-113h-113v-174h-112v174h-369z" />
    <glyph glyph-name="onehalf" unicode="&#xbd;" horiz-adv-x="1587" 
d="M297 0v70l829 1364h93v-70l-830 -1364h-92zM102 717v112h144v431h-133v102h133v82h112v-615h144v-112h-400zM973 0v113l317 235q82 61 82 144v20q0 92 -92 92h-256l-41 41v72h307q84 0 139.5 -55.5t55.5 -139.5v-20q0 -84 -31 -131t-92 -95l-205 -153v-10h328v-113h-512z
" />
    <glyph glyph-name="threequarters" unicode="&#xbe;" horiz-adv-x="1617" 
d="M375 0v70l829 1364h92v-70l-829 -1364h-92zM942 174v113l277 430h92v-51l-236 -369v-10h236v225h112v-225h113v-113h-113v-174h-112v174h-369zM82 717v112h317q92 0 93 93v10q0 92 -103 92h-153v102l184 185v10h-297l-41 41v72h502v-101l-185 -186v-10q92 0 148.5 -54.5
t56.5 -140.5v-31q0 -84 -55 -139t-139 -55h-328z" />
    <glyph glyph-name="questiondown" unicode="&#xbf;" horiz-adv-x="901" 
d="M461 819v195h133v-195h-133zM102 -41v113q0 90 37 149.5t90.5 88t106.5 54t90 68.5t37 111v61h131v-61q0 -94 -37 -154.5t-89 -90.5t-105.5 -54.5t-90 -66.5t-36.5 -105v-103q0 -184 184 -184h409l41 -41v-92h-460q-139 0 -223.5 84t-84.5 223z" />
    <glyph glyph-name="Agrave" unicode="&#xc0;" horiz-adv-x="1187" 
d="M41 0v72l471 1362h164l471 -1362v-72h-123l-123 369h-614l-123 -369h-123zM328 502h532l-266 778zM532 1577l-194 276h143l174 -276h-123z" />
    <glyph glyph-name="Aacute" unicode="&#xc1;" horiz-adv-x="1187" 
d="M41 0v72l471 1362h164l471 -1362v-72h-123l-123 369h-614l-123 -369h-123zM328 502h532l-266 778zM532 1577l175 276h143l-195 -276h-123z" />
    <glyph glyph-name="Acircumflex" unicode="&#xc2;" horiz-adv-x="1187" 
d="M41 0v72l471 1362h164l471 -1362v-72h-123l-123 369h-614l-123 -369h-123zM328 502h532l-266 778zM328 1577l204 276h134l204 -276h-122l-144 184h-10l-143 -184h-123z" />
    <glyph glyph-name="Atilde" unicode="&#xc3;" horiz-adv-x="1187" 
d="M41 0v72l471 1362h164l471 -1362v-72h-123l-123 369h-614l-123 -369h-123zM328 502h532l-266 778zM317 1577v143q0 61 36 97t98 36q55 0 101 -27.5t71.5 -59t53.5 -59.5t50 -28q31 0 31 41v123h123v-143q0 -61 -36 -97t-97 -36q-55 0 -101.5 27.5t-72 59.5t-53 59.5
t-50.5 27.5q-31 0 -31 -41v-123h-123z" />
    <glyph glyph-name="Adieresis" unicode="&#xc4;" horiz-adv-x="1187" 
d="M41 0v72l471 1362h164l471 -1362v-72h-123l-123 369h-614l-123 -369h-123zM328 502h532l-266 778zM348 1608v204h123v-204h-123zM717 1608v204h133v-204h-133z" />
    <glyph glyph-name="Aring" unicode="&#xc5;" horiz-adv-x="1187" 
d="M41 0v72l471 1362h164l471 -1362v-72h-123l-123 369h-614l-123 -369h-123zM328 502h532l-266 778zM594 1638h10q39 0 55.5 16.5t16.5 55.5v10q0 39 -16.5 55.5t-55.5 16.5h-10q-39 0 -55.5 -16.5t-16.5 -55.5v-10q0 -39 16.5 -55.5t55.5 -16.5zM410 1700v31q0 76 49 125
t125 49h30q78 0 126 -49.5t48 -124.5v-31q0 -78 -48 -126t-126 -48h-30q-76 0 -125 48t-49 126z" />
    <glyph glyph-name="AE" unicode="&#xc6;" horiz-adv-x="1751" 
d="M41 0v72l471 1362h1167v-93l-41 -41h-675v-501h522v-133h-522v-533h714v-133h-848v369h-540l-125 -369h-123zM328 502h501v798h-235z" />
    <glyph glyph-name="Ccedilla" unicode="&#xc7;" horiz-adv-x="1136" 
d="M532 -471v113h154q39 0 55.5 16t16.5 55t-16.5 55.5t-55.5 16.5h-92l-31 31v184h-92q-139 0 -223 84t-84 223v819q0 139 84 223.5t223 84.5h594v-93l-41 -41h-543q-184 0 -184 -184v-799q0 -184 184 -184h584v-133h-389v-102h20q174 0 174 -174v-21q0 -174 -174 -174
h-164z" />
    <glyph glyph-name="Egrave" unicode="&#xc8;" horiz-adv-x="1116" 
d="M195 0v1434h849v-93l-40 -41h-676v-501h522v-133h-522v-533h716v-133h-849zM584 1577l-195 276h143l175 -276h-123z" />
    <glyph glyph-name="Eacute" unicode="&#xc9;" horiz-adv-x="1116" 
d="M195 0v1434h849v-93l-40 -41h-676v-501h522v-133h-522v-533h716v-133h-849zM553 1577l174 276h143l-194 -276h-123z" />
    <glyph glyph-name="Ecircumflex" unicode="&#xca;" horiz-adv-x="1116" 
d="M195 0v1434h849v-93l-40 -41h-676v-501h522v-133h-522v-533h716v-133h-849zM358 1577l205 276h133l205 -276h-123l-143 184h-10l-144 -184h-123z" />
    <glyph glyph-name="Edieresis" unicode="&#xcb;" horiz-adv-x="1116" 
d="M195 0v1434h849v-93l-40 -41h-676v-501h522v-133h-522v-533h716v-133h-849zM379 1608v204h123v-204h-123zM748 1608v204h133v-204h-133z" />
    <glyph glyph-name="Igrave" unicode="&#xcc;" horiz-adv-x="522" 
d="M195 0v1434h133v-1434h-133zM205 1577l-195 276h144l174 -276h-123z" />
    <glyph glyph-name="Iacute" unicode="&#xcd;" horiz-adv-x="522" 
d="M195 0v1434h133v-1434h-133zM205 1577l174 276h143l-194 -276h-123z" />
    <glyph glyph-name="Icircumflex" unicode="&#xce;" horiz-adv-x="522" 
d="M195 0v1434h133v-1434h-133zM-10 1577l205 276h133l204 -276h-122l-144 184h-10l-143 -184h-123z" />
    <glyph glyph-name="Idieresis" unicode="&#xcf;" horiz-adv-x="522" 
d="M195 0v1434h133v-1434h-133zM10 1608v204h123v-204h-123zM379 1608v204h133v-204h-133z" />
    <glyph glyph-name="Eth" unicode="&#xd0;" horiz-adv-x="1341" 
d="M205 0v666h-154v133h154v635h665q137 0 222.5 -84t85.5 -224v-819q0 -139 -85 -223t-223 -84h-665zM338 133h522q184 0 184 184v799q0 184 -184 184h-522v-501h326v-133h-326v-533z" />
    <glyph glyph-name="Ntilde" unicode="&#xd1;" horiz-adv-x="1392" 
d="M195 0v1434h153l707 -1188h10v1188h133v-1434h-154l-706 1188h-10v-1188h-133zM440 1577v143q0 61 36 97t97 36q55 0 101.5 -27.5t72 -59t53 -59.5t50.5 -28q31 0 31 41v123h123v-143q0 -61 -36 -97t-98 -36q-55 0 -101 27.5t-71.5 59.5t-53.5 59.5t-50 27.5
q-31 0 -31 -41v-123h-123z" />
    <glyph glyph-name="Ograve" unicode="&#xd2;" horiz-adv-x="1320" 
d="M164 287v860q0 139 84 223t223 84h379q137 0 222 -84t85 -223v-860q0 -139 -85 -223t-222 -84h-379q-139 0 -223 84t-84 223zM481 113h359q184 0 184 184v840q0 184 -184 184h-359q-184 0 -184 -184v-840q0 -184 184 -184zM614 1577l-194 276h143l174 -276h-123z" />
    <glyph glyph-name="Oacute" unicode="&#xd3;" horiz-adv-x="1320" 
d="M164 287v860q0 139 84 223t223 84h379q137 0 222 -84t85 -223v-860q0 -139 -85 -223t-222 -84h-379q-139 0 -223 84t-84 223zM481 113h359q184 0 184 184v840q0 184 -184 184h-359q-184 0 -184 -184v-840q0 -184 184 -184zM614 1577l174 276h144l-195 -276h-123z" />
    <glyph glyph-name="Ocircumflex" unicode="&#xd4;" horiz-adv-x="1320" 
d="M164 287v860q0 139 84 223t223 84h379q137 0 222 -84t85 -223v-860q0 -139 -85 -223t-222 -84h-379q-139 0 -223 84t-84 223zM481 113h359q184 0 184 184v840q0 184 -184 184h-359q-184 0 -184 -184v-840q0 -184 184 -184zM389 1577l205 276h133l205 -276h-123l-143 184
h-11l-143 -184h-123z" />
    <glyph glyph-name="Otilde" unicode="&#xd5;" horiz-adv-x="1320" 
d="M164 287v860q0 139 84 223t223 84h379q137 0 222 -84t85 -223v-860q0 -139 -85 -223t-222 -84h-379q-139 0 -223 84t-84 223zM481 113h359q184 0 184 184v840q0 184 -184 184h-359q-184 0 -184 -184v-840q0 -184 184 -184zM379 1577v143q0 61 36 97t97 36q55 0 101 -27.5
t72 -59t53.5 -59.5t49.5 -28q31 0 31 41v123h123v-143q0 -61 -36 -97t-97 -36q-55 0 -101 27.5t-72 59.5t-53.5 59.5t-50.5 27.5q-31 0 -30 -41v-123h-123z" />
    <glyph glyph-name="Odieresis" unicode="&#xd6;" horiz-adv-x="1320" 
d="M164 287v860q0 139 84 223t223 84h379q137 0 222 -84t85 -223v-860q0 -139 -85 -223t-222 -84h-379q-139 0 -223 84t-84 223zM481 113h359q184 0 184 184v840q0 184 -184 184h-359q-184 0 -184 -184v-840q0 -184 184 -184zM410 1608v204h122v-204h-122zM778 1608v204h133
v-204h-133z" />
    <glyph glyph-name="multiply" unicode="&#xd7;" horiz-adv-x="1003" 
d="M133 389l277 277l-277 276l92 92l277 -276l276 276l92 -92l-276 -276l276 -277l-92 -92l-276 276l-277 -276z" />
    <glyph glyph-name="Oslash" unicode="&#xd8;" horiz-adv-x="1320" 
d="M164 287v860q0 139 84 223t223 84h379q137 0 222 -84t85 -223v-860q0 -139 -85 -223t-222 -84h-379q-139 0 -223 84t-84 223zM307 225l635 1075q-41 20 -102 21h-359q-184 0 -184 -184v-840zM481 113h359q184 0 184 184v840l-10 71l-635 -1075q41 -20 102 -20z" />
    <glyph glyph-name="Ugrave" unicode="&#xd9;" horiz-adv-x="1320" 
d="M174 287v1147h133v-1137q0 -184 185 -184h337q184 0 185 184v1137h133v-1147q0 -139 -84 -223t-223 -84h-359q-137 0 -222 84t-85 223zM614 1577l-194 276h143l174 -276h-123z" />
    <glyph glyph-name="Uacute" unicode="&#xda;" horiz-adv-x="1320" 
d="M174 287v1147h133v-1137q0 -184 185 -184h337q184 0 185 184v1137h133v-1147q0 -139 -84 -223t-223 -84h-359q-137 0 -222 84t-85 223zM604 1577l174 276h144l-195 -276h-123z" />
    <glyph glyph-name="Ucircumflex" unicode="&#xdb;" horiz-adv-x="1320" 
d="M174 287v1147h133v-1137q0 -184 185 -184h337q184 0 185 184v1137h133v-1147q0 -139 -84 -223t-223 -84h-359q-137 0 -222 84t-85 223zM399 1577l205 276h133l205 -276h-123l-143 184h-10l-144 -184h-123z" />
    <glyph glyph-name="Udieresis" unicode="&#xdc;" horiz-adv-x="1320" 
d="M174 287v1147h133v-1137q0 -184 185 -184h337q184 0 185 184v1137h133v-1147q0 -139 -84 -223t-223 -84h-359q-137 0 -222 84t-85 223zM410 1608v204h122v-204h-122zM778 1608v204h133v-204h-133z" />
    <glyph glyph-name="Yacute" unicode="&#xdd;" horiz-adv-x="1075" 
d="M471 0v502l-430 860v72h113l378 -779h11l379 779h112v-72l-430 -860v-502h-133zM492 1577l174 276h143l-195 -276h-122z" />
    <glyph glyph-name="Thorn" unicode="&#xde;" horiz-adv-x="1351" 
d="M195 0v1434h133v-308h583q137 0 222.5 -84t85.5 -223v-205q0 -139 -85 -223t-223 -84h-583v-307h-133zM328 440h573q184 0 184 185v184q0 184 -184 184h-573v-553z" />
    <glyph glyph-name="germandbls" unicode="&#xdf;" horiz-adv-x="1146" 
d="M164 0v1137q0 115 75.5 190.5t190.5 75.5h174q109 0 187.5 -79t78.5 -187q0 -80 -27.5 -142.5t-59 -93.5t-59.5 -68.5t-28 -74.5q0 -53 39 -95t94.5 -73t111.5 -66t95 -93t39 -134v-31q0 -115 -75.5 -190.5t-190.5 -75.5h-297v133h287q143 0 143 148q0 57 -39 101
t-94 74.5t-111.5 64.5t-95.5 88.5t-39 127.5v31q0 55 27.5 102.5t59.5 78t59.5 80.5t27.5 108q0 55 -41 94t-102 39h-154q-143 0 -143 -144v-1126h-133z" />
    <glyph glyph-name="agrave" unicode="&#xe0;" horiz-adv-x="1013" 
d="M471 1208l-205 277h144l174 -277h-113zM92 246v94q0 115 76 189q76 75 190 75h369v133q0 68 -37 106t-106 38h-410v133h420q115 0 190 -76q76 -76 76 -190v-748h-92l-31 102h-10q-2 -4 -7 -13t-26 -30q-20 -20 -45 -36t-66 -30q-42 -13 -91 -13h-134q-115 0 -190 75
q-76 76 -76 191zM369 113h143q100 0 158 57q57 57 57 158v143h-358q-143 0 -144 -143v-72q1 -143 144 -143z" />
    <glyph glyph-name="aacute" unicode="&#xe1;" horiz-adv-x="1013" 
d="M92 246v94q0 115 76 189.5t190 74.5h369v133q0 68 -37 106t-106 38h-410v133h420q115 0 190.5 -76t75.5 -190v-748h-92l-31 102h-10q-2 -4 -7 -13t-25.5 -29.5t-45 -37t-66.5 -29.5t-91 -13h-134q-115 0 -190.5 75.5t-75.5 190.5zM369 113h143q100 0 157.5 57t57.5 158
v143h-358q-143 0 -144 -143v-72q1 -143 144 -143zM451 1208l174 277h143l-205 -277h-112z" />
    <glyph glyph-name="acircumflex" unicode="&#xe2;" horiz-adv-x="1013" 
d="M236 1208l204 277h133l205 -277h-123l-143 185h-10l-144 -185h-122zM92 246v94q0 115 76 189q76 75 190 75h369v133q0 68 -37 106t-106 38h-410v133h420q115 0 190 -76q76 -76 76 -190v-748h-92l-31 102h-10q-2 -4 -7 -13t-26 -30q-20 -20 -45 -36t-66 -30
q-42 -13 -91 -13h-134q-115 0 -190 75q-76 76 -76 191zM369 113h143q100 0 158 57q57 57 57 158v143h-358q-143 0 -144 -143v-72q1 -143 144 -143z" />
    <glyph glyph-name="atilde" unicode="&#xe3;" horiz-adv-x="1013" 
d="M92 246v94q0 115 76 189.5t190 74.5h369v133q0 68 -37 106t-106 38h-410v133h420q115 0 190.5 -76t75.5 -190v-748h-92l-31 102h-10q-2 -4 -7 -13t-25.5 -29.5t-45 -37t-66.5 -29.5t-91 -13h-134q-115 0 -190.5 75.5t-75.5 190.5zM369 113h143q100 0 157.5 57t57.5 158
v143h-358q-143 0 -144 -143v-72q1 -143 144 -143zM236 1208v144q0 61 35.5 97t97.5 36q55 0 101 -27.5t71.5 -59.5t53.5 -59.5t50 -27.5q31 0 31 41v123h123v-144q0 -61 -36 -97t-97 -36q-55 0 -101.5 27.5t-72 59.5t-53 59.5t-50.5 27.5q-31 0 -31 -41v-123h-122z" />
    <glyph glyph-name="adieresis" unicode="&#xe4;" horiz-adv-x="1013" 
d="M266 1249v205h123v-205h-123zM635 1249v205h133v-205h-133zM92 246v94q0 115 76 189q76 75 190 75h369v133q0 68 -37 106t-106 38h-410v133h420q115 0 190 -76q76 -76 76 -190v-748h-92l-31 102h-10q-2 -4 -7 -13t-26 -30q-20 -20 -45 -36t-66 -30q-42 -13 -91 -13h-134
q-115 0 -190 75q-76 76 -76 191zM369 113h143q100 0 158 57q57 57 57 158v143h-358q-143 0 -144 -143v-72q1 -143 144 -143z" />
    <glyph glyph-name="aring" unicode="&#xe5;" horiz-adv-x="1013" 
d="M92 246v94q0 115 76 189.5t190 74.5h369v133q0 68 -37 106t-106 38h-410v133h420q115 0 190.5 -76t75.5 -190v-748h-92l-31 102h-10q-2 -4 -7 -13t-25.5 -29.5t-45 -37t-66.5 -29.5t-91 -13h-134q-115 0 -190.5 75.5t-75.5 190.5zM369 113h143q100 0 157.5 57t57.5 158
v143h-358q-143 0 -144 -143v-72q1 -143 144 -143zM512 1270h10q39 0 55.5 16.5t16.5 54.5v11q0 39 -16.5 55t-55.5 16h-10q-39 0 -55.5 -16t-16.5 -55v-11q0 -39 16.5 -55t55.5 -16zM328 1331v31q0 76 49 125t125 49h30q78 0 126.5 -49t48.5 -125v-31q0 -78 -48.5 -126
t-126.5 -48h-30q-76 0 -125 48t-49 126z" />
    <glyph glyph-name="ae" unicode="&#xe6;" horiz-adv-x="1658" 
d="M92 246v84q0 115 76 189.5t190 74.5h369v143q0 68 -37 106t-106 38h-410v133h399q45 0 85 -11.5t62.5 -28t39 -33.5t22.5 -28l6 -12h11q2 6 7 14.5t24.5 32t43 41t64.5 31.5t86 14h246q115 0 190.5 -75.5t75.5 -190.5v-307h-676v-185q0 -143 144 -143h491v-133h-522
q-43 0 -79 13.5t-56.5 33t-35 39.5t-20.5 33l-4 14h-10q-2 -6 -7 -16.5t-25.5 -37t-46 -47t-71 -36.5t-96.5 -16h-164q-115 0 -190.5 75.5t-75.5 190.5zM860 594h543v164q0 143 -143 143h-256q-143 0 -144 -143v-164zM369 113h184q84 0 129 43t45 123v182h-358
q-143 0 -144 -144v-61q1 -143 144 -143z" />
    <glyph glyph-name="ccedilla" unicode="&#xe7;" horiz-adv-x="901" 
d="M389 -471v113h154q39 0 55 16t16 55t-16 55.5t-55 16.5h-92l-31 31v184h-31q-115 0 -190.5 76t-75.5 190v482q0 115 75.5 190.5t190.5 75.5h440v-92l-41 -41h-389q-143 0 -143 -144v-461q0 -143 143 -143h430v-133h-297v-102h21q174 0 174 -174v-21q0 -174 -174 -174
h-164z" />
    <glyph glyph-name="egrave" unicode="&#xe8;" horiz-adv-x="1054" 
d="M481 1208l-205 277h144l174 -277h-113zM123 266v502q0 115 76 190q76 76 190 76h277q115 0 190 -76q76 -76 76 -190v-348h-676v-144q0 -143 143 -143h492v-133h-502q-115 0 -190 76q-76 75 -76 190zM256 553h543v205q0 143 -144 143h-256q-143 0 -143 -143v-205z" />
    <glyph glyph-name="eacute" unicode="&#xe9;" horiz-adv-x="1054" 
d="M123 266v502q0 115 75.5 190.5t190.5 75.5h277q115 0 190.5 -75.5t75.5 -190.5v-348h-676v-144q0 -143 143 -143h492v-133h-502q-115 0 -190.5 75.5t-75.5 190.5zM256 553h543v205q0 143 -144 143h-256q-143 0 -143 -143v-205zM481 1208l174 277h144l-205 -277h-113z" />
    <glyph glyph-name="ecircumflex" unicode="&#xea;" horiz-adv-x="1054" 
d="M256 1208l205 277h133l205 -277h-123l-144 185h-10l-143 -185h-123zM123 266v502q0 115 76 190q76 76 190 76h277q115 0 190 -76q76 -76 76 -190v-348h-676v-144q0 -143 143 -143h492v-133h-502q-115 0 -190 76q-76 75 -76 190zM256 553h543v205q0 143 -144 143h-256
q-143 0 -143 -143v-205z" />
    <glyph glyph-name="edieresis" unicode="&#xeb;" horiz-adv-x="1054" 
d="M123 266v502q0 115 75.5 190.5t190.5 75.5h277q115 0 190.5 -75.5t75.5 -190.5v-348h-676v-144q0 -143 143 -143h492v-133h-502q-115 0 -190.5 75.5t-75.5 190.5zM256 553h543v205q0 143 -144 143h-256q-143 0 -143 -143v-205zM287 1249v205h123v-205h-123zM655 1249v205
h133v-205h-133z" />
    <glyph glyph-name="igrave" unicode="&#xec;" horiz-adv-x="440" 
d="M164 1208l-205 277h143l174 -277h-112zM154 0v1014h133v-1014h-133z" />
    <glyph glyph-name="iacute" unicode="&#xed;" horiz-adv-x="440" 
d="M154 0v1014h133v-1014h-133zM164 1208l174 277h143l-205 -277h-112z" />
    <glyph glyph-name="icircumflex" unicode="&#xee;" horiz-adv-x="440" 
d="M-51 1208l205 277h133l205 -277h-123l-144 185h-10l-143 -185h-123zM154 0v1014h133v-1014h-133z" />
    <glyph glyph-name="idieresis" unicode="&#xef;" horiz-adv-x="440" 
d="M154 0v1014h133v-1014h-133zM-31 1249v205h123v-205h-123zM338 1249v205h133v-205h-133z" />
    <glyph glyph-name="eth" unicode="&#xf0;" horiz-adv-x="1085" 
d="M123 246v317q0 115 75.5 190.5t190.5 75.5h174q78 0 136.5 -30.5t78.5 -61.5l21 -30h10v276q0 174 -184 205l-174 31l-31 -164l-123 20l31 164l-174 31l20 143l174 -31l31 154l123 -20l-31 -154l174 -31q137 -25 217 -113t80 -235v-737q0 -115 -75.5 -190.5t-190.5 -75.5
h-287q-115 0 -190.5 75.5t-75.5 190.5zM399 113h267q143 0 143 143v225q0 100 -57.5 157.5t-157.5 57.5h-195q-143 0 -143 -143v-297q0 -143 143 -143z" />
    <glyph glyph-name="ntilde" unicode="&#xf1;" 
d="M276 1208v144q0 61 36 97t98 36q55 0 101 -28t72 -59q26 -32 53 -60q28 -28 50 -27q31 0 31 41v123h123v-144q0 -61 -36 -97t-97 -36q-55 0 -102 28q-46 28 -71 59q-26 32 -54 60t-50 27q-31 0 -31 -41v-123h-123zM154 0v1014h92l30 -103h11l7 14q5 9 25 29t46 37
q25 16 66 30q42 13 91 13h154q115 0 190 -76q76 -76 76 -190v-768h-133v758q0 143 -143 143h-164q-100 0 -158 -57q-57 -57 -57 -158v-686h-133z" />
    <glyph glyph-name="ograve" unicode="&#xf2;" horiz-adv-x="1075" 
d="M492 1208l-205 277h143l174 -277h-112zM123 246v522q0 115 76 190q76 76 190 76h297q115 0 191 -76t75 -190v-522q0 -115 -75 -191q-76 -76 -191 -75h-297q-115 0 -190 75q-76 76 -76 191zM399 113h277q143 0 143 143v502q0 143 -143 143h-277q-143 0 -143 -143v-502
q0 -143 143 -143z" />
    <glyph glyph-name="oacute" unicode="&#xf3;" horiz-adv-x="1075" 
d="M123 246v522q0 115 75.5 190.5t190.5 75.5h297q115 0 190.5 -75.5t75.5 -190.5v-522q0 -115 -75.5 -190.5t-190.5 -75.5h-297q-115 0 -190.5 75.5t-75.5 190.5zM399 113h277q143 0 143 143v502q0 143 -143 143h-277q-143 0 -143 -143v-502q0 -143 143 -143zM481 1208
l174 277h144l-205 -277h-113z" />
    <glyph glyph-name="ocircumflex" unicode="&#xf4;" horiz-adv-x="1075" 
d="M266 1208l205 277h133l205 -277h-123l-143 185h-11l-143 -185h-123zM123 246v522q0 115 76 190q76 76 190 76h297q115 0 191 -76t75 -190v-522q0 -115 -75 -191q-76 -76 -191 -75h-297q-115 0 -190 75q-76 76 -76 191zM399 113h277q143 0 143 143v502q0 143 -143 143
h-277q-143 0 -143 -143v-502q0 -143 143 -143z" />
    <glyph glyph-name="otilde" unicode="&#xf5;" horiz-adv-x="1075" 
d="M123 246v522q0 115 75.5 190.5t190.5 75.5h297q115 0 190.5 -75.5t75.5 -190.5v-522q0 -115 -75.5 -190.5t-190.5 -75.5h-297q-115 0 -190.5 75.5t-75.5 190.5zM399 113h277q143 0 143 143v502q0 143 -143 143h-277q-143 0 -143 -143v-502q0 -143 143 -143zM256 1208v144
q0 61 36 97t97 36q55 0 101.5 -27.5t72 -59.5t53 -59.5t50.5 -27.5q31 0 30 41v123h123v-144q0 -61 -35.5 -97t-97.5 -36q-55 0 -101 27.5t-72 59.5t-53.5 59.5t-49.5 27.5q-31 0 -31 -41v-123h-123z" />
    <glyph glyph-name="odieresis" unicode="&#xf6;" horiz-adv-x="1075" 
d="M287 1249v205h123v-205h-123zM655 1249v205h133v-205h-133zM123 246v522q0 115 76 190q76 76 190 76h297q115 0 191 -76t75 -190v-522q0 -115 -75 -191q-76 -76 -191 -75h-297q-115 0 -190 75q-76 76 -76 191zM399 113h277q143 0 143 143v502q0 143 -143 143h-277
q-143 0 -143 -143v-502q0 -143 143 -143z" />
    <glyph glyph-name="divide" unicode="&#xf7;" horiz-adv-x="1003" 
d="M82 594v123h840v-123h-840zM440 113v194h123v-194h-123zM440 1004v194h123v-194h-123z" />
    <glyph glyph-name="oslash" unicode="&#xf8;" horiz-adv-x="1075" 
d="M123 246v522q0 115 75.5 190.5t190.5 75.5h297q115 0 190.5 -75.5t75.5 -190.5v-522q0 -115 -75.5 -190.5t-190.5 -75.5h-297q-115 0 -190.5 75.5t-75.5 190.5zM256 215l481 676q-31 10 -61 10h-277q-143 0 -143 -143v-543zM399 113h277q143 0 143 143v543l-481 -676
q30 -10 61 -10z" />
    <glyph glyph-name="ugrave" unicode="&#xf9;" 
d="M502 1208l-205 277h143l174 -277h-112zM154 246v768h133v-758q0 -143 143 -143h164q100 0 158 57q57 57 57 158v686h133v-1014h-92l-31 102h-10q-2 -4 -7 -13t-26 -30q-20 -20 -45 -36t-66 -30q-42 -13 -92 -13h-153q-115 0 -191 75q-75 76 -75 191z" />
    <glyph glyph-name="uacute" unicode="&#xfa;" 
d="M154 246v768h133v-758q0 -143 143 -143h164q100 0 157.5 57t57.5 158v686h133v-1014h-92l-31 102h-10q-2 -4 -7 -13t-25.5 -29.5t-45 -37t-66.5 -29.5t-92 -13h-153q-115 0 -190.5 75.5t-75.5 190.5zM502 1208l174 277h143l-205 -277h-112z" />
    <glyph glyph-name="ucircumflex" unicode="&#xfb;" 
d="M276 1208l205 277h133l205 -277h-123l-143 185h-10l-144 -185h-123zM154 246v768h133v-758q0 -143 143 -143h164q100 0 158 57q57 57 57 158v686h133v-1014h-92l-31 102h-10q-2 -4 -7 -13t-26 -30q-20 -20 -45 -36t-66 -30q-42 -13 -92 -13h-153q-115 0 -191 75
q-75 76 -75 191z" />
    <glyph glyph-name="udieresis" unicode="&#xfc;" 
d="M154 246v768h133v-758q0 -143 143 -143h164q100 0 157.5 57t57.5 158v686h133v-1014h-92l-31 102h-10q-2 -4 -7 -13t-25.5 -29.5t-45 -37t-66.5 -29.5t-92 -13h-153q-115 0 -190.5 75.5t-75.5 190.5zM297 1249v205h123v-205h-123zM666 1249v205h133v-205h-133z" />
    <glyph glyph-name="yacute" unicode="&#xfd;" horiz-adv-x="931" 
d="M430 1208l174 277h144l-205 -277h-113zM143 -348v133h93q72 0 110 38q39 38 74 146l10 31v20l-389 920v74h123l328 -819h10l266 819h123v-72l-338 -973q-61 -176 -132 -247t-185 -70h-93z" />
    <glyph glyph-name="thorn" unicode="&#xfe;" 
d="M164 -348v1730h133v-368h410q115 0 190.5 -76t75.5 -190v-482q0 -115 -76 -190.5t-190 -75.5h-410v-348h-133zM297 133h399q143 0 144 143v461q0 143 -144 144h-399v-748z" />
    <glyph glyph-name="ydieresis" unicode="&#xff;" horiz-adv-x="931" 
d="M143 -348v133h93q72 0 110.5 38t73.5 146l10 31v20l-389 920v74h123l328 -819h10l266 819h123v-72l-338 -973q-61 -176 -132 -246.5t-185 -70.5h-93zM225 1249v205h123v-205h-123zM594 1249v205h133v-205h-133z" />
    <glyph glyph-name="Amacron" unicode="&#x100;" horiz-adv-x="1187" 
d="M41 0v72l471 1362h164l471 -1362v-72h-123l-123 369h-614l-123 -369h-123zM328 502h532l-266 778zM307 1638v123h563v-123h-563z" />
    <glyph glyph-name="amacron" unicode="&#x101;" horiz-adv-x="1013" 
d="M225 1270v123h563v-123h-563zM92 246v94q0 115 76 189q76 75 190 75h369v133q0 68 -37 106t-106 38h-410v133h420q115 0 190 -76q76 -76 76 -190v-748h-92l-31 102h-10q-2 -4 -7 -13t-26 -30q-20 -20 -45 -36t-66 -30q-42 -13 -91 -13h-134q-115 0 -190 75
q-76 76 -76 191zM369 113h143q100 0 158 57q57 57 57 158v143h-358q-143 0 -144 -143v-72q1 -143 144 -143z" />
    <glyph glyph-name="Abreve" unicode="&#x102;" horiz-adv-x="1187" 
d="M41 0v72l471 1362h164l471 -1362v-72h-123l-123 369h-614l-123 -369h-123zM328 502h532l-266 778zM317 1761v92h123v-71q0 -82 82 -82h154q82 0 82 82v71h123v-92q0 -84 -50.5 -134t-134.5 -50h-194q-84 0 -134.5 49t-50.5 135z" />
    <glyph glyph-name="abreve" unicode="&#x103;" horiz-adv-x="1013" 
d="M225 1393v92h123v-72q0 -82 82 -82h154q82 0 82 82v72h122v-92q0 -84 -50 -135q-50 -50 -134 -50h-194q-84 0 -135 49q-50 50 -50 136zM92 246v94q0 115 76 189q76 75 190 75h369v133q0 68 -37 106t-106 38h-410v133h420q115 0 190 -76q76 -76 76 -190v-748h-92l-31 102
h-10q-2 -4 -7 -13t-26 -30q-20 -20 -45 -36t-66 -30q-42 -13 -91 -13h-134q-115 0 -190 75q-76 76 -76 191zM369 113h143q100 0 158 57q57 57 57 158v143h-358q-143 0 -144 -143v-72q1 -143 144 -143z" />
    <glyph glyph-name="Aogonek" unicode="&#x104;" horiz-adv-x="1187" 
d="M41 0v72l471 1362h164l471 -1362v-82q-20 -14 -51 -38t-82 -91.5t-51 -126.5q0 -39 16 -55.5t55 -16.5h113v-113h-133q-78 0 -121 44.5t-43 125.5q0 47 20.5 93.5t48 79t56.5 58t49 38.5l20 12h-20l-123 369h-614l-123 -369h-123zM328 502h532l-266 778z" />
    <glyph glyph-name="aogonek" unicode="&#x105;" horiz-adv-x="1013" 
d="M92 246v94q0 115 76 189.5t190 74.5h369v133q0 68 -37 106t-106 38h-410v133h420q115 0 190.5 -76t75.5 -190v-758q-20 -14 -51 -38t-82 -91.5t-51 -126.5q0 -39 16.5 -55.5t55.5 -16.5h112v-113h-133q-78 0 -121 44.5t-43 125.5q0 74 51.5 144.5t102.5 103.5l51 33
l-31 102h-10q-2 -4 -7 -13t-25.5 -29.5t-45 -37t-66.5 -29.5t-91 -13h-134q-115 0 -190.5 75.5t-75.5 190.5zM369 113h143q100 0 157.5 57t57.5 158v143h-358q-143 0 -144 -143v-72q1 -143 144 -143z" />
    <glyph glyph-name="Cacute" unicode="&#x106;" horiz-adv-x="1136" 
d="M164 307v819q0 139 84 223.5t223 84.5h594v-93l-41 -41h-543q-184 0 -184 -184v-799q0 -184 184 -184h584v-133h-594q-139 0 -223 84t-84 223zM584 1577l174 276h143l-194 -276h-123z" />
    <glyph glyph-name="cacute" unicode="&#x107;" horiz-adv-x="901" 
d="M471 1208l174 277h143l-204 -277h-113zM123 266v482q0 115 76 190q76 76 190 76h440v-92l-41 -41h-389q-143 0 -143 -144v-461q0 -143 143 -143h430v-133h-440q-115 0 -190 76q-76 75 -76 190z" />
    <glyph glyph-name="Ccircumflex" unicode="&#x108;" horiz-adv-x="1136" 
d="M164 307v819q0 139 84 223.5t223 84.5h594v-93l-41 -41h-543q-184 0 -184 -184v-799q0 -184 184 -184h584v-133h-594q-139 0 -223 84t-84 223zM379 1577l205 276h133l205 -276h-123l-144 184h-10l-143 -184h-123z" />
    <glyph glyph-name="ccircumflex" unicode="&#x109;" horiz-adv-x="901" 
d="M236 1208l204 277h133l205 -277h-123l-143 185h-10l-144 -185h-122zM123 266v482q0 115 76 190q76 76 190 76h440v-92l-41 -41h-389q-143 0 -143 -144v-461q0 -143 143 -143h430v-133h-440q-115 0 -190 76q-76 75 -76 190z" />
    <glyph glyph-name="Ccaron" unicode="&#x10c;" horiz-adv-x="1136" 
d="M164 307v819q0 139 84 223.5t223 84.5h594v-93l-41 -41h-543q-184 0 -184 -184v-799q0 -184 184 -184h584v-133h-594q-139 0 -223 84t-84 223zM584 1577l-205 276h123l143 -184h10l144 184h123l-205 -276h-133z" />
    <glyph glyph-name="ccaron" unicode="&#x10d;" horiz-adv-x="901" 
d="M440 1208l-204 277h122l144 -185h10l143 185h123l-205 -277h-133zM123 266v482q0 115 76 190q76 76 190 76h440v-92l-41 -41h-389q-143 0 -143 -144v-461q0 -143 143 -143h430v-133h-440q-115 0 -190 76q-76 75 -76 190z" />
    <glyph glyph-name="Dcaron" unicode="&#x10e;" horiz-adv-x="1331" 
d="M195 0v1434h665q139 0 223 -84t84 -224v-819q0 -139 -84 -223t-223 -84h-665zM328 133h522q184 0 184 184v799q0 184 -184 184h-522v-1167zM584 1577l-205 276h123l143 -184h10l144 184h123l-205 -276h-133z" />
    <glyph glyph-name="dcaron" unicode="&#x10f;" horiz-adv-x="1136" 
d="M123 246v502q0 115 75.5 190.5t190.5 75.5h410v368h133v-1382h-92l-31 102h-10q-2 -4 -7.5 -13t-26 -29.5t-45 -37t-66.5 -29.5t-91 -13h-174q-115 0 -190.5 75.5t-75.5 190.5zM399 113h185q100 0 157.5 57t57.5 158v553h-400q-143 0 -143 -144v-481q0 -143 143 -143z
M1055 1014v420h123v-177l-72 -243h-51z" />
    <glyph glyph-name="Dcroat" unicode="&#x110;" horiz-adv-x="1341" 
d="M205 0v666h-154v133h154v635h665q137 0 222.5 -84t85.5 -224v-819q0 -139 -85 -223t-223 -84h-665zM338 133h522q184 0 184 184v799q0 184 -184 184h-522v-501h326v-133h-326v-533z" />
    <glyph glyph-name="dcroat" unicode="&#x111;" horiz-adv-x="1126" 
d="M123 246v317q0 115 75.5 190.5t190.5 75.5h410v185h-287v133h287v235h133v-235h174v-133h-174v-1014h-92l-31 102h-10q-2 -4 -7.5 -13t-26 -29.5t-45 -37t-66.5 -29.5t-91 -13h-174q-115 0 -190.5 75.5t-75.5 190.5zM399 113h185q100 0 157.5 57t57.5 158v368h-400
q-143 0 -143 -143v-297q0 -143 143 -143z" />
    <glyph glyph-name="Emacron" unicode="&#x112;" horiz-adv-x="1116" 
d="M195 0v1434h849v-93l-40 -41h-676v-501h522v-133h-522v-533h716v-133h-849zM338 1638v123h563v-123h-563z" />
    <glyph glyph-name="emacron" unicode="&#x113;" horiz-adv-x="1054" 
d="M246 1270v123h563v-123h-563zM123 266v502q0 115 76 190q76 76 190 76h277q115 0 190 -76q76 -76 76 -190v-348h-676v-144q0 -143 143 -143h492v-133h-502q-115 0 -190 76q-76 75 -76 190zM256 553h543v205q0 143 -144 143h-256q-143 0 -143 -143v-205z" />
    <glyph glyph-name="Edotaccent" unicode="&#x116;" horiz-adv-x="1116" 
d="M195 0v1434h849v-93l-40 -41h-676v-501h522v-133h-522v-533h716v-133h-849zM563 1608v204h133v-204h-133z" />
    <glyph glyph-name="edotaccent" unicode="&#x117;" horiz-adv-x="1054" 
d="M461 1249v205h133v-205h-133zM123 266v502q0 115 76 190q76 76 190 76h277q115 0 190 -76q76 -76 76 -190v-348h-676v-144q0 -143 143 -143h492v-133h-502q-115 0 -190 76q-76 75 -76 190zM256 553h543v205q0 143 -144 143h-256q-143 0 -143 -143v-205z" />
    <glyph glyph-name="Eogonek" unicode="&#x118;" horiz-adv-x="1116" 
d="M195 0v1434h849v-93l-40 -41h-676v-501h522v-133h-522v-533h716v-143q-20 -14 -50.5 -38t-82 -91.5t-51.5 -126.5q0 -39 16.5 -55.5t55.5 -16.5h112v-113h-133q-78 0 -120.5 44.5t-42.5 125.5q0 47 20 93.5t48 79t56.5 58t49.5 38.5l20 12h-747z" />
    <glyph glyph-name="eogonek" unicode="&#x119;" horiz-adv-x="1054" 
d="M123 266v502q0 115 75.5 190.5t190.5 75.5h277q115 0 190.5 -75.5t75.5 -190.5v-348h-676v-144q0 -143 143 -143h492v-143q-20 -14 -51 -38t-82 -91.5t-51 -126.5q0 -39 16 -55.5t55 -16.5h113v-113h-133q-78 0 -121 44.5t-43 125.5q0 74 49 144.5t98 103.5l47 33h-399
q-115 0 -190.5 75.5t-75.5 190.5zM256 553h543v205q0 143 -144 143h-256q-143 0 -143 -143v-205z" />
    <glyph glyph-name="Ecaron" unicode="&#x11a;" horiz-adv-x="1116" 
d="M195 0v1434h849v-93l-40 -41h-676v-501h522v-133h-522v-533h716v-133h-849zM563 1577l-205 276h123l144 -184h10l143 184h123l-205 -276h-133z" />
    <glyph glyph-name="ecaron" unicode="&#x11b;" horiz-adv-x="1054" 
d="M461 1208l-205 277h123l143 -185h10l144 185h123l-205 -277h-133zM123 266v502q0 115 76 190q76 76 190 76h277q115 0 190 -76q76 -76 76 -190v-348h-676v-144q0 -143 143 -143h492v-133h-502q-115 0 -190 76q-76 75 -76 190zM256 553h543v205q0 143 -144 143h-256
q-143 0 -143 -143v-205z" />
    <glyph glyph-name="Gbreve" unicode="&#x11e;" horiz-adv-x="1290" 
d="M164 307v819q0 139 84 223.5t223 84.5h594v-93l-41 -41h-543q-184 0 -184 -184v-799q0 -184 184 -184h512v635h133v-768h-655q-139 0 -223 84t-84 223zM389 1761v92h123v-71q0 -82 82 -82h154q82 0 81 82v71h123v-92q0 -84 -50 -134t-134 -50h-195q-84 0 -134 49t-50 135
z" />
    <glyph glyph-name="gbreve" unicode="&#x11f;" horiz-adv-x="1013" 
d="M61 -102v61q0 55 18.5 100t43 69t50.5 40t44 20l19 7v10q-8 4 -20.5 11t-32 36t-19.5 65.5t18.5 64.5t34.5 38l19 10v10q-4 2 -12.5 6.5t-28 22.5t-34 39.5t-26.5 61.5t-12 85v113q0 115 75.5 190.5t190.5 75.5h215l103 144h122v-72l-112 -82v-10q6 -2 18.5 -6t42 -21.5
t53 -42t42 -72t18.5 -104.5v-113q0 -115 -76 -190.5t-190 -75.5h-256q-82 0 -82 -82t82 -82h317q115 0 190.5 -75.5t75.5 -190.5v-61q0 -115 -75.5 -191t-190.5 -76h-358q-115 0 -191 76t-76 191zM348 -236h328q143 0 143 144v41q0 143 -143 143h-338q-143 0 -143 -143v-31
q0 -70 41.5 -112t111.5 -42zM399 522h215q143 0 144 144v92q0 143 -144 143h-215q-143 0 -143 -143v-92q0 -144 143 -144zM225 1393v92h123v-72q0 -82 82 -82h154q82 0 82 82v72h122v-92q0 -84 -50 -134.5t-134 -50.5h-194q-84 0 -134.5 49.5t-50.5 135.5z" />
    <glyph glyph-name="uni0122" unicode="&#x122;" horiz-adv-x="1290" 
d="M164 307v819q0 139 84 223.5t223 84.5h594v-93l-41 -41h-543q-184 0 -184 -184v-799q0 -184 184 -184h512v635h133v-768h-655q-139 0 -223 84t-84 223zM625 -563v420h123v-174l-62 -246h-61z" />
    <glyph glyph-name="uni0123" unicode="&#x123;" horiz-adv-x="1013" 
d="M440 1208v174l62 246h61v-420h-123zM61 -102v61q0 55 18.5 100t43 69t50.5 40t44 20l19 7v10q-8 4 -20.5 11t-32 36t-19.5 65.5t18.5 64.5t34.5 38l19 10v10q-4 2 -12.5 6.5t-28 22.5t-34 39.5t-26.5 61.5t-12 85v113q0 115 75.5 190.5t190.5 75.5h215l103 144h122v-72
l-112 -82v-10q6 -2 18.5 -6t42 -21.5t53 -42t42 -72t18.5 -104.5v-113q0 -115 -76 -190.5t-190 -75.5h-256q-82 0 -82 -82t82 -82h317q115 0 190.5 -75.5t75.5 -190.5v-61q0 -115 -75.5 -191t-190.5 -76h-358q-115 0 -191 76t-76 191zM348 -236h328q143 0 143 144v41
q0 143 -143 143h-338q-143 0 -143 -143v-31q0 -70 41.5 -112t111.5 -42zM399 522h215q143 0 144 144v92q0 143 -144 143h-215q-143 0 -143 -143v-92q0 -144 143 -144z" />
    <glyph glyph-name="Imacron" unicode="&#x12a;" horiz-adv-x="522" 
d="M195 0v1434h133v-1434h-133zM-20 1638v123h563v-123h-563z" />
    <glyph glyph-name="imacron" unicode="&#x12b;" horiz-adv-x="440" 
d="M-61 1270v123h563v-123h-563zM154 0v1014h133v-1014h-133z" />
    <glyph glyph-name="Iogonek" unicode="&#x12e;" horiz-adv-x="522" 
d="M328 -451h-133q-78 0 -121 44.5t-43 125.5q0 47 20.5 93.5t48 79t56 58t49.5 38.5l20 12h-30v1434h133v-1444q-20 -14 -51 -38t-82.5 -91.5t-51.5 -126.5q0 -39 16.5 -55.5t55.5 -16.5h113v-113z" />
    <glyph glyph-name="iogonek" unicode="&#x12f;" horiz-adv-x="440" 
d="M287 -451h-133q-78 0 -121 44.5t-43 125.5q0 47 20.5 93.5t48 79t56 58t49.5 38.5l20 12h-30v1014h133v-1024q-20 -14 -51 -38t-82.5 -91.5t-51.5 -126.5q0 -39 16.5 -55.5t55.5 -16.5h113v-113zM154 1196v207h133v-207h-133z" />
    <glyph glyph-name="Idotaccent" unicode="&#x130;" horiz-adv-x="522" 
d="M195 0v1434h133v-1434h-133zM195 1608v204h133v-204h-133z" />
    <glyph glyph-name="dotlessi" unicode="&#x131;" horiz-adv-x="440" 
d="M154 0v1014h133v-1014h-133z" />
    <glyph glyph-name="uni0136" unicode="&#x136;" horiz-adv-x="1239" 
d="M195 0v1434h133v-635h348l368 635h113v-72l-369 -625l390 -665v-72h-123l-379 666h-348v-666h-133zM625 -563v420h123v-174l-62 -246h-61z" />
    <glyph glyph-name="uni0137" unicode="&#x137;" horiz-adv-x="1001" 
d="M164 0v1382h133v-798h266l256 430h103v-72l-246 -410l266 -460v-72h-113l-256 451h-276v-451h-133zM502 -563v420h123v-174l-62 -246h-61z" />
    <glyph glyph-name="Lacute" unicode="&#x139;" horiz-adv-x="1054" 
d="M195 0v1434h133v-1301h706v-133h-839zM205 1577l174 276h143l-194 -276h-123z" />
    <glyph glyph-name="lacute" unicode="&#x13a;" horiz-adv-x="460" 
d="M164 0v1382h133v-1382h-133zM174 1577l174 276h144l-195 -276h-123z" />
    <glyph glyph-name="uni013B" unicode="&#x13b;" horiz-adv-x="1054" 
d="M195 0v1434h133v-1301h706v-133h-839zM573 -563v420h123v-174l-61 -246h-62z" />
    <glyph glyph-name="uni013C" unicode="&#x13c;" horiz-adv-x="460" 
d="M164 0v1382h133v-1382h-133zM174 -563v420h123v-174l-61 -246h-62z" />
    <glyph glyph-name="Lcaron" unicode="&#x13d;" horiz-adv-x="1054" 
d="M195 0v1434h133v-1301h706v-133h-839zM573 1014v420h123v-177l-71 -243h-52z" />
    <glyph glyph-name="lcaron" unicode="&#x13e;" horiz-adv-x="491" 
d="M164 0v1382h133v-1382h-133zM410 1014v420h122v-177l-71 -243h-51z" />
    <glyph glyph-name="Lslash" unicode="&#x141;" horiz-adv-x="1054" 
d="M195 0v594l-134 -62v134l134 61v707h133v-646l358 175v-134l-358 -174v-522h706v-133h-839z" />
    <glyph glyph-name="lslash" unicode="&#x142;" horiz-adv-x="501" 
d="M174 0v666l-133 -62v133l133 62v583h133v-512l154 82v-133l-154 -82v-737h-133z" />
    <glyph glyph-name="Nacute" unicode="&#x143;" horiz-adv-x="1392" 
d="M195 0v1434h153l707 -1188h10v1188h133v-1434h-154l-706 1188h-10v-1188h-133zM666 1577l174 276h143l-195 -276h-122z" />
    <glyph glyph-name="nacute" unicode="&#x144;" 
d="M512 1208l174 277h143l-204 -277h-113zM154 0v1014h92l30 -103h11l7 14q5 9 25 29t46 37q25 16 66 30q42 13 91 13h154q115 0 190 -76q76 -76 76 -190v-768h-133v758q0 143 -143 143h-164q-100 0 -158 -57q-57 -57 -57 -158v-686h-133z" />
    <glyph glyph-name="uni0145" unicode="&#x145;" horiz-adv-x="1392" 
d="M195 0v1434h153l707 -1188h10v1188h133v-1434h-154l-706 1188h-10v-1188h-133zM655 -563v420h123v-174l-61 -246h-62z" />
    <glyph glyph-name="uni0146" unicode="&#x146;" 
d="M154 0v1014h92l30 -103h11q2 4 7 13.5t25.5 30t45 37t66.5 29.5t91 13h154q115 0 190.5 -75.5t75.5 -190.5v-768h-133v758q0 143 -143 143h-164q-100 0 -157.5 -57.5t-57.5 -157.5v-686h-133zM492 -563v420h122v-174l-61 -246h-61z" />
    <glyph glyph-name="Ncaron" unicode="&#x147;" horiz-adv-x="1392" 
d="M195 0v1434h153l707 -1188h10v1188h133v-1434h-154l-706 1188h-10v-1188h-133zM666 1577l-205 276h123l143 -184h10l144 184h123l-205 -276h-133z" />
    <glyph glyph-name="ncaron" unicode="&#x148;" 
d="M492 1208l-205 277h123l143 -185h10l144 185h122l-204 -277h-133zM154 0v1014h92l30 -103h11l7 14q5 9 25 29t46 37q25 16 66 30q42 13 91 13h154q115 0 190 -76q76 -76 76 -190v-768h-133v758q0 143 -143 143h-164q-100 0 -158 -57q-57 -57 -57 -158v-686h-133z" />
    <glyph glyph-name="Omacron" unicode="&#x14c;" horiz-adv-x="1320" 
d="M164 287v860q0 139 84 223t223 84h379q137 0 222 -84t85 -223v-860q0 -139 -85 -223t-222 -84h-379q-139 0 -223 84t-84 223zM481 113h359q184 0 184 184v840q0 184 -184 184h-359q-184 0 -184 -184v-840q0 -184 184 -184zM379 1638v123h563v-123h-563z" />
    <glyph glyph-name="omacron" unicode="&#x14d;" horiz-adv-x="1075" 
d="M256 1270v123h563v-123h-563zM123 246v522q0 115 76 190q76 76 190 76h297q115 0 191 -76t75 -190v-522q0 -115 -75 -191q-76 -76 -191 -75h-297q-115 0 -190 75q-76 76 -76 191zM399 113h277q143 0 143 143v502q0 143 -143 143h-277q-143 0 -143 -143v-502
q0 -143 143 -143z" />
    <glyph glyph-name="Ohungarumlaut" unicode="&#x150;" horiz-adv-x="1320" 
d="M164 287v860q0 139 84 223t223 84h379q137 0 222 -84t85 -223v-860q0 -139 -85 -223t-222 -84h-379q-139 0 -223 84t-84 223zM481 113h359q184 0 184 184v840q0 184 -184 184h-359q-184 0 -184 -184v-840q0 -184 184 -184zM440 1577l164 276h133l-184 -276h-113z
M727 1577l164 276h133l-184 -276h-113z" />
    <glyph glyph-name="ohungarumlaut" unicode="&#x151;" horiz-adv-x="1075" 
d="M338 1208l164 277h133l-184 -277h-113zM625 1208l163 277h134l-185 -277h-112zM123 246v522q0 115 76 190q76 76 190 76h297q115 0 191 -76t75 -190v-522q0 -115 -75 -191q-76 -76 -191 -75h-297q-115 0 -190 75q-76 76 -76 191zM399 113h277q143 0 143 143v502
q0 143 -143 143h-277q-143 0 -143 -143v-502q0 -143 143 -143z" />
    <glyph glyph-name="OE" unicode="&#x152;" horiz-adv-x="1853" 
d="M164 307v819q0 139 84 223.5t223 84.5h1311v-93l-41 -41h-656v-501h502v-133h-502v-533h697v-133h-1311q-139 0 -223 84t-84 223zM481 133h471v1167h-471q-184 0 -184 -184v-799q0 -184 184 -184z" />
    <glyph glyph-name="oe" unicode="&#x153;" horiz-adv-x="1751" 
d="M123 246v522q0 115 75.5 190.5t190.5 75.5h297q59 0 107.5 -30.5t66.5 -61.5l21 -31h10q8 14 23.5 35t65.5 54.5t105 33.5h277q115 0 190.5 -75.5t75.5 -190.5v-348h-676v-144q0 -143 144 -143h491v-133h-502q-55 0 -101 28.5t-64 57.5l-19 27h-10q-2 -6 -7 -14.5
t-23.5 -32t-40 -41t-57.5 -31.5t-77 -14h-297q-115 0 -190.5 75.5t-75.5 190.5zM399 113h277q143 0 143 143v502q0 143 -143 143h-277q-143 0 -143 -143v-502q0 -143 143 -143zM952 553h543v205q0 143 -143 143h-256q-143 0 -144 -143v-205z" />
    <glyph glyph-name="Racute" unicode="&#x154;" horiz-adv-x="1300" 
d="M195 0v1434h645q139 0 223 -84t84 -224v-256q0 -78 -28.5 -136t-69.5 -88t-81 -47t-69 -21l-29 -5l297 -501v-72h-123l-307 563h-409v-563h-133zM328 696h501q90 0 137.5 49.5t47.5 135.5v235q0 184 -185 184h-501v-604zM573 1577l175 276h143l-195 -276h-123z" />
    <glyph glyph-name="racute" unicode="&#x155;" horiz-adv-x="716" 
d="M358 1208l174 277h144l-205 -277h-113zM154 0v1014h92l30 -103h11l7 14q5 9 25 29t46 37q25 16 66 30q42 13 91 13h164v-133h-184q-92 0 -154 -61q-61 -61 -61 -154v-686h-133z" />
    <glyph glyph-name="uni0156" unicode="&#x156;" horiz-adv-x="1300" 
d="M195 0v1434h645q139 0 223 -84t84 -224v-256q0 -78 -28.5 -136t-69.5 -88t-81 -47t-69 -21l-29 -5l297 -501v-72h-123l-307 563h-409v-563h-133zM328 696h501q90 0 137.5 49.5t47.5 135.5v235q0 184 -185 184h-501v-604zM625 -563v420h123v-174l-62 -246h-61z" />
    <glyph glyph-name="uni0157" unicode="&#x157;" horiz-adv-x="716" 
d="M154 0v1014h92l30 -103h11q2 4 7 13.5t25.5 30t45 37t66.5 29.5t91 13h164v-133h-184q-92 0 -153.5 -61.5t-61.5 -153.5v-686h-133zM164 -563v420h123v-174l-62 -246h-61z" />
    <glyph glyph-name="Rcaron" unicode="&#x158;" horiz-adv-x="1300" 
d="M195 0v1434h645q139 0 223 -84t84 -224v-256q0 -78 -28.5 -136t-69.5 -88t-81 -47t-69 -21l-29 -5l297 -501v-72h-123l-307 563h-409v-563h-133zM328 696h501q90 0 137.5 49.5t47.5 135.5v235q0 184 -185 184h-501v-604zM573 1577l-204 276h123l143 -184h10l143 184h123
l-204 -276h-134z" />
    <glyph glyph-name="rcaron" unicode="&#x159;" horiz-adv-x="716" 
d="M348 1208l-205 277h123l144 -185h10l143 185h123l-205 -277h-133zM154 0v1014h92l30 -103h11l7 14q5 9 25 29t46 37q25 16 66 30q42 13 91 13h164v-133h-184q-92 0 -154 -61q-61 -61 -61 -154v-686h-133z" />
    <glyph glyph-name="Sacute" unicode="&#x15a;" horiz-adv-x="1157" 
d="M113 0v133h614q184 0 184 184v134q0 147 -184 184l-348 72q-125 25 -195.5 105.5t-70.5 201.5v112q0 139 85 223.5t222 84.5h584v-93l-39 -41h-535q-184 0 -184 -184v-92q0 -147 184 -184l348 -72q125 -27 195.5 -106.5t70.5 -200.5v-154q0 -139 -83.5 -223t-223.5 -84
h-624zM532 1577l175 276h143l-195 -276h-123z" />
    <glyph glyph-name="sacute" unicode="&#x15b;" horiz-adv-x="901" 
d="M410 1208l174 277h143l-205 -277h-112zM82 0v133h461q143 0 143 143q0 61 -33 95q-33 33 -110 49l-236 51q-106 23 -166 88q-59 66 -59 158v31q0 123 72 194q72 72 194 72h440v-92l-40 -41h-390q-143 0 -143 -144q0 -63 29 -95t104 -48l236 -51q109 -23 172 -88
q63 -66 63 -158v-31q0 -123 -71 -194q-72 -72 -195 -72h-471z" />
    <glyph glyph-name="Scedilla" unicode="&#x15e;" horiz-adv-x="1157" 
d="M451 -471v113h153q39 0 55.5 16t16.5 55t-16.5 55.5t-55.5 16.5h-92l-31 31v184h-368v133h614q184 0 184 184v134q0 147 -184 184l-348 72q-125 25 -195.5 105.5t-70.5 201.5v112q0 139 85 223.5t222 84.5h584v-93l-39 -41h-535q-184 0 -184 -184v-92q0 -147 184 -184
l348 -72q125 -27 195.5 -106.5t70.5 -200.5v-154q0 -139 -83.5 -223t-223.5 -84h-143v-102h20q174 0 174 -174v-21q0 -174 -174 -174h-163z" />
    <glyph glyph-name="scedilla" unicode="&#x15f;" horiz-adv-x="901" 
d="M297 -471v113h154q39 0 55 16t16 55t-16.5 55.5t-54.5 16.5h-93l-30 31v184h-246v133h461q143 0 143 143q0 61 -32.5 94t-110.5 50l-236 51q-106 23 -165.5 88.5t-59.5 157.5v31q0 123 71.5 194.5t194.5 71.5h440v-92l-40 -41h-390q-143 0 -143 -144q0 -63 28.5 -95
t104.5 -48l236 -51q109 -23 172 -88.5t63 -157.5v-31q0 -123 -71.5 -194.5t-194.5 -71.5h-113v-102h21q174 0 174 -174v-21q0 -174 -174 -174h-164z" />
    <glyph glyph-name="Scaron" unicode="&#x160;" horiz-adv-x="1157" 
d="M113 0v133h614q184 0 184 184v134q0 147 -184 184l-348 72q-125 25 -195.5 105.5t-70.5 201.5v112q0 139 85 223.5t222 84.5h584v-93l-39 -41h-535q-184 0 -184 -184v-92q0 -147 184 -184l348 -72q125 -27 195.5 -106.5t70.5 -200.5v-154q0 -139 -83.5 -223t-223.5 -84
h-624zM532 1577l-204 276h123l143 -184h10l144 184h122l-204 -276h-134z" />
    <glyph glyph-name="scaron" unicode="&#x161;" horiz-adv-x="901" 
d="M389 1208l-205 277h123l144 -185h10l143 185h123l-205 -277h-133zM82 0v133h461q143 0 143 143q0 61 -33 95q-33 33 -110 49l-236 51q-106 23 -166 88q-59 66 -59 158v31q0 123 72 194q72 72 194 72h440v-92l-40 -41h-390q-143 0 -143 -144q0 -63 29 -95t104 -48l236 -51
q109 -23 172 -88q63 -66 63 -158v-31q0 -123 -71 -194q-72 -72 -195 -72h-471z" />
    <glyph glyph-name="uni0162" unicode="&#x162;" horiz-adv-x="1034" 
d="M451 0v1300h-431v134h994v-93l-41 -41h-389v-1300h-133zM461 -563v420h123v-174l-62 -246h-61z" />
    <glyph glyph-name="uni0163" unicode="&#x163;" horiz-adv-x="716" 
d="M205 266v615h-164v133h164l61 317h72v-317h297v-92l-41 -41h-256v-605q0 -143 143 -143h174v-133h-184q-115 0 -190.5 75.5t-75.5 190.5zM369 -563v420h123v-174l-62 -246h-61z" />
    <glyph glyph-name="Tcaron" unicode="&#x164;" horiz-adv-x="1034" 
d="M451 0v1300h-431v134h994v-93l-41 -41h-389v-1300h-133zM451 1577l-205 276h123l143 -184h10l144 184h122l-204 -276h-133z" />
    <glyph glyph-name="tcaron" unicode="&#x165;" horiz-adv-x="757" 
d="M205 266v615h-164v133h164l61 317h72v-317h297v-92l-41 -41h-256v-605q0 -143 143 -143h174v-133h-184q-115 0 -190.5 75.5t-75.5 190.5zM676 1014v420h123v-177l-72 -243h-51z" />
    <glyph glyph-name="Umacron" unicode="&#x16a;" horiz-adv-x="1320" 
d="M174 287v1147h133v-1137q0 -184 185 -184h337q184 0 185 184v1137h133v-1147q0 -139 -84 -223t-223 -84h-359q-137 0 -222 84t-85 223zM379 1638v123h563v-123h-563z" />
    <glyph glyph-name="umacron" unicode="&#x16b;" 
d="M266 1270v123h563v-123h-563zM154 246v768h133v-758q0 -143 143 -143h164q100 0 158 57q57 57 57 158v686h133v-1014h-92l-31 102h-10q-2 -4 -7 -13t-26 -30q-20 -20 -45 -36t-66 -30q-42 -13 -92 -13h-153q-115 0 -191 75q-75 76 -75 191z" />
    <glyph glyph-name="Uring" unicode="&#x16e;" horiz-adv-x="1320" 
d="M174 287v1147h133v-1137q0 -184 185 -184h337q184 0 185 184v1137h133v-1147q0 -139 -84 -223t-223 -84h-359q-137 0 -222 84t-85 223zM655 1638h11q39 0 55 16.5t16 55.5v10q0 39 -16 55.5t-55 16.5h-11q-39 0 -55 -16.5t-16 -55.5v-10q0 -39 16 -55.5t55 -16.5z
M471 1700v31q0 76 49 125t125 49h31q78 0 126 -49.5t48 -124.5v-31q0 -78 -48 -126t-126 -48h-31q-76 0 -125 48t-49 126z" />
    <glyph glyph-name="uring" unicode="&#x16f;" 
d="M543 1270h10q39 0 55 16t17 55v11q0 39 -17 55q-16 16 -55 16h-10q-39 0 -56 -16q-16 -16 -16 -55v-11q0 -39 16 -55q17 -16 56 -16zM358 1331v31q0 76 50 125q49 49 124 49h31q78 0 126 -49t48 -125v-31q0 -78 -48 -126t-126 -48h-31q-76 0 -124 48q-50 48 -50 126z
M154 246v768h133v-758q0 -143 143 -143h164q100 0 158 57q57 57 57 158v686h133v-1014h-92l-31 102h-10q-2 -4 -7 -13t-26 -30q-20 -20 -45 -36t-66 -30q-42 -13 -92 -13h-153q-115 0 -191 75q-75 76 -75 191z" />
    <glyph glyph-name="Uhungarumlaut" unicode="&#x170;" horiz-adv-x="1320" 
d="M174 287v1147h133v-1137q0 -184 185 -184h337q184 0 185 184v1137h133v-1147q0 -139 -84 -223t-223 -84h-359q-137 0 -222 84t-85 223zM461 1577l164 276h133l-185 -276h-112zM748 1577l163 276h133l-184 -276h-112z" />
    <glyph glyph-name="uhungarumlaut" unicode="&#x171;" 
d="M328 1208l164 277h133l-185 -277h-112zM614 1208l164 277h133l-184 -277h-113zM154 246v768h133v-758q0 -143 143 -143h164q100 0 158 57q57 57 57 158v686h133v-1014h-92l-31 102h-10q-2 -4 -7 -13t-26 -30q-20 -20 -45 -36t-66 -30q-42 -13 -92 -13h-153
q-115 0 -191 75q-75 76 -75 191z" />
    <glyph glyph-name="Uogonek" unicode="&#x172;" horiz-adv-x="1320" 
d="M809 -451h-133q-78 0 -121 44.5t-43 125.5q0 61 41 126t82 100l41 35h-195q-137 0 -222 83.5t-85 223.5v1147h133v-1137q0 -184 185 -184h337q184 0 185 184v1137h133v-1147q0 -139 -84 -223t-223 -84h-41q-20 -14 -49 -38t-77 -88.5t-48 -119.5q0 -39 16 -55.5t55 -16.5
h113v-113z" />
    <glyph glyph-name="uogonek" unicode="&#x173;" 
d="M154 246v768h133v-758q0 -143 143 -143h164q100 0 157.5 57t57.5 158v686h133v-1024q-20 -14 -51 -38t-82 -91.5t-51 -126.5q0 -39 16.5 -55.5t54.5 -16.5h113v-113h-133q-78 0 -121 44.5t-43 125.5q0 74 51.5 144.5t102.5 103.5l51 33l-31 102h-10q-2 -4 -7 -13
t-25.5 -29.5t-45 -37t-66.5 -29.5t-92 -13h-153q-115 0 -190.5 75.5t-75.5 190.5z" />
    <glyph glyph-name="Ydieresis" unicode="&#x178;" horiz-adv-x="1075" 
d="M471 0v502l-430 860v72h113l378 -779h11l379 779h112v-72l-430 -860v-502h-133zM297 1608v204h123v-204h-123zM666 1608v204h133v-204h-133z" />
    <glyph glyph-name="Zacute" unicode="&#x179;" horiz-adv-x="1034" 
d="M51 0v133l758 1157v10h-686l-41 41v93h891v-134l-758 -1157v-10h758v-133h-922zM481 1577l174 276h144l-195 -276h-123z" />
    <glyph glyph-name="zacute" unicode="&#x17a;" horiz-adv-x="870" 
d="M379 1208l174 277h143l-204 -277h-113zM51 0v133l584 737v11h-533l-41 41v92h748v-133l-584 -738v-10h584v-133h-758z" />
    <glyph glyph-name="Zdotaccent" unicode="&#x17b;" horiz-adv-x="1034" 
d="M51 0v133l758 1157v10h-686l-41 41v93h891v-134l-758 -1157v-10h758v-133h-922zM471 1608v204h133v-204h-133z" />
    <glyph glyph-name="zdotaccent" unicode="&#x17c;" horiz-adv-x="870" 
d="M379 1249v205h133v-205h-133zM51 0v133l584 737v11h-533l-41 41v92h748v-133l-584 -738v-10h584v-133h-758z" />
    <glyph glyph-name="Zcaron" unicode="&#x17d;" horiz-adv-x="1034" 
d="M51 0v133l758 1157v10h-686l-41 41v93h891v-134l-758 -1157v-10h758v-133h-922zM471 1577l-205 276h123l143 -184h11l143 184h123l-205 -276h-133z" />
    <glyph glyph-name="zcaron" unicode="&#x17e;" horiz-adv-x="870" 
d="M369 1208l-205 277h123l143 -185h10l144 185h123l-205 -277h-133zM51 0v133l584 737v11h-533l-41 41v92h748v-133l-584 -738v-10h584v-133h-758z" />
    <glyph glyph-name="florin" unicode="&#x192;" horiz-adv-x="849" 
d="M-143 -348l30 133h72q174 0 205 133l184 840h-252l29 133h246l49 235q31 141 109.5 209t228.5 68h266l-31 -133h-235q-96 0 -142.5 -35t-62.5 -109l-51 -235h297l-31 -113l-20 -20h-267l-184 -840q-59 -266 -338 -266h-102z" />
    <glyph glyph-name="uni0218" unicode="&#x218;" horiz-adv-x="1157" 
d="M113 0v133h614q184 0 184 184v134q0 147 -184 184l-348 72q-125 25 -195.5 105.5t-70.5 201.5v112q0 139 85 223.5t222 84.5h584v-93l-39 -41h-535q-184 0 -184 -184v-92q0 -147 184 -184l348 -72q125 -27 195.5 -106.5t70.5 -200.5v-154q0 -139 -83.5 -223t-223.5 -84
h-624zM522 -563v420h123v-174l-61 -246h-62z" />
    <glyph glyph-name="uni0219" unicode="&#x219;" horiz-adv-x="901" 
d="M82 0v133h461q143 0 143 143q0 61 -32.5 94t-110.5 50l-236 51q-106 23 -165.5 88.5t-59.5 157.5v31q0 123 71.5 194.5t194.5 71.5h440v-92l-40 -41h-390q-143 0 -143 -144q0 -63 28.5 -95t104.5 -48l236 -51q109 -23 172 -88.5t63 -157.5v-31q0 -123 -71.5 -194.5
t-194.5 -71.5h-471zM389 -563v420h123v-174l-61 -246h-62z" />
    <glyph glyph-name="uni021A" unicode="&#x21a;" horiz-adv-x="1034" 
d="M451 0v1300h-431v134h994v-93l-41 -41h-389v-1300h-133zM461 -563v420h123v-174l-62 -246h-61z" />
    <glyph glyph-name="uni021B" unicode="&#x21b;" horiz-adv-x="716" 
d="M205 266v615h-164v133h164l61 317h72v-317h297v-92l-41 -41h-256v-605q0 -143 143 -143h174v-133h-184q-115 0 -190.5 75.5t-75.5 190.5zM369 -563v420h123v-174l-62 -246h-61z" />
    <glyph glyph-name="uni02BC" unicode="&#x2bc;" horiz-adv-x="245" 
d="M61 1014v420h123v-177l-71 -243h-52z" />
    <glyph glyph-name="circumflex" unicode="&#x2c6;" horiz-adv-x="665" 
d="M61 1208l205 277h133l205 -277h-123l-143 185h-10l-144 -185h-123z" />
    <glyph glyph-name="caron" unicode="&#x2c7;" horiz-adv-x="665" 
d="M266 1208l-205 277h123l144 -185h10l143 185h123l-205 -277h-133z" />
    <glyph glyph-name="breve" unicode="&#x2d8;" horiz-adv-x="686" 
d="M61 1393v92h123v-72q0 -82 82 -82h154q82 0 82 82v72h123v-92q0 -84 -50.5 -134.5t-134.5 -50.5h-194q-84 0 -134.5 49.5t-50.5 135.5z" />
    <glyph glyph-name="dotaccent" unicode="&#x2d9;" horiz-adv-x="256" 
d="M61 1249v205h134v-205h-134z" />
    <glyph glyph-name="ring" unicode="&#x2da;" horiz-adv-x="501" 
d="M246 1270h10q39 0 55.5 16.5t16.5 54.5v11q0 39 -16.5 55t-55.5 16h-10q-39 0 -55.5 -16t-16.5 -55v-11q0 -39 16.5 -55t55.5 -16zM61 1331v31q0 76 49.5 125t125.5 49h30q78 0 126 -49t48 -125v-31q0 -78 -48 -126t-126 -48h-30q-76 0 -125.5 48t-49.5 126z" />
    <glyph glyph-name="ogonek" unicode="&#x2db;" horiz-adv-x="419" 
d="M358 -451h-133q-78 0 -121 44.5t-43 125.5q0 74 49.5 144.5t98.5 103.5l47 33h102v-10q-20 -14 -51 -38t-82 -91.5t-51 -126.5q0 -39 16.5 -55.5t55.5 -16.5h112v-113z" />
    <glyph glyph-name="tilde" unicode="&#x2dc;" horiz-adv-x="686" 
d="M61 1208v144q0 61 36 97t98 36q55 0 101 -27.5t71.5 -59.5t53.5 -59.5t50 -27.5q31 0 31 41v123h123v-144q0 -61 -36 -97t-97 -36q-55 0 -101.5 27.5t-72 59.5t-53 59.5t-50.5 27.5q-31 0 -31 -41v-123h-123z" />
    <glyph glyph-name="hungarumlaut" unicode="&#x2dd;" horiz-adv-x="706" 
d="M61 1208l164 277h133l-184 -277h-113zM348 1208l164 277h133l-184 -277h-113z" />
    <glyph glyph-name="uni0401" unicode="&#x401;" horiz-adv-x="1116" 
d="M195 0v1434h849v-93l-40 -41h-676v-501h522v-133h-522v-533h716v-133h-849zM369 1608v204h123v-204h-123zM737 1608v204h133v-204h-133z" />
    <glyph glyph-name="uni0402" unicode="&#x402;" horiz-adv-x="1402" 
d="M348 0v1300h-338v134h891v-93l-41 -41h-379v-430h492q137 0 222 -85t85 -222v-297q0 -139 -85 -223t-222 -84h-123v133h113q184 0 184 184v267q0 195 -184 194h-482v-737h-133z" />
    <glyph glyph-name="uni0403" unicode="&#x403;" horiz-adv-x="1013" 
d="M541 1577l174 276h143l-194 -276h-123zM195 0v1434h798v-93l-41 -41h-624v-1300h-133z" />
    <glyph glyph-name="uni0404" unicode="&#x404;" horiz-adv-x="1136" 
d="M164 307v819q0 139 84 223.5t223 84.5h594v-93l-41 -41h-543q-184 0 -184 -184v-328h532v-133h-532v-338q0 -184 184 -184h584v-133h-594q-139 0 -223 84t-84 223z" />
    <glyph glyph-name="uni0405" unicode="&#x405;" horiz-adv-x="1157" 
d="M113 0v133h614q184 0 184 184v134q0 147 -184 184l-348 72q-125 25 -195.5 105.5t-70.5 201.5v112q0 139 85 223.5t222 84.5h584v-93l-39 -41h-535q-184 0 -184 -184v-92q0 -147 184 -184l348 -72q125 -27 195.5 -106.5t70.5 -200.5v-154q0 -139 -83.5 -223t-223.5 -84
h-624z" />
    <glyph glyph-name="uni0406" unicode="&#x406;" horiz-adv-x="522" 
d="M195 0v1434h133v-1434h-133z" />
    <glyph glyph-name="uni0407" unicode="&#x407;" horiz-adv-x="522" 
d="M195 0v1434h133v-1434h-133zM10 1608v204h123v-204h-123zM379 1608v204h133v-204h-133z" />
    <glyph glyph-name="uni0408" unicode="&#x408;" horiz-adv-x="880" 
d="M20 -20v133h359q184 0 184 184v1137h133v-1147q0 -139 -84 -223t-223 -84h-369z" />
    <glyph glyph-name="uni0409" unicode="&#x409;" horiz-adv-x="2078" 
d="M0 -20v133h82q82 0 127 50t57 175l103 1096h778v-533h502q137 0 222 -84t85 -223v-287q0 -139 -85 -223t-222 -84h-635v1300h-522l-93 -983q-31 -338 -297 -337h-102zM1147 133h491q184 0 185 184v267q0 184 -185 184h-491v-635z" />
    <glyph glyph-name="uni040A" unicode="&#x40a;" horiz-adv-x="2088" 
d="M195 0v1434h133v-584h696v584h133v-584h502q139 0 223 -85t84 -222v-236q0 -139 -84 -223t-223 -84h-635v717h-696v-717h-133zM1157 133h492q184 0 184 184v215q0 184 -184 185h-492v-584z" />
    <glyph glyph-name="uni040B" unicode="&#x40b;" horiz-adv-x="1433" 
d="M348 0v1300h-338v134h891v-93l-41 -41h-379v-430h492q137 0 222 -85t85 -222v-563h-133v543q0 195 -184 194h-482v-737h-133z" />
    <glyph glyph-name="uni040C" unicode="&#x40c;" horiz-adv-x="1239" 
d="M195 0v1434h133v-635h348l368 635h113v-72l-369 -625l390 -665v-72h-123l-379 666h-348v-666h-133zM625 1577l174 276h143l-194 -276h-123z" />
    <glyph glyph-name="uni040E" unicode="&#x40e;" horiz-adv-x="1126" 
d="M266 1761v103h123v-82q0 -82 82 -82h205q82 0 82 82v82h123v-103q0 -84 -50.5 -134t-134.5 -50h-245q-84 0 -134.5 49t-50.5 135zM184 -20v133h82q158 0 236 194l20 51l-471 1004v72h113l424 -908h10l358 908h119v-72l-461 -1126q-102 -256 -327 -256h-103z" />
    <glyph glyph-name="uni040F" unicode="&#x40f;" horiz-adv-x="1341" 
d="M195 0v1434h133v-1303h686v1303h133v-1434h-410v-297h-133v297h-409z" />
    <glyph glyph-name="uni0410" unicode="&#x410;" horiz-adv-x="1208" 
d="M51 0v72l471 1362h164l471 -1362v-72h-123l-123 369h-614l-123 -369h-123zM338 502h532l-266 778z" />
    <glyph glyph-name="uni0411" unicode="&#x411;" horiz-adv-x="1269" 
d="M195 0v1434h860v-93l-41 -41h-686v-450h512q139 0 223 -85t84 -222v-236q0 -139 -84 -223t-223 -84h-645zM328 133h501q184 0 185 184v215q0 184 -185 185h-501v-584z" />
    <glyph glyph-name="uni0412" unicode="&#x412;" horiz-adv-x="1259" 
d="M328 133h481q184 0 184 184v175q0 184 -184 184h-481v-543zM195 0v1434h604q139 0 223 -84t84 -224v-102q0 -63 -18.5 -113.5t-43 -78t-50 -46t-44.5 -24.5l-18 -4v-10q8 -2 21.5 -5.5t46 -22t58 -46t47 -80.5t21.5 -123v-164q0 -139 -84 -223t-223 -84h-624zM328 809
h460q184 0 185 195v112q0 184 -185 184h-460v-491z" />
    <glyph glyph-name="uni0413" unicode="&#x413;" horiz-adv-x="1013" 
d="M195 0v1434h798v-93l-41 -41h-624v-1300h-133z" />
    <glyph glyph-name="uni0414" unicode="&#x414;" horiz-adv-x="1331" 
d="M0 -297v430h61q6 2 16.5 7t39 26.5t50 48.5t42 73t27.5 101l102 1045h778v-1301h164v-430h-133v297h-1014v-297h-133zM246 133h737v1167h-532l-82 -911q-8 -86 -39 -147.5t-58 -79.5l-26 -19v-10z" />
    <glyph glyph-name="uni0415" unicode="&#x415;" horiz-adv-x="1116" 
d="M195 0v1434h849v-93l-40 -41h-676v-501h522v-133h-522v-533h716v-133h-849z" />
    <glyph glyph-name="uni0416" unicode="&#x416;" horiz-adv-x="1894" 
d="M61 0v72l379 665l-358 625v72h113l358 -635h328v635h133v-635h327l359 635h112v-72l-358 -625l379 -665v-72h-123l-369 666h-327v-666h-133v666h-328l-369 -666h-123z" />
    <glyph glyph-name="uni0417" unicode="&#x417;" horiz-adv-x="1116" 
d="M61 0v133h594q184 0 185 184v164q0 195 -185 195h-327v133h307q184 0 184 195v112q0 184 -184 184h-522l-41 41v93h573q137 0 222 -84t85 -224v-102q0 -63 -16 -113.5t-41 -78t-49.5 -46t-40.5 -24.5l-17 -4v-10q8 -2 20.5 -6.5t44.5 -25t56.5 -49t44 -83t19.5 -123.5
v-154q0 -139 -85 -223t-222 -84h-605z" />
    <glyph glyph-name="uni0418" unicode="&#x418;" horiz-adv-x="1382" 
d="M195 0v1434h133v-1188h10l709 1188h141v-1434h-133v1188h-11l-710 -1188h-139z" />
    <glyph glyph-name="uni0419" unicode="&#x419;" horiz-adv-x="1382" 
d="M389 1761v103h123v-82q0 -82 82 -82h205q82 0 82 82v82h123v-103q0 -84 -50.5 -134t-134.5 -50h-246q-84 0 -134 49t-50 135zM195 0v1434h133v-1188h10l709 1188h141v-1434h-133v1188h-11l-710 -1188h-139z" />
    <glyph glyph-name="uni041A" unicode="&#x41a;" horiz-adv-x="1239" 
d="M195 0v1434h133v-635h348l368 635h113v-72l-369 -625l390 -665v-72h-123l-379 666h-348v-666h-133z" />
    <glyph glyph-name="uni041B" unicode="&#x41b;" horiz-adv-x="1341" 
d="M0 -20v133h82q82 0 127 50t57 175l103 1096h778v-1434h-133v1300h-522l-93 -983q-31 -338 -297 -337h-102z" />
    <glyph glyph-name="uni041C" unicode="&#x41c;" horiz-adv-x="1730" 
d="M123 0v72l164 1362h143l430 -1045h10l430 1045h144l164 -1362v-72h-133l-134 1178h-10l-399 -973h-133l-400 973h-10l-133 -1178h-133z" />
    <glyph glyph-name="uni041D" unicode="&#x41d;" horiz-adv-x="1361" 
d="M195 0v1434h133v-635h706v635h133v-1434h-133v666h-706v-666h-133z" />
    <glyph glyph-name="uni041E" unicode="&#x41e;" horiz-adv-x="1320" 
d="M164 287v860q0 139 84 223t223 84h379q137 0 222 -84t85 -223v-860q0 -139 -85 -223t-222 -84h-379q-139 0 -223 84t-84 223zM481 113h359q184 0 184 184v840q0 184 -184 184h-359q-184 0 -184 -184v-840q0 -184 184 -184z" />
    <glyph glyph-name="uni041F" unicode="&#x41f;" horiz-adv-x="1341" 
d="M195 0v1434h952v-1434h-133v1300h-686v-1300h-133z" />
    <glyph glyph-name="uni0420" unicode="&#x420;" horiz-adv-x="1269" 
d="M195 0v1434h645q139 0 223 -84t84 -224v-327q0 -139 -84 -223t-223 -84h-512v-492h-133zM328 625h501q184 0 185 184v307q0 184 -185 184h-501v-675z" />
    <glyph glyph-name="uni0421" unicode="&#x421;" horiz-adv-x="1136" 
d="M164 307v819q0 139 84 223.5t223 84.5h594v-93l-41 -41h-543q-184 0 -184 -184v-799q0 -184 184 -184h584v-133h-594q-139 0 -223 84t-84 223z" />
    <glyph glyph-name="uni0422" unicode="&#x422;" horiz-adv-x="1034" 
d="M451 0v1300h-431v134h994v-93l-41 -41h-389v-1300h-133z" />
    <glyph glyph-name="uni0423" unicode="&#x423;" horiz-adv-x="1126" 
d="M184 -20v133h82q158 0 236 194l20 51l-471 1004v72h113l424 -908h10l358 908h119v-72l-461 -1126q-102 -256 -327 -256h-103z" />
    <glyph glyph-name="uni0424" unicode="&#x424;" horiz-adv-x="1669" 
d="M461 236h307v983h-307q-184 0 -185 -185v-614q1 -184 185 -184zM901 236h307q184 0 185 184v614q0 184 -185 185h-307v-983zM143 410v634q0 139 84 223.5t224 84.5h317v164h133v-164h318q137 0 222 -84t85 -224v-634q0 -139 -85 -223.5t-222 -84.5h-318v-163h-133v163
h-317q-139 0 -223.5 84.5t-84.5 223.5z" />
    <glyph glyph-name="uni0425" unicode="&#x425;" 
d="M51 0v72l400 665l-359 625v72h113l338 -615h10l338 615h113v-72l-359 -625l399 -665v-72h-112l-379 655h-10l-379 -655h-113z" />
    <glyph glyph-name="uni0426" unicode="&#x426;" horiz-adv-x="1351" 
d="M195 0v1434h133v-1301h686v1301h133v-1301h164v-430h-133v297h-983z" />
    <glyph glyph-name="uni0427" unicode="&#x427;" horiz-adv-x="1290" 
d="M963 0v532h-492q-139 0 -223 84t-84 224v594h133v-574q0 -92 51 -143t144 -51h471v768h133v-1434h-133z" />
    <glyph glyph-name="uni0428" unicode="&#x428;" horiz-adv-x="1945" 
d="M195 0v1434h133v-1301h573v1301h133v-1301h574v1301h133v-1434h-1546z" />
    <glyph glyph-name="uni0429" unicode="&#x429;" horiz-adv-x="1945" 
d="M195 0v1434h133v-1301h573v1301h133v-1301h574v1301h133v-1301h164v-430h-133v297h-1577z" />
    <glyph glyph-name="uni042A" unicode="&#x42a;" horiz-adv-x="1392" 
d="M328 0v1300h-318v134h451v-533h502q139 0 223 -84t84 -223v-287q0 -139 -84 -223t-223 -84h-635zM461 133h491q184 0 185 184v267q0 184 -185 184h-491v-635z" />
    <glyph glyph-name="uni042B" unicode="&#x42b;" horiz-adv-x="1699" 
d="M1372 0v1434h133v-1434h-133zM195 0v1434h133v-533h501q137 0 222.5 -84t85.5 -223v-287q0 -139 -85 -223t-223 -84h-634zM328 133h491q184 0 185 184v267q0 184 -185 184h-491v-635z" />
    <glyph glyph-name="uni042C" unicode="&#x42c;" horiz-adv-x="1269" 
d="M195 0v1434h133v-533h512q139 0 223 -84t84 -223v-287q0 -139 -84 -223t-223 -84h-645zM328 133h501q184 0 185 184v267q0 184 -185 184h-501v-635z" />
    <glyph glyph-name="uni042D" unicode="&#x42d;" horiz-adv-x="1116" 
d="M61 0v133h584q184 0 184 184v338h-532v133h532v328q0 184 -184 184h-543l-41 41v93h594q139 0 223.5 -84t84.5 -224v-819q0 -139 -84 -223t-224 -84h-594z" />
    <glyph glyph-name="uni042E" unicode="&#x42e;" horiz-adv-x="1781" 
d="M195 0v1434h133v-646h348v359q0 139 84 223t223 84h328q139 0 223 -84t84 -223v-860q0 -139 -84 -223t-223 -84h-328q-139 0 -223 83.5t-84 223.5v368h-348v-655h-133zM993 113h307q86 0 135.5 47t49.5 137v840q0 90 -49.5 137t-135.5 47h-307q-184 0 -184 -184v-840
q0 -184 184 -184z" />
    <glyph glyph-name="uni042F" unicode="&#x42f;" horiz-adv-x="1269" 
d="M92 0v72l318 501q-10 0 -30 3.5t-67 21.5t-83.5 47t-66.5 88.5t-30 136.5v256q0 139 85 223.5t222 84.5h635v-1434h-133v563h-399l-328 -563h-123zM451 696h491v604h-491q-184 0 -185 -184v-235q0 -86 47.5 -135.5t137.5 -49.5z" />
    <glyph glyph-name="uni0430" unicode="&#x430;" horiz-adv-x="1013" 
d="M92 246v94q0 115 76 189.5t190 74.5h369v133q0 68 -37 106t-106 38h-410v133h420q115 0 190.5 -76t75.5 -190v-748h-92l-31 102h-10q-2 -4 -7 -13t-25.5 -29.5t-45 -37t-66.5 -29.5t-91 -13h-134q-115 0 -190.5 75.5t-75.5 190.5zM369 113h143q100 0 157.5 57t57.5 158
v143h-358q-143 0 -144 -143v-72q1 -143 144 -143z" />
    <glyph glyph-name="uni0431" unicode="&#x431;" 
d="M430 113h266q143 0 144 143v389q0 143 -144 143h-194q-100 0 -157.5 -57t-57.5 -158v-317q0 -143 143 -143zM154 246v737q0 156 73.5 246t202.5 112l483 82l29 -133l-481 -82q-80 -14 -127 -71.5t-47 -153.5v-184h10q2 4 7 13t25.5 29.5t45 37t66.5 30t91 13.5h175
q115 0 190.5 -76t75.5 -191v-409q0 -115 -76 -190.5t-190 -75.5h-287q-115 0 -190.5 75.5t-75.5 190.5z" />
    <glyph glyph-name="uni0432" unicode="&#x432;" horiz-adv-x="1024" 
d="M287 573h338q143 0 143 154t-143 154h-338v-308zM287 133h358q143 0 143 153.5t-143 153.5h-358v-307zM154 0v1014h481q115 0 190.5 -76t75.5 -190q0 -49 -13.5 -90.5t-32.5 -65t-39.5 -40.5t-33.5 -24l-14 -6v-10q6 -2 16.5 -7t37 -23.5t47 -44t37 -70.5t16.5 -101
q0 -115 -76 -190.5t-191 -75.5h-501z" />
    <glyph glyph-name="uni0433" unicode="&#x433;" horiz-adv-x="798" 
d="M154 0v1014h624v-90l-41 -43h-450v-881h-133z" />
    <glyph glyph-name="uni0434" unicode="&#x434;" 
d="M0 -256v389h61q6 2 14.5 6t31 22.5t41 42t36 64.5t21.5 90l61 656h645v-881h133v-389h-133v256h-778v-256h-133zM236 133h542v748h-389l-51 -523q-8 -78 -33.5 -131t-46.5 -67l-22 -17v-10z" />
    <glyph glyph-name="uni0435" unicode="&#x435;" horiz-adv-x="1054" 
d="M123 266v502q0 115 75.5 190.5t190.5 75.5h277q115 0 190.5 -75.5t75.5 -190.5v-348h-676v-144q0 -143 143 -143h492v-133h-502q-115 0 -190.5 75.5t-75.5 190.5zM256 553h543v205q0 143 -144 143h-256q-143 0 -143 -143v-205z" />
    <glyph glyph-name="uni0436" unicode="&#x436;" horiz-adv-x="1505" 
d="M61 0v72l277 460l-256 410v72h102l267 -430h235v430h133v-430h236l266 430h102v-72l-256 -410l277 -460v-72h-113l-266 451h-246v-451h-133v451h-246l-266 -451h-113z" />
    <glyph glyph-name="uni0437" unicode="&#x437;" horiz-adv-x="921" 
d="M61 0v133h482q143 0 143 143v31q0 143 -143 144h-256v133h235q143 0 144 143v10q0 143 -144 144h-399l-41 41v92h450q115 0 191 -76t76 -190v-31q0 -63 -33 -109.5t-66 -60.5l-34 -15v-10q6 -2 16 -6t36.5 -22.5t47 -42t37 -64.5t16.5 -90v-31q0 -117 -74.5 -191.5
t-191.5 -74.5h-492z" />
    <glyph glyph-name="uni0438" unicode="&#x438;" horiz-adv-x="1116" 
d="M154 0v1014h133v-789h10l522 789h144v-1014h-134v788h-10l-522 -788h-143z" />
    <glyph glyph-name="uni0439" unicode="&#x439;" horiz-adv-x="1116" 
d="M289 1395v92h123v-72q0 -82 82 -82h143q82 0 82 82v72h123v-92q0 -84 -50.5 -134.5t-134.5 -50.5h-184q-84 0 -134 49.5t-50 135.5zM154 0v1014h133v-789h10l522 789h144v-1014h-134v788h-10l-522 -788h-143z" />
    <glyph glyph-name="uni043A" unicode="&#x43a;" horiz-adv-x="993" 
d="M154 0v1014h133v-430h266l256 430h102v-72l-245 -410l266 -460v-72h-113l-256 451h-276v-451h-133z" />
    <glyph glyph-name="uni043B" unicode="&#x43b;" 
d="M0 -20v133h61q139 0 154 163l72 738h645v-1014h-133v881h-389l-62 -605q-14 -143 -86 -219.5t-180 -76.5h-82z" />
    <glyph glyph-name="uni043C" unicode="&#x43c;" horiz-adv-x="1361" 
d="M123 0v72l102 942h154l297 -686h10l297 686h154l102 -942v-72h-133l-72 799h-10l-287 -656h-112l-287 656h-10l-72 -799h-133z" />
    <glyph glyph-name="uni043D" unicode="&#x43d;" 
d="M154 0v1014h133v-430h522v430h133v-1014h-133v451h-522v-451h-133z" />
    <glyph glyph-name="uni043E" unicode="&#x43e;" horiz-adv-x="1075" 
d="M123 246v522q0 115 75.5 190.5t190.5 75.5h297q115 0 190.5 -75.5t75.5 -190.5v-522q0 -115 -75.5 -190.5t-190.5 -75.5h-297q-115 0 -190.5 75.5t-75.5 190.5zM399 113h277q143 0 143 143v502q0 143 -143 143h-277q-143 0 -143 -143v-502q0 -143 143 -143z" />
    <glyph glyph-name="uni043F" unicode="&#x43f;" 
d="M154 0v1014h788v-1014h-133v881h-522v-881h-133z" />
    <glyph glyph-name="uni0440" unicode="&#x440;" horiz-adv-x="1085" 
d="M154 -348v1362h92l30 -103h11q2 4 7 13.5t25.5 30t45 37t66.5 29.5t91 13h174q115 0 191 -75.5t76 -190.5v-502q0 -115 -76 -190.5t-191 -75.5h-409v-348h-133zM287 133h399q143 0 143 143v482q0 143 -143 143h-184q-100 0 -157.5 -57.5t-57.5 -157.5v-553z" />
    <glyph glyph-name="uni0441" unicode="&#x441;" horiz-adv-x="901" 
d="M123 266v482q0 115 75.5 190.5t190.5 75.5h440v-92l-41 -41h-389q-143 0 -143 -144v-461q0 -143 143 -143h430v-133h-440q-115 0 -190.5 75.5t-75.5 190.5z" />
    <glyph glyph-name="uni0442" unicode="&#x442;" horiz-adv-x="829" 
d="M348 0v881h-328v133h789v-92l-41 -41h-287v-881h-133z" />
    <glyph glyph-name="uni0443" unicode="&#x443;" horiz-adv-x="931" 
d="M143 -348v133h93q72 0 110.5 38t73.5 146l10 31v20l-389 920v74h123l328 -819h10l266 819h123v-72l-338 -973q-61 -176 -132 -246.5t-185 -70.5h-93z" />
    <glyph glyph-name="uni0444" unicode="&#x444;" horiz-adv-x="1423" 
d="M645 -348v348h-256q-115 0 -190.5 76t-75.5 190v482q0 115 75.5 190.5t190.5 75.5h256v368h133v-368h256q115 0 190.5 -76t75.5 -190v-482q0 -115 -75.5 -190.5t-190.5 -75.5h-256v-348h-133zM778 133h246q143 0 143 143v461q0 143 -143 144h-246v-748zM399 133h246v748
h-246q-143 0 -143 -144v-461q0 -143 143 -143z" />
    <glyph glyph-name="uni0445" unicode="&#x445;" horiz-adv-x="890" 
d="M41 0v72l307 440l-276 430v72h118l250 -410h11l249 410h119v-72l-276 -420l307 -450v-72h-115l-284 430h-11l-284 -430h-115z" />
    <glyph glyph-name="uni0446" unicode="&#x446;" horiz-adv-x="1105" 
d="M154 0v1014h133v-881h501v881h134v-881h133v-389h-133v256h-768z" />
    <glyph glyph-name="uni0447" unicode="&#x447;" horiz-adv-x="1054" 
d="M758 0v379h-348q-115 0 -191 75.5t-76 190.5v369h133v-348q0 -70 42 -112t112 -42h328v502h133v-1014h-133z" />
    <glyph glyph-name="uni0448" unicode="&#x448;" horiz-adv-x="1546" 
d="M154 0v1014h133v-883h420v883h133v-883h420v883h133v-1014h-1239z" />
    <glyph glyph-name="uni0449" unicode="&#x449;" horiz-adv-x="1576" 
d="M154 0v1014h133v-883h420v883h133v-883h420v883h133v-883h133v-387h-133v256h-1239z" />
    <glyph glyph-name="uni044A" unicode="&#x44a;" 
d="M276 0v881h-266v133h400v-348h327q115 0 191 -76t76 -191v-133q0 -115 -76 -190.5t-191 -75.5h-461zM410 133h317q143 0 143 143v113q0 63 -37.5 103t-105.5 40h-317v-399z" />
    <glyph glyph-name="uni044B" unicode="&#x44b;" horiz-adv-x="1361" 
d="M1075 0v1014h133v-1014h-133zM154 0v1014h133v-348h327q115 0 191 -76t76 -191v-133q0 -115 -76 -190.5t-191 -75.5h-460zM287 133h317q143 0 144 143v113q0 143 -144 143h-317v-399z" />
    <glyph glyph-name="uni044C" unicode="&#x44c;" horiz-adv-x="993" 
d="M154 0v1014h133v-348h348q115 0 190.5 -76t75.5 -191v-133q0 -115 -75.5 -190.5t-190.5 -75.5h-481zM287 133h338q143 0 143 143v113q0 143 -143 143h-338v-399z" />
    <glyph glyph-name="uni044D" unicode="&#x44d;" horiz-adv-x="890" 
d="M61 0v133h431q143 0 143 143v175h-359v133h359v153q0 143 -143 144h-390l-41 41v92h441q115 0 190.5 -76t75.5 -190v-482q0 -115 -76 -190.5t-190 -75.5h-441z" />
    <glyph glyph-name="uni044E" unicode="&#x44e;" horiz-adv-x="1413" 
d="M154 0v1014h133v-430h215v184q0 115 75.5 190.5t190.5 75.5h256q115 0 190.5 -75.5t75.5 -190.5v-522q0 -115 -75.5 -190.5t-190.5 -75.5h-256q-115 0 -190.5 75.5t-75.5 190.5v205h-215v-451h-133zM778 113h236q143 0 143 143v502q0 143 -143 143h-236q-143 0 -143 -143
v-502q0 -143 143 -143z" />
    <glyph glyph-name="uni044F" unicode="&#x44f;" horiz-adv-x="1024" 
d="M82 0v72l215 317q-6 2 -18.5 6t-42 21.5t-53 42t-42 72t-18.5 104.5v113q0 115 75.5 190.5t190.5 75.5h481v-1014h-133v358h-307l-235 -358h-113zM399 492h338v389h-338q-143 0 -143 -144v-92q0 -153 143 -153z" />
    <glyph glyph-name="uni0451" unicode="&#x451;" horiz-adv-x="1054" 
d="M272 1249v205h123v-205h-123zM641 1249v205h133v-205h-133zM123 266v502q0 115 76 190q76 76 190 76h277q115 0 190 -76q76 -76 76 -190v-348h-676v-144q0 -143 143 -143h492v-133h-502q-115 0 -190 76q-76 75 -76 190zM256 553h543v205q0 143 -144 143h-256
q-143 0 -143 -143v-205z" />
    <glyph glyph-name="uni0452" unicode="&#x452;" 
d="M184 0v1014h-164v123h175l30 245h92v-245h287v-123h-287v-185h379q115 0 191 -75.5t76 -190.5v-422q0 -115 -76 -189.5t-191 -74.5h-112v131h102q70 0 106.5 38t36.5 108v399q0 143 -143 143h-369v-696h-133z" />
    <glyph glyph-name="uni0453" unicode="&#x453;" horiz-adv-x="798" 
d="M416 1208l174 277h143l-205 -277h-112zM154 0v1014h624v-90l-41 -43h-450v-881h-133z" />
    <glyph glyph-name="uni0454" unicode="&#x454;" horiz-adv-x="901" 
d="M123 266v482q0 115 75.5 190.5t190.5 75.5h440v-92l-41 -41h-389q-143 0 -143 -144v-153h358v-133h-358v-175q0 -143 143 -143h430v-133h-440q-115 0 -190.5 75.5t-75.5 190.5z" />
    <glyph glyph-name="uni0455" unicode="&#x455;" horiz-adv-x="901" 
d="M82 0v133h461q143 0 143 143q0 61 -32.5 94t-110.5 50l-236 51q-106 23 -165.5 88.5t-59.5 157.5v31q0 123 71.5 194.5t194.5 71.5h440v-92l-40 -41h-390q-143 0 -143 -144q0 -63 28.5 -95t104.5 -48l236 -51q109 -23 172 -88.5t63 -157.5v-31q0 -123 -71.5 -194.5
t-194.5 -71.5h-471z" />
    <glyph glyph-name="uni0456" unicode="&#x456;" horiz-adv-x="440" 
d="M154 0v1014h133v-1014h-133zM154 1196v207h133v-207h-133z" />
    <glyph glyph-name="uni0457" unicode="&#x457;" horiz-adv-x="440" 
d="M154 0v1014h133v-1014h-133zM-31 1249v205h123v-205h-123zM338 1249v205h133v-205h-133z" />
    <glyph glyph-name="uni0458" unicode="&#x458;" horiz-adv-x="450" 
d="M-82 -348v133h102q143 0 144 143v1086h133v-1096q0 -115 -76 -190.5t-190 -75.5h-113zM164 1198v205h133v-205h-133z" />
    <glyph glyph-name="uni0459" unicode="&#x459;" horiz-adv-x="1607" 
d="M0 -20v133h61q139 0 154 163l72 738h635v-348h327q115 0 191 -76t76 -191v-133q0 -115 -76 -190.5t-191 -75.5h-461v881h-378l-62 -605q-14 -143 -86 -219.5t-180 -76.5h-82zM922 133h317q143 0 143 143v113q0 143 -143 143h-317v-399z" />
    <glyph glyph-name="uni045A" unicode="&#x45a;" horiz-adv-x="1597" 
d="M154 0v1014h133v-389h491v389h133v-389h328q115 0 190.5 -76t75.5 -191v-92q0 -115 -75.5 -190.5t-190.5 -75.5h-461v492h-491v-492h-133zM911 133h318q143 0 143 143v72q0 143 -143 144h-318v-359z" />
    <glyph glyph-name="uni045B" unicode="&#x45b;" horiz-adv-x="1116" 
d="M184 0v1014h-164v123h175l30 245h92v-245h287v-123h-287v-185h379q115 0 191 -75.5t76 -190.5v-563h-134v553q0 143 -143 143h-369v-696h-133z" />
    <glyph glyph-name="uni045C" unicode="&#x45c;" horiz-adv-x="993" 
d="M481 1208l174 277h144l-205 -277h-113zM154 0v1014h133v-430h266l256 430h102v-72l-245 -410l266 -460v-72h-113l-256 451h-276v-451h-133z" />
    <glyph glyph-name="uni045E" unicode="&#x45e;" horiz-adv-x="931" 
d="M143 -348v133h93q72 0 110.5 38t73.5 146l10 31v20l-389 920v74h123l328 -819h10l266 819h123v-72l-338 -973q-61 -176 -132 -246.5t-185 -70.5h-93zM205 1393v92h123v-72q0 -82 82 -82h143q82 0 82 82v72h123v-92q0 -84 -50.5 -134.5t-134.5 -50.5h-184q-84 0 -134 49.5
t-50 135.5z" />
    <glyph glyph-name="uni045F" unicode="&#x45f;" 
d="M154 0v1014h133v-881h522v881h133v-1014h-328v-256h-133v256h-327z" />
    <glyph glyph-name="uni0490" unicode="&#x490;" horiz-adv-x="1024" 
d="M195 0v1434h675l21 184h113v-318h-676v-1300h-133z" />
    <glyph glyph-name="uni0491" unicode="&#x491;" horiz-adv-x="798" 
d="M154 0v1014h491l31 174h102v-307h-491v-881h-133z" />
    <glyph glyph-name="uni1E9E" unicode="&#x1e9e;" horiz-adv-x="1280" 
d="M174 0v1126q0 139 85 223.5t222 84.5h604v-134l-337 -481v-10h102q131 0 219 -88t88 -219v-195q0 -139 -85 -223t-222 -84h-225v133h215q84 0 134 50t50 134v164q0 92 -49 143.5t-135 51.5h-246v133l338 481v10h-440q-184 0 -185 -184v-1116h-133z" />
    <glyph glyph-name="endash" unicode="&#x2013;" 
d="M82 573v123h932v-123h-932z" />
    <glyph glyph-name="emdash" unicode="&#x2014;" horiz-adv-x="1679" 
d="M82 573v123h1515v-123h-1515z" />
    <glyph glyph-name="quoteleft" unicode="&#x2018;" horiz-adv-x="378" 
d="M123 1044v162l72 289h61v-451h-133z" />
    <glyph glyph-name="quoteright" unicode="&#x2019;" horiz-adv-x="378" 
d="M123 983v451h133v-162l-72 -289h-61z" />
    <glyph glyph-name="quotesinglbase" unicode="&#x201a;" horiz-adv-x="389" 
d="M133 -256v451h133v-164l-71 -287h-62z" />
    <glyph glyph-name="quotedblleft" unicode="&#x201c;" horiz-adv-x="665" 
d="M123 1044v162l72 289h61v-451h-133zM410 1044v162l71 289h62v-451h-133z" />
    <glyph glyph-name="quotedblright" unicode="&#x201d;" horiz-adv-x="665" 
d="M123 983v451h133v-162l-72 -289h-61zM410 983v451h133v-162l-72 -289h-61z" />
    <glyph glyph-name="quotedblbase" unicode="&#x201e;" horiz-adv-x="665" 
d="M123 -256v451h133v-164l-72 -287h-61zM410 -256v451h133v-164l-72 -287h-61z" />
    <glyph glyph-name="dagger" unicode="&#x2020;" horiz-adv-x="952" 
d="M410 -348v1218h-349v144h349l30 461h72l31 -461h348v-144h-348v-1218h-133z" />
    <glyph glyph-name="daggerdbl" unicode="&#x2021;" horiz-adv-x="952" 
d="M440 -389l-30 389h-349v133h349v819h-349v133h349l30 390h72l31 -390h348v-133h-348v-819h348v-133h-348l-31 -389h-72z" />
    <glyph glyph-name="bullet" unicode="&#x2022;" horiz-adv-x="716" 
d="M246 604v51q0 92 92 93h41q92 0 92 -93v-51q0 -92 -92 -92h-41q-92 0 -92 92z" />
    <glyph glyph-name="ellipsis" unicode="&#x2026;" horiz-adv-x="1280" 
d="M123 0v195h133v-195h-133zM1024 0v195h133v-195h-133zM573 0v195h134v-195h-134z" />
    <glyph glyph-name="perthousand" unicode="&#x2030;" horiz-adv-x="2160" 
d="M72 983v246q0 100 62.5 162.5t162.5 62.5h92q100 0 162.5 -62.5t62.5 -162.5v-246q0 -100 -62.5 -162.5t-162.5 -62.5h-92q-100 0 -162.5 62.5t-62.5 162.5zM276 0v72l830 1362h92v-72l-829 -1362h-93zM307 870h72q113 0 113 113v246q0 113 -113 112h-72
q-113 0 -112 -112v-246q-1 -113 112 -113zM860 205v246q0 100 62.5 162.5t162.5 62.5h93q100 0 162.5 -62.5t62.5 -162.5v-246q0 -100 -62.5 -162.5t-162.5 -62.5h-93q-100 0 -162.5 62.5t-62.5 162.5zM1096 92h71q113 0 113 113v246q0 113 -113 112h-71q-113 0 -113 -112
v-246q0 -113 113 -113zM1546 205v246q0 100 62.5 162.5t163.5 62.5h92q100 0 162.5 -62.5t62.5 -162.5v-246q0 -100 -62.5 -162.5t-162.5 -62.5h-92q-100 0 -163 62.5t-63 162.5zM1782 92h71q113 0 113 113v246q0 113 -113 112h-71q-113 0 -113 -112v-246q0 -113 113 -113z
" />
    <glyph glyph-name="guilsinglleft" unicode="&#x2039;" horiz-adv-x="655" 
d="M430 92l-317 440l317 441h102v-72l-266 -369l266 -368v-72h-102z" />
    <glyph glyph-name="guilsinglright" unicode="&#x203a;" horiz-adv-x="655" 
d="M123 92v72l266 368l-266 369v72h102l318 -441l-318 -440h-102z" />
    <glyph glyph-name="fraction" unicode="&#x2044;" horiz-adv-x="307" 
d="M-307 0v70l829 1364h92v-70l-829 -1364h-92z" />
    <glyph glyph-name="uni2070" unicode="&#x2070;" horiz-adv-x="665" 
d="M61 1106v348q0 84 55.5 139.5t139.5 55.5h154q84 0 139 -55.5t55 -139.5v-348q0 -84 -55 -139.5t-139 -55.5h-154q-84 0 -139.5 55.5t-55.5 139.5zM270 1022h123q98 0 99 94v328q0 92 -99 92h-127q-92 0 -92 -92v-328q0 -94 96 -94z" />
    <glyph glyph-name="uni2074" unicode="&#x2074;" horiz-adv-x="665" 
d="M10 1096v112l277 430h92v-51l-236 -368v-11h236v226h113v-226h112v-112h-112v-174h-113v174h-369z" />
    <glyph glyph-name="uni2075" unicode="&#x2075;" horiz-adv-x="604" 
d="M41 922v112h307q92 0 92 92v33q0 90 -92 90h-297v389h481v-71l-40 -41h-328v-164h194q84 0 139.5 -55.5t55.5 -139.5v-51q0 -84 -55.5 -139t-139.5 -55h-317z" />
    <glyph glyph-name="uni2076" unicode="&#x2076;" horiz-adv-x="634" 
d="M51 1106v61q0 74 62 164l204 307h103v-30l-164 -246v-10h143q84 0 139.5 -54.5t55.5 -138.5v-53q0 -84 -55.5 -139.5t-139.5 -55.5h-153q-84 0 -139.5 55.5t-55.5 139.5zM256 1022h133q92 0 92 94v31q0 92 -92 92h-133q-92 0 -92 -92v-31q0 -94 92 -94z" />
    <glyph glyph-name="uni2077" unicode="&#x2077;" horiz-adv-x="583" 
d="M174 922v51l256 543v12h-379v110h512v-100l-276 -616h-113z" />
    <glyph glyph-name="uni2078" unicode="&#x2078;" horiz-adv-x="665" 
d="M266 1022h133q102 0 103 104v11q0 53 -24.5 77.5t-78.5 24.5h-133q-53 0 -77.5 -24.5t-24.5 -77.5v-11q0 -104 102 -104zM51 1106v20q0 35 10.5 65t25.5 47t30.5 29.5t25.5 18.5l11 4v10q-8 4 -22.5 12.5t-37 45.5t-22.5 86v20q0 76 54 130.5t130 54.5h154
q78 0 131 -54.5t53 -130.5v-20q0 -49 -20.5 -85t-41.5 -48l-20 -11v-10q4 -2 11 -5t24.5 -17.5t31 -30.5t24.5 -46t11 -65v-20q0 -84 -55 -139.5t-139 -55.5h-174q-84 0 -139.5 55.5t-55.5 139.5zM276 1341h113q92 0 92 93v10q0 92 -92 92h-113q-92 0 -92 -92v-10
q0 -93 92 -93z" />
    <glyph glyph-name="uni2079" unicode="&#x2079;" horiz-adv-x="634" 
d="M225 922v30l164 246v10h-143q-84 0 -139.5 54.5t-55.5 138.5v53q0 84 55.5 139.5t139.5 55.5h153q84 0 139.5 -55.5t55.5 -139.5v-61q0 -74 -62 -164l-204 -307h-103zM256 1321h133q92 0 92 92v31q0 94 -92 94h-133q-92 0 -92 -94v-31q0 -92 92 -92z" />
    <glyph glyph-name="uni2080" unicode="&#x2080;" horiz-adv-x="665" 
d="M61 -20v348q0 84 55.5 139t139.5 55h154q84 0 139 -55t55 -139v-348q0 -84 -55 -139.5t-139 -55.5h-154q-84 0 -139.5 55.5t-55.5 139.5zM270 -104h123q98 0 99 94v327q0 92 -99 93h-127q-92 0 -92 -93v-327q0 -94 96 -94z" />
    <glyph glyph-name="uni2081" unicode="&#x2081;" horiz-adv-x="512" 
d="M72 -205v113h143v430h-133v102h133v82h113v-614h143v-113h-399z" />
    <glyph glyph-name="uni2082" unicode="&#x2082;" horiz-adv-x="655" 
d="M61 -205v113l318 235q82 61 82 144v20q0 92 -92 92h-256l-41 41v72h307q84 0 139 -55.5t55 -139.5v-20q0 -84 -30.5 -131t-91.5 -94l-205 -154v-10h327v-113h-512z" />
    <glyph glyph-name="uni2083" unicode="&#x2083;" horiz-adv-x="624" 
d="M41 -205v113h317q92 0 93 92v10q0 92 -103 92h-153v103l184 184v10h-297l-41 41v72h502v-100l-185 -187v-10q92 0 148.5 -54.5t56.5 -140.5v-30q0 -84 -55 -139.5t-139 -55.5h-328z" />
    <glyph glyph-name="uni2084" unicode="&#x2084;" horiz-adv-x="665" 
d="M10 -31v113l277 430h92v-51l-236 -369v-10h236v225h113v-225h112v-113h-112v-174h-113v174h-369z" />
    <glyph glyph-name="uni2085" unicode="&#x2085;" horiz-adv-x="604" 
d="M41 -205v113h307q92 0 92 92v33q0 90 -92 90h-297v389h481v-72l-40 -41h-328v-163h194q84 0 139.5 -55.5t55.5 -139.5v-51q0 -84 -55.5 -139.5t-139.5 -55.5h-317z" />
    <glyph glyph-name="uni2086" unicode="&#x2086;" horiz-adv-x="634" 
d="M51 -20v61q0 74 62 164l204 307h103v-31l-164 -245v-11h143q84 0 139.5 -54t55.5 -138v-53q0 -84 -55.5 -139.5t-139.5 -55.5h-153q-84 0 -139.5 55.5t-55.5 139.5zM256 -104h133q92 0 92 94v30q0 92 -92 93h-133q-92 0 -92 -93v-30q0 -94 92 -94z" />
    <glyph glyph-name="uni2087" unicode="&#x2087;" horiz-adv-x="583" 
d="M174 -205v51l256 543v12h-379v111h512v-100l-276 -617h-113z" />
    <glyph glyph-name="uni2088" unicode="&#x2088;" horiz-adv-x="665" 
d="M266 -104h133q102 0 103 104v10q0 53 -24.5 78t-78.5 25h-133q-53 0 -77.5 -25t-24.5 -78v-10q0 -104 102 -104zM51 -20v20q0 35 10.5 64.5t25.5 47t30.5 30t25.5 18.5l11 4v10q-8 4 -22.5 12.5t-37 45t-22.5 85.5v21q0 76 54 130t130 54h154q78 0 131 -54t53 -130v-21
q0 -49 -20.5 -84.5t-41.5 -48.5l-20 -10v-10q4 -2 11 -5t24.5 -17.5t31 -31t24.5 -46t11 -64.5v-20q0 -84 -55 -139.5t-139 -55.5h-174q-84 0 -139.5 55.5t-55.5 139.5zM276 215h113q92 0 92 92v10q0 92 -92 93h-113q-92 0 -92 -93v-10q0 -92 92 -92z" />
    <glyph glyph-name="uni2089" unicode="&#x2089;" horiz-adv-x="634" 
d="M225 -205v31l164 246v10h-143q-84 0 -139.5 54t-55.5 138v54q0 84 55.5 139t139.5 55h153q84 0 139.5 -55t55.5 -139v-62q0 -74 -62 -164l-204 -307h-103zM256 195h133q92 0 92 92v30q0 94 -92 95h-133q-92 0 -92 -95v-30q0 -92 92 -92z" />
    <glyph glyph-name="Euro" unicode="&#x20ac;" horiz-adv-x="1167" 
d="M195 307v174h-144v133h144v205h-144v133h144v174q0 139 85 223.5t222 84.5h594v-93l-41 -41h-543q-184 0 -184 -184v-164h563l-31 -133h-532v-205h501l-30 -133h-471v-164q0 -184 184 -184h584v-133h-594q-137 0 -222 84t-85 223z" />
    <glyph glyph-name="uni20B4" unicode="&#x20b4;" horiz-adv-x="1249" 
d="M82 799v133h799q31 41 30 102v82q0 84 -50 134t-134 50h-461l-41 41v93h512q139 0 223 -84t84 -224v-92q0 -27 -8 -52.5t-16 -37.5l-6 -12h153v-133h-1085zM205 307v92q0 27 8 52.5t16 37.5l7 13h-154v133h1085v-133h-798q-31 -41 -31 -103v-82q0 -84 50 -134t134 -50
h563v-133h-573q-139 0 -223 84t-84 223z" />
    <glyph glyph-name="uni20BD" unicode="&#x20bd;" horiz-adv-x="1269" 
d="M205 0v276h-144v134h144v194h-144v133h144v697h635q139 0 223 -84t84 -224v-215q0 -137 -84 -222t-223 -85h-502v-194h614v-134h-614v-276h-133zM338 737h491q184 0 185 185v194q0 184 -185 184h-491v-563z" />
    <glyph glyph-name="uni2116" unicode="&#x2116;" horiz-adv-x="2048" 
d="M1362 307v113h553v-113h-553zM1362 799v184q0 100 62.5 162.5t162.5 62.5h103q100 0 162.5 -62.5t62.5 -162.5v-184q0 -100 -62.5 -163t-162.5 -63h-103q-100 0 -162.5 63t-62.5 163zM1597 686h82q113 0 113 113v184q0 113 -113 113h-82q-113 0 -112 -113v-184
q-1 -113 112 -113zM195 0v1434h153l686 -1188h10v1188h134v-1434h-154l-686 1188h-10v-1188h-133z" />
    <glyph glyph-name="trademark" unicode="&#x2122;" horiz-adv-x="1566" 
d="M666 717v51l82 666h122l185 -471h10l184 471h123l80 -666v-51h-113l-49 522h-10l-164 -420h-112l-164 420h-11l-51 -522h-112zM266 717v604h-246v113h605v-72l-41 -41h-205v-604h-113z" />
    <glyph glyph-name="minus" unicode="&#x2212;" horiz-adv-x="1003" 
d="M82 594v123h840v-123h-840z" />
    <glyph glyph-name="uniF6C3" unicode="&#xf6c3;" horiz-adv-x="245" 
d="M61 -563v420h123v-174l-61 -246h-62z" />
    <glyph glyph-name="uniF6C9" unicode="&#xf6c9;" horiz-adv-x="440" 
d="M61 1577l175 276h143l-195 -276h-123z" />
    <glyph glyph-name="uniF6CA" unicode="&#xf6ca;" horiz-adv-x="665" 
d="M266 1577l-205 276h123l144 -184h10l143 184h123l-205 -276h-133z" />
    <glyph glyph-name="uniF6CB" unicode="&#xf6cb;" horiz-adv-x="624" 
d="M61 1608v204h123v-204h-123zM430 1608v204h133v-204h-133z" />
    <glyph glyph-name="uniF6CE" unicode="&#xf6ce;" horiz-adv-x="440" 
d="M256 1577l-195 276h144l174 -276h-123z" />
    <glyph glyph-name="uniF6CF" unicode="&#xf6cf;" horiz-adv-x="706" 
d="M61 1577l164 276h133l-184 -276h-113zM348 1577l164 276h133l-184 -276h-113z" />
    <glyph glyph-name="uniF6D0" unicode="&#xf6d0;" horiz-adv-x="686" 
d="M61 1638v123h564v-123h-564z" />
    <glyph glyph-name="uniF6D1" unicode="&#xf6d1;" horiz-adv-x="737" 
d="M61 1761v103h123v-82q0 -82 82 -82h205q82 0 82 82v82h123v-103q0 -84 -50.5 -134t-133.5 -50h-246q-84 0 -134.5 49t-50.5 135z" />
    <glyph glyph-name="uniF6D4" unicode="&#xf6d4;" horiz-adv-x="675" 
d="M61 1393v92h123v-72q0 -82 82 -82h144q82 0 82 82v72h122v-92q0 -84 -50 -134.5t-134 -50.5h-184q-84 0 -134.5 49.5t-50.5 135.5z" />
    <glyph glyph-name="uniF730" unicode="&#xf730;" horiz-adv-x="1198" 
d="M154 287v440q0 137 85 222t222 85h276q139 0 223 -85t84 -222v-440q0 -137 -85 -222t-224 -85h-274q-137 0 -222 84t-85 223zM471 113h256q184 0 184 184v420q0 184 -184 184h-256q-184 0 -184 -184v-420q0 -184 184 -184z" />
    <glyph glyph-name="uniF731" unicode="&#xf731;" horiz-adv-x="829" 
d="M123 0v133h256v615h-246v122h246v154h133v-891h256v-133h-645z" />
    <glyph glyph-name="uniF732" unicode="&#xf732;" horiz-adv-x="1024" 
d="M72 0v133l563 307q76 41 109.5 90.5t33.5 135.5v20q0 92 -49 143.5t-135 51.5h-461l-41 41v92h512q137 0 222 -85t85 -222v-52q0 -117 -48 -185.5t-146 -121.5l-377 -205v-10h569v-133h-837z" />
    <glyph glyph-name="uniF733" unicode="&#xf733;" horiz-adv-x="1024" 
d="M61 -348v133h543q184 0 184 184v123q0 184 -184 184h-307v134l399 460v11h-594l-41 41v92h809v-133l-409 -461v-10h153q139 0 223.5 -84t84.5 -224v-143q0 -139 -84 -223t-224 -84h-553z" />
    <glyph glyph-name="uniF734" unicode="&#xf734;" horiz-adv-x="1075" 
d="M61 0v133l564 881h112v-62l-522 -809v-10h502v481h133v-481h205v-133h-205v-348h-133v348h-656z" />
    <glyph glyph-name="uniF735" unicode="&#xf735;" horiz-adv-x="1085" 
d="M143 -348v133h523q184 0 184 184v185q0 184 -184 184h-502v676h778v-92l-41 -41h-604v-410h379q139 0 223 -84t84 -223v-205q0 -139 -84 -223t-223 -84h-533z" />
    <glyph glyph-name="uniF736" unicode="&#xf736;" horiz-adv-x="1157" 
d="M123 287v276q0 72 35 139.5t118 178.5l420 553h123v-62l-389 -512v-10h297q137 0 222 -85t85 -222v-256q0 -139 -85 -223t-222 -84h-297q-139 0 -223 84t-84 223zM440 113h277q184 0 184 184v235q0 184 -184 185h-277q-184 0 -184 -185v-235q0 -184 184 -184z" />
    <glyph glyph-name="uniF737" unicode="&#xf737;" horiz-adv-x="942" 
d="M276 -348v72l472 1146v11h-697v133h840v-133l-502 -1229h-113z" />
    <glyph glyph-name="uniF738" unicode="&#xf738;" horiz-adv-x="1167" 
d="M440 113h287q184 0 184 184v195q0 84 -50 134t-134 50h-287q-84 0 -134 -50.5t-50 -133.5v-195q0 -184 184 -184zM123 287v184q0 63 20.5 113.5t49 78t56 46t48.5 24.5l20 4v11q-6 2 -17 7t-40 25.5t-50.5 47t-38.5 76.5t-17 110v133q0 139 85 223t222 84h246
q137 0 222 -84t85 -223v-133q0 -59 -16.5 -109.5t-41 -78t-49 -47t-41.5 -25.5l-16 -6v-11q8 -2 21.5 -6t46 -23.5t58 -46t47 -76.5t21.5 -114v-184q0 -139 -83.5 -223t-223.5 -84h-307q-139 0 -223 84t-84 223zM471 809h225q84 0 134.5 50t50.5 134v144q0 184 -185 184
h-225q-184 0 -184 -184v-144q0 -84 50 -134t134 -50z" />
    <glyph glyph-name="uniF739" unicode="&#xf739;" horiz-adv-x="1157" 
d="M338 -348v61l389 441v10h-297q-139 0 -223 84t-84 223v256q0 137 84 222t223 85h297q137 0 222 -85t85 -222v-266q0 -154 -123 -297l-450 -512h-123zM440 297h277q184 0 184 184v236q0 184 -184 184h-277q-184 0 -184 -184v-236q0 -184 184 -184z" />
    <glyph glyph-name="uniFB06" unicode="&#xfb06;" horiz-adv-x="1576" 
d="M82 0v133h461q143 0 143 143q0 61 -32.5 94t-110.5 50l-236 51q-106 23 -165.5 88.5t-59.5 157.5v31q0 123 71.5 194.5t194.5 71.5h297v102q0 115 76 190.5t190 75.5h21q115 0 190.5 -75.5t75.5 -190.5v-102h297v-92l-41 -41h-256v-605q0 -143 143 -143h175v-133h-185
q-115 0 -190.5 76t-75.5 190v850q0 61 -36 97t-97 36h-21q-61 0 -97 -35.5t-36 -97.5v-194l-41 -41h-379q-143 0 -143 -144q0 -63 28.5 -95t104.5 -48l236 -51q109 -23 172 -88.5t63 -157.5v-31q0 -123 -71.5 -194.5t-194.5 -71.5h-471z" />
    <glyph glyph-name="c_h.dlig" horiz-adv-x="1996" 
d="M123 266v482q0 115 75.5 190.5t190.5 75.5h266v102q0 115 76 190.5t191 75.5h276v-471h10q2 4 7.5 13.5t26 30t45 37t66.5 29.5t91 13h133q115 0 190.5 -75.5t75.5 -190.5v-768h-133v758q0 143 -143 143h-154q-100 0 -157.5 -57.5t-57.5 -157.5v-686h-133v1249h-133
q-143 0 -144 -143v-184l-40 -41h-349q-143 0 -143 -144v-461q0 -143 143 -143h441v-133h-451q-115 0 -190.5 75.5t-75.5 190.5z" />
    <glyph glyph-name="c_k.dlig" horiz-adv-x="1904" 
d="M123 266v482q0 115 75.5 190.5t190.5 75.5h266v102q0 115 76 190.5t191 75.5h276v-798h266l256 430h103v-72l-246 -410l266 -460v-72h-112l-256 451h-277v-451h-133v1249h-133q-143 0 -144 -143v-184l-40 -41h-349q-143 0 -143 -144v-461q0 -143 143 -143h441v-133h-451
q-115 0 -190.5 75.5t-75.5 190.5z" />
    <glyph glyph-name="c_p.dlig" horiz-adv-x="1996" 
d="M123 266v482q0 115 75.5 190.5t190.5 75.5h266v102q0 115 76 190.5t191 75.5h10q115 0 190.5 -75.5t75.5 -190.5v-205h10q2 4 6.5 13.5t22.5 30t42 37t64.5 29.5t90.5 13h174q115 0 190.5 -75.5t75.5 -190.5v-502q0 -115 -76 -190.5t-190 -75.5h-410v-348h-133v1464
q0 61 -36 97t-97 36h-10q-61 0 -97.5 -35.5t-36.5 -97.5v-194l-40 -41h-349q-143 0 -143 -144v-461q0 -143 143 -143h441v-133h-451q-115 0 -190.5 75.5t-75.5 190.5zM1198 133h399q143 0 144 143v482q0 143 -144 143h-184q-100 0 -157.5 -57.5t-57.5 -157.5v-553z" />
    <glyph glyph-name="c_t.dlig" horiz-adv-x="1607" 
d="M123 266v482q0 115 75.5 190.5t190.5 75.5h287v102q0 115 75.5 190.5t190.5 75.5h21q115 0 190.5 -75.5t75.5 -190.5v-102h297v-92l-41 -41h-256v-605q0 -143 143 -143h174v-133h-184q-115 0 -190.5 76t-75.5 190v850q0 61 -36 97t-97 36h-21q-61 0 -97 -35.5t-36 -97.5
v-194l-41 -41h-369q-143 0 -143 -144v-461q0 -143 143 -143h441v-133h-451q-115 0 -190.5 75.5t-75.5 190.5z" />
    <glyph glyph-name="s_h.dlig" horiz-adv-x="1996" 
d="M82 0v133h461q143 0 143 143q0 61 -32.5 94t-110.5 50l-236 51q-106 23 -165.5 88.5t-59.5 157.5v31q0 123 71.5 194.5t194.5 71.5h277v102q0 115 75.5 190.5t190.5 75.5h307v-471h10q2 4 7.5 13.5t26 30t45 37t66.5 29.5t91 13h133q115 0 190.5 -75.5t75.5 -190.5v-768
h-133v758q0 143 -143 143h-154q-100 0 -157.5 -57.5t-57.5 -157.5v-686h-133v1249h-164q-143 0 -143 -143v-184l-41 -41h-359q-143 0 -143 -144q0 -63 28.5 -95t104.5 -48l236 -51q109 -23 172 -88.5t63 -157.5v-31q0 -123 -71.5 -194.5t-194.5 -71.5h-471z" />
    <glyph glyph-name="s_k.dlig" horiz-adv-x="1904" 
d="M82 0v133h461q143 0 143 143q0 61 -32.5 94t-110.5 50l-236 51q-106 23 -165.5 88.5t-59.5 157.5v31q0 123 71.5 194.5t194.5 71.5h277v102q0 115 75.5 190.5t190.5 75.5h307v-798h266l256 430h103v-72l-246 -410l266 -460v-72h-112l-256 451h-277v-451h-133v1249h-164
q-143 0 -143 -143v-184l-41 -41h-359q-143 0 -143 -144q0 -63 28.5 -95t104.5 -48l236 -51q109 -23 172 -88.5t63 -157.5v-31q0 -123 -71.5 -194.5t-194.5 -71.5h-471z" />
    <glyph glyph-name="s_p.dlig" horiz-adv-x="1996" 
d="M82 0v133h461q143 0 143 143q0 61 -32.5 94t-110.5 50l-236 51q-106 23 -165.5 88.5t-59.5 157.5v31q0 123 71.5 194.5t194.5 71.5h297v102q0 115 76 190.5t190 75.5h21q115 0 190.5 -75.5t75.5 -190.5v-205h10q2 4 6.5 13.5t22.5 30t42 37t64.5 29.5t90.5 13h174
q115 0 190.5 -75.5t75.5 -190.5v-502q0 -115 -76 -190.5t-190 -75.5h-410v-348h-133v1464q0 61 -36 97t-97 36h-21q-61 0 -97 -35.5t-36 -97.5v-194l-41 -41h-379q-143 0 -143 -144q0 -63 28.5 -95t104.5 -48l236 -51q109 -23 172 -88.5t63 -157.5v-31q0 -123 -71.5 -194.5
t-194.5 -71.5h-471zM1198 133h399q143 0 144 143v482q0 143 -144 143h-184q-100 0 -157.5 -57.5t-57.5 -157.5v-553z" />
    <glyph glyph-name="glyph473" horiz-adv-x="686" 
d="M61 1761v92h123v-71q0 -82 82 -82h154q82 0 82 82v71h123v-92q0 -84 -50.5 -134t-134.5 -50h-194q-84 0 -134.5 49t-50.5 135z" />
    <glyph glyph-name="glyph474" horiz-adv-x="665" 
d="M61 1577l205 276h133l205 -276h-123l-143 184h-10l-144 -184h-123z" />
    <glyph glyph-name="glyph475" horiz-adv-x="256" 
d="M61 1608v204h134v-204h-134z" />
    <glyph glyph-name="glyph476" horiz-adv-x="1280" 
d="M174 0v1126q0 139 85 223.5t222 84.5h604v-134l-337 -481v-10h102q131 0 219 -88t88 -219v-195q0 -139 -85 -223t-222 -84h-225v133h215q84 0 134 50t50 134v164q0 92 -49 143.5t-135 51.5h-246v133l338 481v10h-440q-184 0 -185 -184v-1116h-133z" />
    <glyph glyph-name="glyph477" horiz-adv-x="501" 
d="M246 1638h10q39 0 55.5 16.5t16.5 55.5v10q0 39 -16.5 55.5t-55.5 16.5h-10q-39 0 -55.5 -16.5t-16.5 -55.5v-10q0 -39 16.5 -55.5t55.5 -16.5zM61 1700v31q0 76 49.5 125t125.5 49h30q78 0 126 -49.5t48 -124.5v-31q0 -78 -48 -126t-126 -48h-30q-76 0 -125.5 48
t-49.5 126z" />
    <glyph glyph-name="glyph478" horiz-adv-x="686" 
d="M61 1577v143q0 61 36 97t98 36q55 0 101 -27.5t71.5 -59t53.5 -59.5t50 -28q31 0 31 41v123h123v-143q0 -61 -36 -97t-97 -36q-55 0 -101.5 27.5t-72 59.5t-53 59.5t-50.5 27.5q-31 0 -31 -41v-123h-123z" />
    <glyph glyph-name="I.salt" horiz-adv-x="727" 
d="M123 0v133h174v1167h-174v134h481v-134h-174v-1167h174v-133h-481z" />
    <glyph glyph-name="a.salt" horiz-adv-x="1085" 
d="M399 113h185q100 0 157.5 57t57.5 158v358q0 100 -57.5 157.5t-157.5 57.5h-185q-143 0 -143 -143v-502q0 -143 143 -143zM123 246v522q0 115 75.5 190.5t190.5 75.5h174q78 0 136.5 -30.5t78.5 -61.5l21 -31h10l31 103h92v-1014h-92l-31 102h-10q-2 -4 -7.5 -13
t-26 -29.5t-45 -37t-66.5 -29.5t-91 -13h-174q-115 0 -190.5 75.5t-75.5 190.5z" />
    <glyph glyph-name="g.salt" horiz-adv-x="1085" 
d="M184 -348v133h471q143 0 144 143v215h-11q-2 -4 -7 -13t-25.5 -29.5t-45 -37t-66.5 -30t-91 -13.5h-164q-115 0 -190.5 76t-75.5 191v461q0 115 75.5 190.5t190.5 75.5h543v-1096q0 -115 -76 -190.5t-190 -75.5h-482zM399 154h185q100 0 157.5 57t57.5 158v512h-400
q-143 0 -143 -144v-440q0 -143 143 -143z" />
    <glyph glyph-name="l.salt" horiz-adv-x="552" 
d="M164 266v1116h133v-1106q0 -143 154 -143h81v-133h-92q-123 0 -199.5 74.5t-76.5 191.5z" />
    <glyph glyph-name="y.salt" horiz-adv-x="1116" 
d="M215 -348v133h471q143 0 143 143v215h-10q-2 -4 -7 -13t-25.5 -29.5t-45 -37t-66.5 -30t-91 -13.5h-164q-115 0 -190.5 76t-75.5 191v727h133v-717q0 -143 143 -143h184q100 0 157.5 57t57.5 158v645h134v-1096q0 -115 -76 -190.5t-191 -75.5h-481z" />
    <glyph glyph-name="Igrave.salt" horiz-adv-x="727" 
d="M123 0v133h174v1167h-174v134h481v-134h-174v-1167h174v-133h-481zM307 1577l-194 276h143l174 -276h-123z" />
    <glyph glyph-name="Iacute.salt" horiz-adv-x="727" 
d="M123 0v133h174v1167h-174v134h481v-134h-174v-1167h174v-133h-481zM307 1577l174 276h144l-195 -276h-123z" />
    <glyph glyph-name="Icircumflex.salt" horiz-adv-x="727" 
d="M123 0v133h174v1167h-174v134h481v-134h-174v-1167h174v-133h-481zM92 1577l205 276h133l205 -276h-123l-143 184h-11l-143 -184h-123z" />
    <glyph glyph-name="Idieresis.salt" horiz-adv-x="727" 
d="M123 0v133h174v1167h-174v134h481v-134h-174v-1167h174v-133h-481zM123 1608v204h123v-204h-123zM492 1608v204h133v-204h-133z" />
    <glyph glyph-name="agrave.salt" horiz-adv-x="1085" 
d="M399 113h185q100 0 157.5 57t57.5 158v358q0 100 -57.5 157.5t-157.5 57.5h-185q-143 0 -143 -143v-502q0 -143 143 -143zM123 246v522q0 115 75.5 190.5t190.5 75.5h174q78 0 136.5 -30.5t78.5 -61.5l21 -31h10l31 103h92v-1014h-92l-31 102h-10q-2 -4 -7.5 -13
t-26 -29.5t-45 -37t-66.5 -29.5t-91 -13h-174q-115 0 -190.5 75.5t-75.5 190.5zM492 1208l-205 277h143l174 -277h-112z" />
    <glyph glyph-name="aacute.salt" horiz-adv-x="1085" 
d="M399 113h185q100 0 157.5 57t57.5 158v358q0 100 -57.5 157.5t-157.5 57.5h-185q-143 0 -143 -143v-502q0 -143 143 -143zM123 246v522q0 115 75.5 190.5t190.5 75.5h174q78 0 136.5 -30.5t78.5 -61.5l21 -31h10l31 103h92v-1014h-92l-31 102h-10q-2 -4 -7.5 -13
t-26 -29.5t-45 -37t-66.5 -29.5t-91 -13h-174q-115 0 -190.5 75.5t-75.5 190.5zM481 1208l174 277h144l-205 -277h-113z" />
    <glyph glyph-name="acircumflex.salt" horiz-adv-x="1085" 
d="M399 113h185q100 0 157.5 57t57.5 158v358q0 100 -57.5 157.5t-157.5 57.5h-185q-143 0 -143 -143v-502q0 -143 143 -143zM123 246v522q0 115 75.5 190.5t190.5 75.5h174q78 0 136.5 -30.5t78.5 -61.5l21 -31h10l31 103h92v-1014h-92l-31 102h-10q-2 -4 -7.5 -13
t-26 -29.5t-45 -37t-66.5 -29.5t-91 -13h-174q-115 0 -190.5 75.5t-75.5 190.5zM256 1208l205 277h133l205 -277h-123l-144 185h-10l-143 -185h-123z" />
    <glyph glyph-name="atilde.salt" horiz-adv-x="1085" 
d="M399 113h185q100 0 157.5 57t57.5 158v358q0 100 -57.5 157.5t-157.5 57.5h-185q-143 0 -143 -143v-502q0 -143 143 -143zM123 246v522q0 115 75.5 190.5t190.5 75.5h174q78 0 136.5 -30.5t78.5 -61.5l21 -31h10l31 103h92v-1014h-92l-31 102h-10q-2 -4 -7.5 -13
t-26 -29.5t-45 -37t-66.5 -29.5t-91 -13h-174q-115 0 -190.5 75.5t-75.5 190.5zM256 1208v144q0 61 36 97t97 36q55 0 101.5 -27.5t72 -59.5t53 -59.5t50.5 -27.5q31 0 30 41v123h123v-144q0 -61 -35.5 -97t-97.5 -36q-55 0 -101 27.5t-72 59.5t-53.5 59.5t-49.5 27.5
q-31 0 -31 -41v-123h-123z" />
    <glyph glyph-name="adieresis.salt" horiz-adv-x="1085" 
d="M399 113h185q100 0 157.5 57t57.5 158v358q0 100 -57.5 157.5t-157.5 57.5h-185q-143 0 -143 -143v-502q0 -143 143 -143zM123 246v522q0 115 75.5 190.5t190.5 75.5h174q78 0 136.5 -30.5t78.5 -61.5l21 -31h10l31 103h92v-1014h-92l-31 102h-10q-2 -4 -7.5 -13
t-26 -29.5t-45 -37t-66.5 -29.5t-91 -13h-174q-115 0 -190.5 75.5t-75.5 190.5zM297 1249v205h123v-205h-123zM666 1249v205h133v-205h-133z" />
    <glyph glyph-name="aring.salt" horiz-adv-x="1085" 
d="M399 113h185q100 0 157.5 57t57.5 158v358q0 100 -57.5 157.5t-157.5 57.5h-185q-143 0 -143 -143v-502q0 -143 143 -143zM123 246v522q0 115 75.5 190.5t190.5 75.5h174q78 0 136.5 -30.5t78.5 -61.5l21 -31h10l31 103h92v-1014h-92l-31 102h-10q-2 -4 -7.5 -13
t-26 -29.5t-45 -37t-66.5 -29.5t-91 -13h-174q-115 0 -190.5 75.5t-75.5 190.5zM522 1270h10q39 0 55.5 16.5t16.5 54.5v11q0 39 -16.5 55t-55.5 16h-10q-39 0 -55 -16t-16 -55v-11q0 -39 16 -55t55 -16zM338 1331v31q0 76 48 125t126 49h31q76 0 125 -49t49 -125v-31
q0 -78 -49.5 -126t-124.5 -48h-31q-78 0 -126 48t-48 126z" />
    <glyph glyph-name="yacute.salt" horiz-adv-x="1116" 
d="M215 -348v133h471q143 0 143 143v215h-10q-2 -4 -7 -13t-25.5 -29.5t-45 -37t-66.5 -30t-91 -13.5h-164q-115 0 -190.5 76t-75.5 191v727h133v-717q0 -143 143 -143h184q100 0 157.5 57t57.5 158v645h134v-1096q0 -115 -76 -190.5t-191 -75.5h-481zM512 1208l174 277h143
l-204 -277h-113z" />
    <glyph glyph-name="ydieresis.salt" horiz-adv-x="1116" 
d="M215 -348v133h471q143 0 143 143v215h-10q-2 -4 -7 -13t-25.5 -29.5t-45 -37t-66.5 -30t-91 -13.5h-164q-115 0 -190.5 76t-75.5 191v727h133v-717q0 -143 143 -143h184q100 0 157.5 57t57.5 158v645h134v-1096q0 -115 -76 -190.5t-191 -75.5h-481zM317 1249v205h123
v-205h-123zM686 1249v205h133v-205h-133z" />
    <glyph glyph-name="amacron.salt" horiz-adv-x="1085" 
d="M399 113h185q100 0 157.5 57t57.5 158v358q0 100 -57.5 157.5t-157.5 57.5h-185q-143 0 -143 -143v-502q0 -143 143 -143zM123 246v522q0 115 75.5 190.5t190.5 75.5h174q78 0 136.5 -30.5t78.5 -61.5l21 -31h10l31 103h92v-1014h-92l-31 102h-10q-2 -4 -7.5 -13
t-26 -29.5t-45 -37t-66.5 -29.5t-91 -13h-174q-115 0 -190.5 75.5t-75.5 190.5zM246 1270v123h563v-123h-563z" />
    <glyph glyph-name="abreve.salt" horiz-adv-x="1085" 
d="M399 113h185q100 0 157.5 57t57.5 158v358q0 100 -57.5 157.5t-157.5 57.5h-185q-143 0 -143 -143v-502q0 -143 143 -143zM123 246v522q0 115 75.5 190.5t190.5 75.5h174q78 0 136.5 -30.5t78.5 -61.5l21 -31h10l31 103h92v-1014h-92l-31 102h-10q-2 -4 -7.5 -13
t-26 -29.5t-45 -37t-66.5 -29.5t-91 -13h-174q-115 0 -190.5 75.5t-75.5 190.5zM246 1393v92h123v-72q0 -82 82 -82h153q82 0 82 82v72h123v-92q0 -84 -50 -134.5t-134 -50.5h-195q-84 0 -134 49.5t-50 135.5z" />
    <glyph glyph-name="aogonek.salt" horiz-adv-x="1085" 
d="M123 246v522q0 115 75.5 190.5t190.5 75.5h174q78 0 136.5 -30.5t78.5 -61.5l21 -31h10l31 103h92v-1024q-20 -14 -51 -38t-82 -91.5t-51 -126.5q0 -39 16 -55.5t55 -16.5h113v-113h-133q-78 0 -121 44.5t-43 125.5q0 74 51 144.5t102 103.5l52 33l-31 102h-10
q-2 -4 -7.5 -13t-26 -29.5t-45 -37t-66.5 -29.5t-91 -13h-174q-115 0 -190.5 75.5t-75.5 190.5zM399 113h185q100 0 157.5 57t57.5 158v358q0 100 -57.5 157.5t-157.5 57.5h-185q-143 0 -143 -143v-502q0 -143 143 -143z" />
    <glyph glyph-name="gbreve.salt" horiz-adv-x="1085" 
d="M184 -348v133h471q143 0 144 143v215h-11q-2 -4 -7 -13t-25.5 -29.5t-45 -37t-66.5 -30t-91 -13.5h-164q-115 0 -190.5 76t-75.5 191v461q0 115 75.5 190.5t190.5 75.5h543v-1096q0 -115 -76 -190.5t-190 -75.5h-482zM399 154h185q100 0 157.5 57t57.5 158v512h-400
q-143 0 -143 -144v-440q0 -143 143 -143zM246 1393v92h123v-72q0 -82 82 -82h153q82 0 82 82v72h123v-92q0 -84 -50 -134.5t-134 -50.5h-195q-84 0 -134 49.5t-50 135.5z" />
    <glyph glyph-name="uni0123.salt" horiz-adv-x="1085" 
d="M481 1208v174l62 246h61v-420h-123zM184 -348v133h471q143 0 144 143v215h-11q-2 -4 -7 -13t-25.5 -29.5t-45 -37t-66.5 -30t-91 -13.5h-164q-115 0 -190.5 76t-75.5 191v461q0 115 75.5 190.5t190.5 75.5h543v-1096q0 -115 -76 -190.5t-190 -75.5h-482zM399 154h185
q100 0 157.5 57t57.5 158v512h-400q-143 0 -143 -144v-440q0 -143 143 -143z" />
    <glyph glyph-name="Imacron.salt" horiz-adv-x="727" 
d="M123 0v133h174v1167h-174v134h481v-134h-174v-1167h174v-133h-481zM82 1638v123h563v-123h-563z" />
    <glyph glyph-name="Iogonek.salt" horiz-adv-x="727" 
d="M123 0v133h174v1167h-174v134h481v-134h-174v-1167h174v-143q-20 -14 -51 -38t-82 -91.5t-51 -126.5q0 -39 16.5 -55.5t55.5 -16.5h112v-113h-133q-78 0 -121 44.5t-43 125.5q0 74 49.5 144.5t98.5 103.5l47 33h-379z" />
    <glyph glyph-name="Idotaccent.salt" horiz-adv-x="727" 
d="M123 0v133h174v1167h-174v134h481v-134h-174v-1167h174v-133h-481zM297 1608v204h133v-204h-133z" />
    <glyph glyph-name="lacute.salt" horiz-adv-x="552" 
d="M174 1577l174 276h144l-195 -276h-123zM164 266v1116h133v-1106q0 -143 154 -143h81v-133h-92q-123 0 -199.5 74.5t-76.5 191.5z" />
    <glyph glyph-name="uni013C.salt" horiz-adv-x="552" 
d="M164 266v1116h133v-1106q0 -143 154 -143h81v-133h-92q-123 0 -199.5 74.5t-76.5 191.5zM287 -563v420h123v-174l-62 -246h-61z" />
    <glyph glyph-name="lcaron.salt" horiz-adv-x="563" 
d="M164 266v1116h133v-1106q0 -143 154 -143h81v-133h-92q-123 0 -199.5 74.5t-76.5 191.5zM430 1014v420h123v-177l-72 -243h-51z" />
    <glyph glyph-name="lslash.salt" horiz-adv-x="563" 
d="M174 266v400l-133 -62v133l133 62v583h133v-512l154 82v-133l-154 -82v-461q0 -143 154 -143h82v-133h-92q-123 0 -200 74.5t-77 191.5z" />
    <glyph glyph-name="uni0406.salt" horiz-adv-x="727" 
d="M123 0v133h174v1167h-174v134h481v-134h-174v-1167h174v-133h-481z" />
    <glyph glyph-name="uni0407.salt" horiz-adv-x="727" 
d="M123 0v133h174v1167h-174v134h481v-134h-174v-1167h174v-133h-481zM123 1608v204h123v-204h-123zM492 1608v204h133v-204h-133z" />
    <glyph glyph-name="uni0430.salt" horiz-adv-x="1085" 
d="M399 113h185q100 0 157.5 57t57.5 158v358q0 100 -57.5 157.5t-157.5 57.5h-185q-143 0 -143 -143v-502q0 -143 143 -143zM123 246v522q0 115 75.5 190.5t190.5 75.5h174q78 0 136.5 -30.5t78.5 -61.5l21 -31h10l31 103h92v-1014h-92l-31 102h-10q-2 -4 -7.5 -13
t-26 -29.5t-45 -37t-66.5 -29.5t-91 -13h-174q-115 0 -190.5 75.5t-75.5 190.5z" />
    <glyph glyph-name="uni0443.salt" horiz-adv-x="1116" 
d="M215 -348v133h471q143 0 143 143v215h-10q-2 -4 -7 -13t-25.5 -29.5t-45 -37t-66.5 -30t-91 -13.5h-164q-115 0 -190.5 76t-75.5 191v727h133v-717q0 -143 143 -143h184q100 0 157.5 57t57.5 158v645h134v-1096q0 -115 -76 -190.5t-191 -75.5h-481z" />
    <glyph glyph-name="uni045E.salt" horiz-adv-x="1116" 
d="M215 -348v133h471q143 0 143 143v215h-10q-2 -4 -7 -13t-25.5 -29.5t-45 -37t-66.5 -30t-91 -13.5h-164q-115 0 -190.5 76t-75.5 191v727h133v-717q0 -143 143 -143h184q100 0 157.5 57t57.5 158v645h134v-1096q0 -115 -76 -190.5t-191 -75.5h-481zM287 1393v92h123v-72
q0 -82 82 -82h143q82 0 82 82v72h123v-92q0 -84 -50.5 -134.5t-134.5 -50.5h-184q-84 0 -134 49.5t-50 135.5z" />
    <glyph glyph-name="uniFB02.salt" horiz-adv-x="1208" 
d="M164 0v1137q0 115 75.5 190.5t190.5 75.5h522v-1127q0 -143 154 -143h82v-133h-92q-123 0 -200 75t-77 191v1004h-379q-143 0 -143 -144v-215h297v-71l-31 -62h-266v-778h-133z" />
    <glyph glyph-name="uniFB04.salt" horiz-adv-x="1863" 
d="M164 0v1137q0 115 75.5 190.5t190.5 75.5h256q41 0 76 -13.5t56.5 -32t37.5 -36.5t23 -31l6 -14h10q2 6 7 14t21.5 29.5t37 39t54.5 31t70 13.5h523v-1127q0 -143 153 -143h82v-133h-92q-123 0 -199.5 75t-76.5 191v1004h-379q-143 0 -144 -144v-215h297v-71l-30 -62
h-267v-778h-133v1126q0 143 -143 144h-236q-143 0 -143 -144v-215h297v-71l-31 -62h-266v-778h-133z" />
    <glyph glyph-name="a.ss02" horiz-adv-x="972" 
d="M358 113h215q61 0 102.5 41t41.5 102v217l-359 -74q-143 -29 -143 -143q0 -143 143 -143zM82 246v33q0 98 63.5 164.5t171.5 88.5l400 82v123q0 143 -144 144h-409v133h420q115 0 190.5 -75t75.5 -189v-504q0 -115 -76 -190.5t-190 -75.5h-236q-115 0 -190.5 75.5
t-75.5 190.5z" />
    <glyph glyph-name="e.ss02" horiz-adv-x="1013" 
d="M256 530l399 84q143 29 144 144q0 143 -144 143h-256q-61 0 -102 -41t-41 -102v-228zM123 264v504q0 115 75.5 190.5t190.5 75.5h277q115 0 190.5 -75.5t75.5 -190.5v-33q0 -96 -63.5 -163.5t-172.5 -90.5l-440 -92v-113q0 -143 143 -143h492v-133h-502
q-115 0 -190.5 74.5t-75.5 189.5z" />
    <glyph glyph-name="u.ss02" 
d="M154 246v768h133v-758q0 -143 143 -143h236q143 0 143 143v758h133v-768q0 -115 -75.5 -190.5t-190.5 -75.5h-256q-115 0 -190.5 75.5t-75.5 190.5z" />
    <glyph glyph-name="y.ss02" 
d="M481 -348v328h-61q-115 0 -190.5 75.5t-75.5 190.5v768h133v-758q0 -143 143 -143h236q143 0 143 143v758h133v-768q0 -115 -75.5 -190.5t-190.5 -75.5h-62v-328h-133z" />
    <glyph glyph-name="agrave.ss02" horiz-adv-x="972" 
d="M358 113h215q61 0 102.5 41t41.5 102v217l-359 -74q-143 -29 -143 -143q0 -143 143 -143zM82 246v33q0 98 63.5 164.5t171.5 88.5l400 82v123q0 143 -144 144h-409v133h420q115 0 190.5 -75t75.5 -189v-504q0 -115 -76 -190.5t-190 -75.5h-236q-115 0 -190.5 75.5
t-75.5 190.5zM461 1208l-205 277h143l174 -277h-112z" />
    <glyph glyph-name="aacute.ss02" horiz-adv-x="972" 
d="M358 113h215q61 0 102.5 41t41.5 102v217l-359 -74q-143 -29 -143 -143q0 -143 143 -143zM82 246v33q0 98 63.5 164.5t171.5 88.5l400 82v123q0 143 -144 144h-409v133h420q115 0 190.5 -75t75.5 -189v-504q0 -115 -76 -190.5t-190 -75.5h-236q-115 0 -190.5 75.5
t-75.5 190.5zM430 1208l174 277h144l-205 -277h-113z" />
    <glyph glyph-name="acircumflex.ss02" horiz-adv-x="972" 
d="M358 113h215q61 0 102.5 41t41.5 102v217l-359 -74q-143 -29 -143 -143q0 -143 143 -143zM82 246v33q0 98 63.5 164.5t171.5 88.5l400 82v123q0 143 -144 144h-409v133h420q115 0 190.5 -75t75.5 -189v-504q0 -115 -76 -190.5t-190 -75.5h-236q-115 0 -190.5 75.5
t-75.5 190.5zM225 1208l205 277h133l205 -277h-123l-143 185h-10l-144 -185h-123z" />
    <glyph glyph-name="atilde.ss02" horiz-adv-x="972" 
d="M358 113h215q61 0 102.5 41t41.5 102v217l-359 -74q-143 -29 -143 -143q0 -143 143 -143zM82 246v33q0 98 63.5 164.5t171.5 88.5l400 82v123q0 143 -144 144h-409v133h420q115 0 190.5 -75t75.5 -189v-504q0 -115 -76 -190.5t-190 -75.5h-236q-115 0 -190.5 75.5
t-75.5 190.5zM225 1208v144q0 61 36 97t97 36q55 0 101.5 -27.5t72 -59.5t53 -59.5t50.5 -27.5q31 0 31 41v123h122v-144q0 -61 -35.5 -97t-97.5 -36q-55 0 -101 27.5t-71.5 59.5t-53.5 59.5t-50 27.5q-31 0 -31 -41v-123h-123z" />
    <glyph glyph-name="adieresis.ss02" horiz-adv-x="972" 
d="M358 113h215q61 0 102.5 41t41.5 102v217l-359 -74q-143 -29 -143 -143q0 -143 143 -143zM82 246v33q0 98 63.5 164.5t171.5 88.5l400 82v123q0 143 -144 144h-409v133h420q115 0 190.5 -75t75.5 -189v-504q0 -115 -76 -190.5t-190 -75.5h-236q-115 0 -190.5 75.5
t-75.5 190.5zM266 1249v205h123v-205h-123zM635 1249v205h133v-205h-133z" />
    <glyph glyph-name="aring.ss02" horiz-adv-x="972" 
d="M358 113h215q61 0 102.5 41t41.5 102v217l-359 -74q-143 -29 -143 -143q0 -143 143 -143zM82 246v33q0 98 63.5 164.5t171.5 88.5l400 82v123q0 143 -144 144h-409v133h420q115 0 190.5 -75t75.5 -189v-504q0 -115 -76 -190.5t-190 -75.5h-236q-115 0 -190.5 75.5
t-75.5 190.5zM492 1270h10q39 0 55 16.5t16 54.5v11q0 39 -16 55t-55 16h-10q-39 0 -55.5 -16t-16.5 -55v-11q0 -39 16.5 -55t55.5 -16zM307 1331v31q0 76 49.5 125t124.5 49h31q78 0 126 -49t48 -125v-31q0 -78 -48 -126t-126 -48h-31q-76 0 -125 48t-49 126z" />
    <glyph glyph-name="ae.ss02" horiz-adv-x="1607" 
d="M358 113h215q61 0 102.5 41t41.5 102v217l-359 -74q-143 -29 -143 -143q0 -143 143 -143zM850 530l399 84q143 29 144 144q0 143 -144 143h-256q-61 0 -102 -41t-41 -102v-228zM82 246v33q0 98 63.5 164.5t171.5 88.5l400 82v123q0 143 -144 144h-409v133h409
q43 0 79 -11.5t56.5 -28t35 -33.5t18.5 -28l6 -12h10q2 6 7.5 14.5t24.5 32t43 41t64.5 31.5t86.5 14h256q115 0 190.5 -75.5t75.5 -190.5v-33q0 -96 -63.5 -163.5t-172.5 -90.5l-440 -92v-113q0 -143 143 -143h492v-133h-481q-68 0 -119 28.5t-70 57.5l-16 27h-11
q-2 -6 -7 -14.5t-24.5 -32t-42 -41t-60.5 -31.5t-81 -14h-225q-115 0 -190.5 75.5t-75.5 190.5z" />
    <glyph glyph-name="egrave.ss02" horiz-adv-x="1013" 
d="M256 530l399 84q143 29 144 144q0 143 -144 143h-256q-61 0 -102 -41t-41 -102v-228zM123 264v504q0 115 75.5 190.5t190.5 75.5h277q115 0 190.5 -75.5t75.5 -190.5v-33q0 -96 -63.5 -163.5t-172.5 -90.5l-440 -92v-113q0 -143 143 -143h492v-133h-502
q-115 0 -190.5 74.5t-75.5 189.5zM471 1208l-205 277h144l174 -277h-113z" />
    <glyph glyph-name="eacute.ss02" horiz-adv-x="1013" 
d="M256 530l399 84q143 29 144 144q0 143 -144 143h-256q-61 0 -102 -41t-41 -102v-228zM123 264v504q0 115 75.5 190.5t190.5 75.5h277q115 0 190.5 -75.5t75.5 -190.5v-33q0 -96 -63.5 -163.5t-172.5 -90.5l-440 -92v-113q0 -143 143 -143h492v-133h-502
q-115 0 -190.5 74.5t-75.5 189.5zM471 1208l174 277h143l-204 -277h-113z" />
    <glyph glyph-name="ecircumflex.ss02" horiz-adv-x="1013" 
d="M256 530l399 84q143 29 144 144q0 143 -144 143h-256q-61 0 -102 -41t-41 -102v-228zM123 264v504q0 115 75.5 190.5t190.5 75.5h277q115 0 190.5 -75.5t75.5 -190.5v-33q0 -96 -63.5 -163.5t-172.5 -90.5l-440 -92v-113q0 -143 143 -143h492v-133h-502
q-115 0 -190.5 74.5t-75.5 189.5zM266 1208l205 277h133l205 -277h-123l-143 185h-11l-143 -185h-123z" />
    <glyph glyph-name="edieresis.ss02" horiz-adv-x="1013" 
d="M256 530l399 84q143 29 144 144q0 143 -144 143h-256q-61 0 -102 -41t-41 -102v-228zM123 264v504q0 115 75.5 190.5t190.5 75.5h277q115 0 190.5 -75.5t75.5 -190.5v-33q0 -96 -63.5 -163.5t-172.5 -90.5l-440 -92v-113q0 -143 143 -143h492v-133h-502
q-115 0 -190.5 74.5t-75.5 189.5zM297 1249v205h123v-205h-123zM666 1249v205h133v-205h-133z" />
    <glyph glyph-name="ugrave.ss02" 
d="M154 246v768h133v-758q0 -143 143 -143h236q143 0 143 143v758h133v-768q0 -115 -75.5 -190.5t-190.5 -75.5h-256q-115 0 -190.5 75.5t-75.5 190.5zM492 1208l-205 277h143l174 -277h-112z" />
    <glyph glyph-name="uacute.ss02" 
d="M154 246v768h133v-758q0 -143 143 -143h236q143 0 143 143v758h133v-768q0 -115 -75.5 -190.5t-190.5 -75.5h-256q-115 0 -190.5 75.5t-75.5 190.5zM502 1208l174 277h143l-205 -277h-112z" />
    <glyph glyph-name="ucircumflex.ss02" 
d="M154 246v768h133v-758q0 -143 143 -143h236q143 0 143 143v758h133v-768q0 -115 -75.5 -190.5t-190.5 -75.5h-256q-115 0 -190.5 75.5t-75.5 190.5zM276 1208l205 277h133l205 -277h-123l-143 185h-10l-144 -185h-123z" />
    <glyph glyph-name="udieresis.ss02" 
d="M154 246v768h133v-758q0 -143 143 -143h236q143 0 143 143v758h133v-768q0 -115 -75.5 -190.5t-190.5 -75.5h-256q-115 0 -190.5 75.5t-75.5 190.5zM307 1249v205h123v-205h-123zM676 1249v205h133v-205h-133z" />
    <glyph glyph-name="yacute.ss02" 
d="M481 -348v328h-61q-115 0 -190.5 75.5t-75.5 190.5v768h133v-758q0 -143 143 -143h236q143 0 143 143v758h133v-768q0 -115 -75.5 -190.5t-190.5 -75.5h-62v-328h-133zM492 1208l174 277h143l-205 -277h-112z" />
    <glyph glyph-name="ydieresis.ss02" 
d="M481 -348v328h-61q-115 0 -190.5 75.5t-75.5 190.5v768h133v-758q0 -143 143 -143h236q143 0 143 143v758h133v-768q0 -115 -75.5 -190.5t-190.5 -75.5h-62v-328h-133zM297 1249v205h123v-205h-123zM666 1249v205h133v-205h-133z" />
    <glyph glyph-name="amacron.ss02" horiz-adv-x="972" 
d="M358 113h215q61 0 102.5 41t41.5 102v217l-359 -74q-143 -29 -143 -143q0 -143 143 -143zM82 246v33q0 98 63.5 164.5t171.5 88.5l400 82v123q0 143 -144 144h-409v133h420q115 0 190.5 -75t75.5 -189v-504q0 -115 -76 -190.5t-190 -75.5h-236q-115 0 -190.5 75.5
t-75.5 190.5zM215 1270v123h563v-123h-563z" />
    <glyph glyph-name="abreve.ss02" horiz-adv-x="972" 
d="M358 113h215q61 0 102.5 41t41.5 102v217l-359 -74q-143 -29 -143 -143q0 -143 143 -143zM82 246v33q0 98 63.5 164.5t171.5 88.5l400 82v123q0 143 -144 144h-409v133h420q115 0 190.5 -75t75.5 -189v-504q0 -115 -76 -190.5t-190 -75.5h-236q-115 0 -190.5 75.5
t-75.5 190.5zM215 1393v92h123v-72q0 -82 82 -82h153q82 0 82 82v72h123v-92q0 -84 -50 -134.5t-134 -50.5h-195q-84 0 -134 49.5t-50 135.5z" />
    <glyph glyph-name="aogonek.ss02" horiz-adv-x="972" 
d="M604 -451h-133q-78 0 -121 44.5t-43 125.5q0 66 41 130.5t82 97.5l41 33h-123q-115 0 -190.5 75.5t-75.5 190.5v33q0 98 63.5 164.5t171.5 88.5l400 82v123q0 143 -144 144h-409v133h420q115 0 190.5 -75t75.5 -189v-504q0 -115 -76 -190.5t-190 -75.5q-18 -14 -46 -38
t-73 -88.5t-45 -119.5q0 -39 16.5 -55.5t55.5 -16.5h112v-113zM358 113h215q61 0 102.5 41t41.5 102v217l-359 -74q-143 -29 -143 -143q0 -143 143 -143z" />
    <glyph glyph-name="emacron.ss02" horiz-adv-x="1013" 
d="M256 530l399 84q143 29 144 144q0 143 -144 143h-256q-61 0 -102 -41t-41 -102v-228zM123 264v504q0 115 75.5 190.5t190.5 75.5h277q115 0 190.5 -75.5t75.5 -190.5v-33q0 -96 -63.5 -163.5t-172.5 -90.5l-440 -92v-113q0 -143 143 -143h492v-133h-502
q-115 0 -190.5 74.5t-75.5 189.5zM246 1270v123h563v-123h-563z" />
    <glyph glyph-name="edotaccent.ss02" horiz-adv-x="1013" 
d="M256 530l399 84q143 29 144 144q0 143 -144 143h-256q-61 0 -102 -41t-41 -102v-228zM123 264v504q0 115 75.5 190.5t190.5 75.5h277q115 0 190.5 -75.5t75.5 -190.5v-33q0 -96 -63.5 -163.5t-172.5 -90.5l-440 -92v-113q0 -143 143 -143h492v-133h-502
q-115 0 -190.5 74.5t-75.5 189.5zM471 1249v205h133v-205h-133z" />
    <glyph glyph-name="eogonek.ss02" horiz-adv-x="1013" 
d="M123 264v504q0 115 75.5 190.5t190.5 75.5h277q115 0 190.5 -75.5t75.5 -190.5v-33q0 -96 -63.5 -163.5t-172.5 -90.5l-440 -92v-113q0 -143 143 -143h492v-143q-20 -14 -51 -38t-82 -91.5t-51 -126.5q0 -39 16 -55.5t55 -16.5h113v-113h-133q-78 0 -121 44.5t-43 125.5
q0 74 49 144.5t98 103.5l47 33h-399q-115 0 -190.5 74.5t-75.5 189.5zM256 530l399 84q143 29 144 144q0 143 -144 143h-256q-61 0 -102 -41t-41 -102v-228z" />
    <glyph glyph-name="ecaron.ss02" horiz-adv-x="1013" 
d="M256 530l399 84q143 29 144 144q0 143 -144 143h-256q-61 0 -102 -41t-41 -102v-228zM123 264v504q0 115 75.5 190.5t190.5 75.5h277q115 0 190.5 -75.5t75.5 -190.5v-33q0 -96 -63.5 -163.5t-172.5 -90.5l-440 -92v-113q0 -143 143 -143h492v-133h-502
q-115 0 -190.5 74.5t-75.5 189.5zM471 1208l-205 277h123l143 -185h11l143 185h123l-205 -277h-133z" />
    <glyph glyph-name="oe.ss02" horiz-adv-x="1710" 
d="M399 113h277q143 0 143 143v502q0 143 -143 143h-277q-143 0 -143 -143v-502q0 -143 143 -143zM952 530l400 84q143 29 143 144q0 143 -143 143h-256q-61 0 -102.5 -41t-41.5 -102v-228zM123 246v522q0 115 75.5 190.5t190.5 75.5h287q68 0 119 -30.5t69 -61.5l17 -31h10
q6 14 19.5 35t67.5 54.5t128 33.5h256q115 0 190.5 -75.5t75.5 -190.5v-33q0 -96 -63.5 -163.5t-171.5 -90.5l-441 -92v-113q0 -143 144 -143h491v-133h-481q-68 0 -119 30.5t-69 61.5l-17 31h-10q-2 -6 -7 -15.5t-24.5 -34t-42 -44t-60.5 -34.5t-81 -15h-287
q-115 0 -190.5 75.5t-75.5 190.5z" />
    <glyph glyph-name="umacron.ss02" 
d="M154 246v768h133v-758q0 -143 143 -143h236q143 0 143 143v758h133v-768q0 -115 -75.5 -190.5t-190.5 -75.5h-256q-115 0 -190.5 75.5t-75.5 190.5zM266 1270v123h563v-123h-563z" />
    <glyph glyph-name="uring.ss02" 
d="M154 246v768h133v-758q0 -143 143 -143h236q143 0 143 143v758h133v-768q0 -115 -75.5 -190.5t-190.5 -75.5h-256q-115 0 -190.5 75.5t-75.5 190.5zM543 1270h10q39 0 55.5 16.5t16.5 54.5v11q0 39 -16.5 55t-55.5 16h-10q-39 0 -55.5 -16t-16.5 -55v-11q0 -39 16.5 -55
t55.5 -16zM358 1331v31q0 76 48.5 125t125.5 49h31q76 0 125 -49t49 -125v-31q0 -78 -49 -126t-125 -48h-31q-78 0 -126 48t-48 126z" />
    <glyph glyph-name="uhungarumlaut.ss02" 
d="M154 246v768h133v-758q0 -143 143 -143h236q143 0 143 143v758h133v-768q0 -115 -75.5 -190.5t-190.5 -75.5h-256q-115 0 -190.5 75.5t-75.5 190.5zM348 1208l164 277h133l-184 -277h-113zM635 1208l164 277h133l-184 -277h-113z" />
    <glyph glyph-name="uogonek.ss02" 
d="M696 -451h-133q-78 0 -121 44.5t-43 125.5q0 61 41 126t82 100l41 35h-143q-115 0 -190.5 75.5t-75.5 190.5v768h133v-758q0 -143 143 -143h236q143 0 143 143v758h133v-768q0 -115 -75.5 -190.5t-190.5 -75.5q-18 -14 -46 -38t-73 -88.5t-45 -119.5q0 -39 16.5 -55.5
t55.5 -16.5h112v-113z" />
    <glyph glyph-name="uni0430.ss02" horiz-adv-x="972" 
d="M358 113h215q61 0 102.5 41t41.5 102v217l-359 -74q-143 -29 -143 -143q0 -143 143 -143zM82 246v33q0 98 63.5 164.5t171.5 88.5l400 82v123q0 143 -144 144h-409v133h420q115 0 190.5 -75t75.5 -189v-504q0 -115 -76 -190.5t-190 -75.5h-236q-115 0 -190.5 75.5
t-75.5 190.5z" />
    <glyph glyph-name="uni0435.ss02" horiz-adv-x="1013" 
d="M256 530l399 84q143 29 144 144q0 143 -144 143h-256q-61 0 -102 -41t-41 -102v-228zM123 264v504q0 115 75.5 190.5t190.5 75.5h277q115 0 190.5 -75.5t75.5 -190.5v-33q0 -96 -63.5 -163.5t-172.5 -90.5l-440 -92v-113q0 -143 143 -143h492v-133h-502
q-115 0 -190.5 74.5t-75.5 189.5z" />
    <glyph glyph-name="uni0438.ss02" 
d="M154 246v768h133v-758q0 -143 143 -143h164q100 0 157.5 57t57.5 158v686h133v-1014h-92l-31 102h-10q-2 -4 -7 -13t-25.5 -29.5t-45 -37t-66.5 -29.5t-92 -13h-153q-115 0 -190.5 75.5t-75.5 190.5z" />
    <glyph glyph-name="uni0439.ss02" 
d="M154 246v768h133v-758q0 -143 143 -143h164q100 0 157.5 57t57.5 158v686h133v-1014h-92l-31 102h-10q-2 -4 -7 -13t-25.5 -29.5t-45 -37t-66.5 -29.5t-92 -13h-153q-115 0 -190.5 75.5t-75.5 190.5zM266 1393v92h123v-72q0 -82 82 -82h143q82 0 82 82v72h123v-92
q0 -84 -50 -134.5t-134 -50.5h-184q-84 0 -134.5 49.5t-50.5 135.5z" />
    <glyph glyph-name="uni0443.ss02" 
d="M481 -348v328h-61q-115 0 -190.5 75.5t-75.5 190.5v768h133v-758q0 -143 143 -143h236q143 0 143 143v758h133v-768q0 -115 -75.5 -190.5t-190.5 -75.5h-62v-328h-133z" />
    <glyph glyph-name="uni0451.ss02" horiz-adv-x="1013" 
d="M256 530l399 84q143 29 144 144q0 143 -144 143h-256q-61 0 -102 -41t-41 -102v-228zM123 264v504q0 115 75.5 190.5t190.5 75.5h277q115 0 190.5 -75.5t75.5 -190.5v-33q0 -96 -63.5 -163.5t-172.5 -90.5l-440 -92v-113q0 -143 143 -143h492v-133h-502
q-115 0 -190.5 74.5t-75.5 189.5zM287 1249v205h123v-205h-123zM655 1249v205h133v-205h-133z" />
    <glyph glyph-name="uni045E.ss02" 
d="M481 -348v328h-61q-115 0 -190.5 75.5t-75.5 190.5v768h133v-758q0 -143 143 -143h236q143 0 143 143v758h133v-768q0 -115 -75.5 -190.5t-190.5 -75.5h-62v-328h-133zM266 1393v92h123v-72q0 -82 82 -82h143q82 0 82 82v72h123v-92q0 -84 -50 -134.5t-134 -50.5h-184
q-84 0 -134.5 49.5t-50.5 135.5z" />
    <glyph glyph-name="parenleft.case" horiz-adv-x="624" 
d="M184 31v1372q0 137 84 222t224 85h92v-133h-82q-184 0 -185 -184v-1352q0 -184 185 -184h82v-133h-92q-139 0 -223.5 85t-84.5 222z" />
    <glyph glyph-name="parenright.case" horiz-adv-x="624" 
d="M41 -276v133h82q184 0 184 184v1352q0 184 -184 184h-82v133h92q137 0 222 -85t85 -222v-1372q0 -137 -85 -222t-222 -85h-92z" />
    <glyph glyph-name="hyphen.case" horiz-adv-x="757" 
d="M82 655v123h594v-123h-594z" />
    <glyph glyph-name="at.case" horiz-adv-x="1699" 
d="M164 246v942q0 139 84 223t223 84h758q139 0 223 -84t84 -223v-770h-92l-31 104h-10q-2 -4 -6 -13t-22.5 -29.5t-42 -37t-64.5 -30t-90 -13.5h-195q-115 0 -190.5 76t-75.5 191v92q0 115 75.5 190.5t190.5 75.5h420v154q0 84 -50 134t-134 50h-738q-184 0 -184 -184v-922
q0 -84 50 -134t134 -50h1035v-133h-1045q-139 0 -223 84t-84 223zM993 532h195q92 0 153.5 61.5t61.5 154.5v143h-410q-143 0 -143 -143v-72q0 -144 143 -144z" />
    <glyph glyph-name="bracketleft.case" horiz-adv-x="614" 
d="M184 -276v1986h389v-133h-256v-1720h256v-133h-389z" />
    <glyph glyph-name="bracketright.case" horiz-adv-x="614" 
d="M41 -276v133h256v1720h-256v133h389v-1986h-389z" />
    <glyph glyph-name="braceleft.case" horiz-adv-x="645" 
d="M225 -20v512q0 78 -43 120.5t-121 42.5h-20v123h20q78 0 121 43t43 121v512q0 115 71 185.5t185 70.5h123v-133h-112q-133 0 -134 -133v-492q0 -55 -15 -98t-37.5 -67.5t-46 -40t-38.5 -21.5l-16 -4v-8q6 -2 16 -5t37 -20.5t47.5 -40t36.5 -66.5t16 -100v-491
q0 -133 134 -133h112v-133h-123q-115 0 -185.5 70.5t-70.5 185.5z" />
    <glyph glyph-name="braceright.case" horiz-adv-x="645" 
d="M41 -276v133h113q133 0 133 133v491q0 55 15 98.5t39 68t46.5 39.5t38.5 22l14 4v8q-6 2 -16 5t-37 20.5t-47.5 40t-36.5 66.5t-16 99v492q0 133 -133 133h-113v133h123q115 0 185.5 -70.5t70.5 -185.5v-512q0 -78 44 -121t120 -43h20v-123h-20q-76 0 -120 -43t-44 -120
v-512q0 -115 -70.5 -185.5t-185.5 -70.5h-123z" />
    <glyph glyph-name="exclamdown.case" horiz-adv-x="501" 
d="M184 0v471l31 543h72l30 -543v-471h-133zM184 1239v195h133v-195h-133z" />
    <glyph glyph-name="guillemotleft.case" horiz-adv-x="921" 
d="M328 348l-226 369l226 368h112v-71l-194 -297l194 -297v-72h-112zM686 348l-225 369l225 368h113v-71l-195 -297l195 -297v-72h-113z" />
    <glyph glyph-name="periodcentered.case" horiz-adv-x="491" 
d="M184 618v195h133v-195h-133z" />
    <glyph glyph-name="guillemotright.case" horiz-adv-x="921" 
d="M481 348v72l195 297l-195 297v71h113l225 -368l-225 -369h-113zM123 348v72l194 297l-194 297v71h113l225 -368l-225 -369h-113z" />
    <glyph glyph-name="questiondown.case" horiz-adv-x="911" 
d="M471 1239v195h133v-195h-133zM113 307v185q0 90 36.5 149t90 88t106.5 54.5t90 68.5t37 111v61h131v-61q0 -94 -37 -154.5t-89 -90.5t-105.5 -54.5t-90 -66.5t-36.5 -105v-175q0 -184 184 -184h410l41 -41v-92h-461q-137 0 -222 84t-85 223z" />
    <glyph glyph-name="endash.case" 
d="M82 655v123h932v-123h-932z" />
    <glyph glyph-name="emdash.case" horiz-adv-x="1679" 
d="M82 655v123h1515v-123h-1515z" />
    <glyph glyph-name="bullet.case" horiz-adv-x="716" 
d="M246 692v51q0 92 92 93h41q92 0 92 -93v-51q0 -92 -92 -92h-41q-92 0 -92 92z" />
    <glyph glyph-name="guilsinglleft.case" horiz-adv-x="655" 
d="M430 276l-317 441l317 440h102v-72l-266 -368l266 -369v-72h-102z" />
    <glyph glyph-name="guilsinglright.case" horiz-adv-x="655" 
d="M123 276v72l266 369l-266 368v72h102l318 -440l-318 -441h-102z" />
    <glyph glyph-name="zero.dnom" horiz-adv-x="665" 
d="M61 184v348q0 84 55.5 139.5t139.5 55.5h154q84 0 139 -55.5t55 -139.5v-348q0 -84 -55 -139t-139 -55h-154q-84 0 -139.5 55t-55.5 139zM270 100h123q98 0 99 95v327q0 92 -99 92h-127q-92 0 -92 -92v-327q0 -95 96 -95z" />
    <glyph glyph-name="one.dnom" horiz-adv-x="512" 
d="M72 0v113h143v430h-133v102h133v82h113v-614h143v-113h-399z" />
    <glyph glyph-name="two.dnom" horiz-adv-x="655" 
d="M61 0v113l318 235q82 61 82 144v20q0 92 -92 92h-256l-41 41v72h307q84 0 139 -55.5t55 -139.5v-20q0 -84 -30.5 -131t-91.5 -95l-205 -153v-10h327v-113h-512z" />
    <glyph glyph-name="three.dnom" horiz-adv-x="624" 
d="M41 0v113h317q92 0 93 92v10q0 92 -103 92h-153v103l184 184v10h-297l-41 41v72h502v-101l-185 -186v-10q92 0 148.5 -54.5t56.5 -140.5v-30q0 -84 -55 -139.5t-139 -55.5h-328z" />
    <glyph glyph-name="four.dnom" horiz-adv-x="665" 
d="M10 174v113l277 430h92v-51l-236 -369v-10h236v225h113v-225h112v-113h-112v-174h-113v174h-369z" />
    <glyph glyph-name="five.dnom" horiz-adv-x="604" 
d="M41 0v113h307q92 0 92 92v33q0 90 -92 90h-297v389h481v-72l-40 -41h-328v-164h194q84 0 139.5 -55t55.5 -139v-51q0 -84 -55.5 -139.5t-139.5 -55.5h-317z" />
    <glyph glyph-name="six.dnom" horiz-adv-x="634" 
d="M51 184v62q0 74 62 164l204 307h103v-31l-164 -246v-10h143q84 0 139.5 -54t55.5 -138v-54q0 -84 -55.5 -139t-139.5 -55h-153q-84 0 -139.5 55t-55.5 139zM256 100h133q92 0 92 95v30q0 92 -92 92h-133q-92 0 -92 -92v-30q0 -95 92 -95z" />
    <glyph glyph-name="seven.dnom" horiz-adv-x="583" 
d="M174 0v51l256 543v12h-379v111h512v-101l-276 -616h-113z" />
    <glyph glyph-name="eight.dnom" horiz-adv-x="665" 
d="M266 98h133q102 0 103 105v10q0 53 -24.5 77.5t-78.5 24.5h-133q-53 0 -77.5 -24.5t-24.5 -77.5v-10q0 -105 102 -105zM51 182v21q0 35 10.5 64.5t25.5 47t30.5 29.5t25.5 16l11 7v10q-8 4 -22.5 12t-37 45t-22.5 86v21q0 78 54 131t130 53h154q78 0 131 -53.5t53 -130.5
v-21q0 -49 -20.5 -85t-41.5 -46l-20 -12v-10l11 -5.5t24.5 -17.5t31 -30.5t24.5 -46t11 -64.5v-21q0 -84 -55 -139t-139 -55h-174q-84 0 -139.5 55t-55.5 139zM276 418h113q92 0 92 92v10q0 92 -92 92h-113q-92 0 -92 -92v-10q0 -92 92 -92z" />
    <glyph glyph-name="nine.dnom" horiz-adv-x="634" 
d="M225 0v31l164 245v11h-143q-84 0 -139.5 54t-55.5 138v53q0 84 55.5 139.5t139.5 55.5h153q84 0 139.5 -55.5t55.5 -139.5v-61q0 -74 -62 -164l-204 -307h-103zM256 399h133q92 0 92 93v30q0 94 -92 94h-133q-92 0 -92 -94v-30q0 -93 92 -93z" />
    <glyph glyph-name="plus.case" horiz-adv-x="1003" 
d="M440 307v348h-338v123h338v348h123v-348h338v-123h-338v-348h-123z" />
    <glyph glyph-name="colon.lnum" horiz-adv-x="358" 
d="M113 215v195h133v-195h-133zM113 1034v195h133v-195h-133z" />
    <glyph glyph-name="less.case" horiz-adv-x="1003" 
d="M92 645v133l809 420v-133l-676 -348v-10l676 -349v-133z" />
    <glyph glyph-name="equal.case" horiz-adv-x="1003" 
d="M102 840v123h799v-123h-799zM102 471v123h799v-123h-799z" />
    <glyph glyph-name="greater.case" horiz-adv-x="1003" 
d="M102 225v133l676 349v10l-676 348v133l809 -420v-133z" />
    <glyph glyph-name="asciitilde.case" horiz-adv-x="1003" 
d="M92 532v205q0 78 54.5 131.5t129.5 53.5h31q51 0 112.5 -45.5t107.5 -98.5t99.5 -98t90.5 -45q31 0 51 22.5t20 59.5v184h123v-205q0 -78 -54 -131t-130 -53h-31q-51 0 -112.5 45t-107.5 98.5t-99 98.5t-90 45q-31 0 -51.5 -22.5t-20.5 -59.5v-185h-123z" />
    <glyph glyph-name="logicalnot.case" horiz-adv-x="1003" 
d="M92 778v133h809v-399h-123v266h-686z" />
    <glyph glyph-name="plusminus.case" horiz-adv-x="1003" 
d="M113 256v123h317v328h-338v122h338v349h123v-349h338v-122h-338v-328h328v-123h-768z" />
    <glyph glyph-name="multiply.case" horiz-adv-x="1003" 
d="M133 440l277 277l-277 276l92 92l277 -276l276 276l92 -92l-276 -276l276 -277l-92 -92l-276 277l-277 -277z" />
    <glyph glyph-name="divide.case" horiz-adv-x="1003" 
d="M82 655v123h840v-123h-840zM440 174v195h123v-195h-123zM440 1065v195h123v-195h-123z" />
    <glyph glyph-name="minus.case" horiz-adv-x="1003" 
d="M82 655v123h840v-123h-840z" />
    <glyph glyph-name="zero.frac" horiz-adv-x="665" 
d="M61 901v348q0 84 55.5 139.5t139.5 55.5h154q84 0 139 -55.5t55 -139.5v-348q0 -84 -55 -139t-139 -55h-154q-84 0 -139.5 55t-55.5 139zM270 817h123q98 0 99 94v328q0 92 -99 92h-127q-92 0 -92 -92v-328q0 -94 96 -94z" />
    <glyph glyph-name="one.frac" horiz-adv-x="512" 
d="M72 717v112h143v431h-133v102h133v82h113v-615h143v-112h-399z" />
    <glyph glyph-name="two.frac" horiz-adv-x="655" 
d="M61 717v112l318 236q82 61 82 143v21q0 92 -92 92h-256l-41 41v72h307q84 0 139 -55.5t55 -139.5v-20q0 -84 -30.5 -131.5t-91.5 -94.5l-205 -153v-11h327v-112h-512z" />
    <glyph glyph-name="three.frac" horiz-adv-x="624" 
d="M41 717v112h317q92 0 93 93v10q0 92 -103 92h-153v102l184 185v10h-297l-41 41v72h502v-101l-185 -186v-10q92 0 148.5 -54.5t56.5 -140.5v-31q0 -84 -55 -139t-139 -55h-328z" />
    <glyph glyph-name="four.frac" horiz-adv-x="665" 
d="M10 891v113l277 430h92v-52l-236 -368v-10h236v225h113v-225h112v-113h-112v-174h-113v174h-369z" />
    <glyph glyph-name="five.frac" horiz-adv-x="604" 
d="M41 717v112h307q92 0 92 93v32q0 90 -92 90h-297v390h481v-72l-40 -41h-328v-164h194q84 0 139.5 -55t55.5 -139v-52q0 -84 -55.5 -139t-139.5 -55h-317z" />
    <glyph glyph-name="six.frac" horiz-adv-x="634" 
d="M51 901v62q0 74 62 163l204 308h103v-31l-164 -246v-10h143q84 0 139.5 -54.5t55.5 -138.5v-53q0 -84 -55.5 -139t-139.5 -55h-153q-84 0 -139.5 55t-55.5 139zM256 817h133q92 0 92 94v31q0 92 -92 92h-133q-92 0 -92 -92v-31q0 -94 92 -94z" />
    <glyph glyph-name="seven.frac" horiz-adv-x="583" 
d="M174 717v51l256 543v12h-379v111h512v-101l-276 -616h-113z" />
    <glyph glyph-name="eight.frac" horiz-adv-x="665" 
d="M266 817h133q102 0 103 105v10q0 53 -24.5 77.5t-78.5 24.5h-133q-53 0 -77.5 -24.5t-24.5 -77.5v-10q0 -105 102 -105zM51 901v21q0 35 10.5 64.5t25.5 47t30.5 29.5t25.5 18l11 4v11q-8 4 -22.5 12t-37 45t-22.5 86v21q0 76 54 130t130 54h154q78 0 131 -54.5
t53 -129.5v-21q0 -49 -20.5 -85t-41.5 -48l-20 -10v-11q4 -2 11 -5t24.5 -17t31 -30.5t24.5 -46.5t11 -64v-21q0 -84 -55 -139t-139 -55h-174q-84 0 -139.5 55t-55.5 139zM276 1137h113q92 0 92 92v10q0 92 -92 92h-113q-92 0 -92 -92v-10q0 -92 92 -92z" />
    <glyph glyph-name="nine.frac" horiz-adv-x="634" 
d="M225 717v31l164 245v11h-143q-84 0 -139.5 54t-55.5 138v53q0 84 55.5 139.5t139.5 55.5h153q84 0 139.5 -55.5t55.5 -139.5v-61q0 -74 -62 -164l-204 -307h-103zM256 1116h133q92 0 92 92v31q0 94 -92 94h-133q-92 0 -92 -94v-31q0 -92 92 -92z" />
    <glyph glyph-name="zero.tnum" horiz-adv-x="1085" 
d="M102 287v860q0 139 84 223t224 84h276q137 0 222 -84t85 -223v-860q0 -137 -85 -222t-224 -85h-274q-139 0 -223.5 84t-84.5 223zM420 113h256q184 0 184 184v840q0 184 -184 184h-256q-184 0 -184 -184v-840q0 -184 184 -184z" />
    <glyph glyph-name="one.tnum" horiz-adv-x="1085" 
d="M246 0v123h256v1034h-246v123h246v164h133v-1321h256v-123h-645z" />
    <glyph glyph-name="two.tnum" horiz-adv-x="1085" 
d="M92 0v133l594 563q39 37 58.5 61.5t37 73t17.5 111.5v174q0 184 -185 184h-460l-41 41v93h512q137 0 222 -84t85 -224v-194q0 -82 -25.5 -148.5t-53.5 -100.5t-75 -79l-502 -461v-10h656v-133h-840z" />
    <glyph glyph-name="three.tnum" horiz-adv-x="1085" 
d="M102 0v133h543q184 0 184 184v175q0 184 -184 184h-307v133l399 481v10h-594l-41 41v93h809v-134l-409 -481v-10h153q139 0 223.5 -85t84.5 -222v-195q0 -139 -84 -223t-224 -84h-553z" />
    <glyph glyph-name="four.tnum" horiz-adv-x="1085" 
d="M82 348v133l461 953h112v-62l-430 -880v-11h512v482h133v-482h205v-133h-205v-348h-133v348h-655z" />
    <glyph glyph-name="five.tnum" horiz-adv-x="1085" 
d="M123 0v133h522q184 0 184 184v236q0 184 -184 184h-502v697h779v-93l-41 -41h-605v-430h379q139 0 223.5 -85t84.5 -222v-256q0 -139 -84 -223t-224 -84h-532z" />
    <glyph glyph-name="six.tnum" horiz-adv-x="1085" 
d="M92 287v276q0 72 35 139.5t119 178.5l420 553h122v-62l-389 -512v-10h297q139 0 223.5 -85t84.5 -222v-256q0 -139 -84 -223t-224 -84h-297q-137 0 -222 84t-85 223zM410 113h276q184 0 184 184v235q0 184 -184 185h-276q-184 0 -185 -185v-235q1 -184 185 -184z" />
    <glyph glyph-name="seven.tnum" horiz-adv-x="1085" 
d="M348 0v72l471 1218v10h-696v134h840v-134l-502 -1300h-113z" />
    <glyph glyph-name="eight.tnum" horiz-adv-x="1085" 
d="M399 113h287q184 0 184 184v195q0 84 -50 134t-134 50h-287q-84 0 -134 -50.5t-50 -133.5v-195q0 -184 184 -184zM82 287v184q0 63 20.5 113.5t49 78t56.5 46t48 24.5l20 4v11q-6 2 -17 7t-40 25.5t-50.5 47t-38.5 76.5t-17 110v133q0 139 85 223t222 84h246
q137 0 222 -84t85 -223v-133q0 -59 -16.5 -109.5t-41 -78t-49 -47t-41.5 -25.5l-16 -6v-11q8 -2 21.5 -6t46 -23.5t58.5 -46t47.5 -76.5t21.5 -114v-184q0 -139 -84 -223t-224 -84h-307q-139 0 -223 84t-84 223zM430 809h225q84 0 134.5 50t50.5 134v144q0 184 -185 184
h-225q-184 0 -184 -184v-144q0 -84 50 -134t134 -50z" />
    <glyph glyph-name="nine.tnum" horiz-adv-x="1085" 
d="M297 0v61l389 512v11h-297q-139 0 -223 85t-84 222v256q0 139 84 223t223 84h297q137 0 222 -84t85 -223v-277q0 -72 -34.5 -139t-118.5 -178l-420 -553h-123zM399 717h277q184 0 184 184v236q0 184 -184 184h-277q-184 0 -184 -184v-236q0 -184 184 -184z" />
    <glyph glyph-name="uniF730.tnum" horiz-adv-x="1085" 
d="M102 287v440q0 137 84 222t224 85h276q137 0 222 -85t85 -222v-440q0 -137 -85 -222t-224 -85h-274q-139 0 -223.5 84t-84.5 223zM420 113h256q184 0 184 184v420q0 184 -184 184h-256q-184 0 -184 -184v-420q0 -184 184 -184z" />
    <glyph glyph-name="uniF731.tnum" horiz-adv-x="1085" 
d="M246 0v133h256v615h-246v122h246v154h133v-891h256v-133h-645z" />
    <glyph glyph-name="uniF732.tnum" horiz-adv-x="1085" 
d="M113 0v133l563 307q76 41 109.5 90.5t33.5 135.5v20q0 92 -49 143.5t-135 51.5h-461l-41 41v92h512q137 0 222 -85t85 -222v-52q0 -117 -48 -185.5t-146 -121.5l-377 -205v-10h569v-133h-837z" />
    <glyph glyph-name="uniF733.tnum" horiz-adv-x="1085" 
d="M102 -348v133h543q184 0 184 184v123q0 184 -184 184h-307v134l399 460v11h-594l-41 41v92h809v-133l-409 -461v-10h153q139 0 223.5 -84t84.5 -224v-143q0 -139 -84 -223t-224 -84h-553z" />
    <glyph glyph-name="uniF734.tnum" horiz-adv-x="1085" 
d="M72 0v133l563 881h113v-62l-523 -809v-10h502v481h133v-481h205v-133h-205v-348h-133v348h-655z" />
    <glyph glyph-name="uniF735.tnum" horiz-adv-x="1085" 
d="M123 -348v133h522q184 0 184 184v185q0 184 -184 184h-502v676h779v-92l-41 -41h-605v-410h379q139 0 223.5 -84t84.5 -223v-205q0 -139 -84 -223t-224 -84h-532z" />
    <glyph glyph-name="uniF736.tnum" horiz-adv-x="1085" 
d="M92 287v276q0 72 35 139.5t119 178.5l420 553h122v-62l-389 -512v-10h297q139 0 223.5 -85t84.5 -222v-256q0 -139 -84 -223t-224 -84h-297q-137 0 -222 84t-85 223zM410 113h276q184 0 184 184v235q0 184 -184 185h-276q-184 0 -185 -185v-235q1 -184 185 -184z" />
    <glyph glyph-name="uniF737.tnum" horiz-adv-x="1085" 
d="M348 -348v72l471 1146v11h-696v133h840v-133l-502 -1229h-113z" />
    <glyph glyph-name="uniF738.tnum" horiz-adv-x="1085" 
d="M399 113h287q184 0 184 184v195q0 84 -50 134t-134 50h-287q-84 0 -134 -50.5t-50 -133.5v-195q0 -184 184 -184zM82 287v184q0 63 20.5 113.5t49 78t56.5 46t48 24.5l20 4v11q-6 2 -17 7t-40 25.5t-50.5 47t-38.5 76.5t-17 110v133q0 139 85 223t222 84h246
q137 0 222 -84t85 -223v-133q0 -59 -16.5 -109.5t-41 -78t-49 -47t-41.5 -25.5l-16 -6v-11q8 -2 21.5 -6t46 -23.5t58.5 -46t47.5 -76.5t21.5 -114v-184q0 -139 -84 -223t-224 -84h-307q-139 0 -223 84t-84 223zM430 809h225q84 0 134.5 50t50.5 134v144q0 184 -185 184
h-225q-184 0 -184 -184v-144q0 -84 50 -134t134 -50z" />
    <glyph glyph-name="uniF739.tnum" horiz-adv-x="1085" 
d="M297 -348v61l389 441v10h-297q-139 0 -223 84t-84 223v256q0 137 84 222t223 85h297q137 0 222 -85t85 -222v-266q0 -154 -123 -297l-450 -512h-123zM399 297h277q184 0 184 184v236q0 184 -184 184h-277q-184 0 -184 -184v-236q0 -184 184 -184z" />
    <glyph glyph-name="glyph624" horiz-adv-x="3149" 
d="M350 471v408h-145v63h364v-63h-147v-408h-72zM897 346v459h49l19 -39q39 45 98 45q66 0 112 -51t46 -121q0 -74 -46.5 -124t-111.5 -50q-59 0 -96 43v-162h-70zM1057 528q39 0 67.5 33t28.5 78q0 43 -28.5 74.5t-67.5 31.5t-67.5 -31.5t-28.5 -74.5q0 -45 27.5 -78
t68.5 -33zM569 348v58q47 0 64 40l12 33l-129 326h76l90 -238l90 238h76l-158 -389q-33 -70 -100 -70q-15 0 -21 2zM1511 561h72q-18 -45 -58 -70.5t-89 -25.5q-66 0 -113 50t-47 124q0 72 47 122t112.5 50t110.5 -50t45 -120l-2 -31h-243q4 -35 29.5 -59.5t60.5 -24.5
q55 0 75 35zM1346 666h180q-2 35 -30 58.5t-60.5 23.5t-59 -22.5t-30.5 -59.5zM1704 471v408h-145v63h364v-63h-147v-408h-72zM2251 346v459h49l18 -39q39 45 99 45q66 0 111.5 -51t45.5 -121q0 -74 -46 -124t-111 -50q-59 0 -97 43v-162h-69zM2410 528q39 0 68 33t29 78
q0 43 -29 74.5t-67.5 31.5t-67.5 -31.5t-29 -74.5q0 -45 27.5 -78t68.5 -33zM1923 348v58q47 0 64 40l12 33l-129 326h76l90 -238l90 238h76l-158 -389q-33 -70 -100 -70q-15 0 -21 2zM2865 561h72q-18 -45 -58 -70.5t-90 -25.5q-66 0 -112.5 50t-46.5 124q0 72 47 122
t112.5 50t110.5 -50t45 -120l-2 -31h-244q4 -35 30 -59.5t60 -24.5q56 0 76 35zM2699 666h180q-2 35 -29.5 58.5t-60 23.5t-59.5 -22.5t-31 -59.5z" />
    </font>
</defs>
</svg>
